{"glyphs":{"0":{"ha":897,"x_min":64,"x_max":833,"o":"m 833 494 q 813 296 833 390 q 746 130 792 201 q 627 16 700 58 q 450 -26 554 -26 q 272 16 346 -26 q 152 130 199 58 q 85 296 106 201 q 64 494 64 390 q 85 692 64 599 q 152 856 106 786 q 272 968 199 926 q 450 1010 346 1010 q 627 968 554 1010 q 746 856 700 926 q 813 692 792 786 q 833 494 833 599 m 594 494 q 589 596 594 540 q 568 699 583 651 q 524 780 553 747 q 450 813 496 813 q 375 780 404 813 q 330 699 346 747 q 308 596 314 651 q 303 494 303 540 q 308 391 303 447 q 330 287 314 335 q 375 206 346 239 q 450 174 404 174 q 524 206 496 174 q 568 287 553 239 q 589 391 583 335 q 594 494 594 447 z "},"1":{"ha":897,"x_min":89,"x_max":626,"o":"m 393 0 l 393 722 l 210 581 l 89 746 l 413 983 l 626 983 l 626 0 l 393 0 z "},"2":{"ha":897,"x_min":74,"x_max":806,"o":"m 94 0 l 94 194 l 478 542 q 536 613 514 576 q 558 693 558 649 q 525 778 558 746 q 436 811 492 811 q 341 770 378 811 q 297 663 304 729 l 74 693 q 115 826 82 768 q 197 926 147 885 q 312 988 247 967 q 449 1010 376 1010 q 581 992 517 1010 q 694 936 644 974 q 774 842 744 899 q 804 708 804 785 q 790 613 804 656 q 752 535 776 571 q 697 467 728 499 q 632 406 665 436 l 404 203 l 806 203 l 806 0 l 94 0 z "},"3":{"ha":897,"x_min":44,"x_max":810,"o":"m 810 286 q 777 147 810 206 q 692 49 744 88 q 573 -8 639 11 q 439 -26 507 -26 q 309 -11 372 -26 q 194 35 246 4 q 103 116 142 67 q 44 235 64 165 l 261 292 q 318 206 275 243 q 428 169 361 169 q 478 176 453 169 q 524 198 504 183 q 558 236 544 213 q 571 294 571 260 q 553 357 571 332 q 508 397 536 382 q 443 417 479 411 q 371 424 407 424 l 308 424 l 308 594 l 376 594 q 440 599 410 594 q 495 617 471 604 q 534 653 519 631 q 549 711 549 675 q 511 792 549 764 q 425 819 474 819 q 338 790 375 819 q 290 710 301 760 l 74 760 q 128 869 92 822 q 213 947 164 915 q 321 994 263 978 q 440 1010 379 1010 q 567 993 506 1010 q 678 942 629 976 q 756 855 726 907 q 786 732 786 803 q 740 594 786 650 q 621 518 693 538 l 621 514 q 697 483 663 504 q 757 431 732 461 q 796 365 782 401 q 810 286 810 328 z "},"4":{"ha":897,"x_min":35,"x_max":850,"o":"m 715 192 l 715 0 l 497 0 l 497 192 l 35 192 l 35 388 l 435 983 l 714 983 l 714 381 l 850 381 l 850 192 l 715 192 m 499 744 l 494 744 l 261 381 l 499 381 l 499 744 z "},"5":{"ha":897,"x_min":56,"x_max":808,"o":"m 808 325 q 776 169 808 235 q 691 60 744 103 q 569 -5 638 17 q 429 -26 501 -26 q 302 -9 363 -26 q 192 40 242 8 q 108 119 143 72 q 56 224 72 165 l 268 289 q 326 204 283 238 q 426 171 368 171 q 530 207 486 171 q 574 314 574 243 q 556 386 574 357 q 509 433 538 415 q 444 457 481 450 q 372 464 408 464 q 252 452 319 464 q 132 421 185 440 l 156 983 l 758 983 l 758 783 l 363 783 l 354 628 q 403 635 376 633 q 453 638 431 638 q 592 618 526 638 q 705 559 657 599 q 781 461 753 519 q 808 325 808 403 z "},"6":{"ha":897,"x_min":60,"x_max":835,"o":"m 835 331 q 804 181 835 247 q 721 68 774 114 q 597 -2 668 22 q 447 -26 526 -26 q 297 -2 367 -26 q 174 68 226 22 q 90 179 121 114 q 60 325 60 244 q 90 484 60 413 q 169 629 121 556 l 407 983 l 689 983 l 447 647 l 443 640 q 476 649 457 646 q 513 651 496 651 q 635 628 576 651 q 738 563 694 606 q 808 462 782 521 q 835 331 835 403 m 601 325 q 560 435 601 392 q 449 479 518 479 q 336 436 379 479 q 293 324 293 393 q 335 214 293 260 q 447 168 376 168 q 559 211 517 168 q 601 325 601 254 z "},"7":{"ha":897,"x_min":88,"x_max":801,"o":"m 425 0 l 154 0 l 553 783 l 88 783 l 88 983 l 801 983 l 801 797 l 425 0 z "},"8":{"ha":897,"x_min":79,"x_max":818,"o":"m 818 281 q 788 145 818 203 q 706 49 757 88 q 588 -8 656 11 q 449 -26 521 -26 q 308 -8 375 -26 q 191 49 242 11 q 110 144 140 86 q 79 279 79 201 q 93 362 79 324 q 131 430 107 400 q 188 481 156 460 q 256 514 219 503 l 256 517 q 149 594 192 540 q 106 729 106 647 q 133 850 106 797 q 208 938 161 903 q 318 992 256 974 q 449 1010 381 1010 q 578 992 517 1010 q 688 940 640 975 q 763 853 735 906 q 792 733 792 801 q 750 596 792 651 q 642 518 708 540 l 642 514 q 711 481 679 503 q 767 430 743 460 q 804 362 790 400 q 818 281 818 324 m 567 717 q 532 797 567 765 q 449 829 497 829 q 364 797 396 829 q 332 717 332 765 q 363 635 332 669 q 449 600 394 600 q 533 635 500 600 q 567 717 567 669 m 585 289 q 547 384 585 346 q 449 422 508 422 q 349 385 388 422 q 311 289 311 347 q 349 194 311 229 q 449 158 388 158 q 547 194 510 158 q 585 289 585 229 z "},"9":{"ha":897,"x_min":61,"x_max":836,"o":"m 836 658 q 806 499 836 571 q 726 354 775 428 l 489 0 l 207 0 l 451 339 l 454 343 q 420 335 439 338 q 385 332 401 332 q 261 355 319 332 q 158 420 203 378 q 88 522 114 463 q 61 653 61 581 q 92 803 61 736 q 175 915 122 869 q 299 985 228 961 q 449 1010 369 1010 q 600 985 529 1010 q 723 915 671 961 q 806 804 775 869 q 836 658 836 739 m 603 661 q 562 772 603 725 q 450 818 521 818 q 337 774 379 818 q 294 660 294 731 q 336 549 294 593 q 447 506 378 506 q 560 549 517 506 q 603 661 603 592 z "},"\u0000":{"ha":694,"x_min":0,"x_max":0,"o":""},"\r":{"ha":0,"x_min":0,"x_max":0,"o":""}," ":{"ha":347,"x_min":0,"x_max":0,"o":""},"!":{"ha":496,"x_min":113,"x_max":383,"o":"m 131 329 l 131 983 l 364 983 l 364 329 l 131 329 m 383 118 q 373 66 383 90 q 344 24 363 42 q 300 -3 325 7 q 247 -14 275 -14 q 195 -4 219 -14 q 153 24 171 6 q 124 65 135 42 q 113 117 113 89 q 123 167 113 143 q 151 210 133 192 q 194 238 169 228 q 247 249 219 249 q 300 238 275 249 q 344 210 325 228 q 373 169 363 193 q 383 118 383 144 z "},"\"":{"ha":692,"x_min":119,"x_max":571,"o":"m 390 607 l 390 983 l 571 983 l 571 607 l 390 607 m 119 607 l 119 983 l 301 983 l 301 607 l 119 607 z "},"#":{"ha":838,"x_min":64,"x_max":774,"o":"m 636 561 l 617 422 l 735 422 l 735 278 l 599 278 l 557 0 l 404 0 l 444 278 l 335 278 l 294 0 l 142 0 l 182 278 l 64 278 l 64 422 l 201 422 l 222 561 l 104 561 l 104 706 l 240 706 l 281 983 l 435 983 l 394 706 l 503 706 l 543 983 l 696 983 l 657 706 l 774 706 l 774 561 l 636 561 m 374 561 l 356 422 l 464 422 l 483 561 l 374 561 z "},"$":{"ha":897,"x_min":49,"x_max":815,"o":"m 500 997 q 663 969 579 994 q 811 892 746 944 q 676 740 743 814 q 593 794 642 775 q 500 815 544 814 l 500 593 q 610 556 554 576 q 711 500 665 535 q 786 415 757 465 q 815 290 815 365 q 788 158 815 214 q 716 64 761 101 q 613 7 671 26 q 494 -14 556 -12 l 494 -115 l 392 -115 l 392 -14 q 210 20 301 -11 q 49 114 118 51 q 122 190 85 151 q 194 267 158 228 q 238 228 213 246 q 289 199 263 211 q 342 178 315 186 q 392 171 368 171 l 392 414 q 277 451 332 431 q 181 506 222 472 q 114 587 139 539 q 89 704 89 635 q 117 826 89 772 q 189 916 144 879 q 289 973 233 953 q 399 996 344 993 l 399 1092 l 500 1092 l 500 997 m 399 818 q 331 790 361 814 q 301 719 301 765 q 328 651 301 675 q 399 617 354 628 l 399 818 m 494 169 q 569 201 542 172 q 596 278 596 229 q 567 351 596 326 q 494 389 539 375 l 494 169 z "},"%":{"ha":1265,"x_min":40,"x_max":1235,"o":"m 1235 246 q 1214 144 1235 192 q 1158 60 1193 96 q 1074 4 1122 25 q 971 -17 1025 -17 q 868 4 917 -17 q 784 60 819 25 q 728 144 749 96 q 707 246 707 192 q 728 348 707 300 q 784 431 749 396 q 868 488 819 467 q 971 508 917 508 q 1074 488 1025 508 q 1158 431 1122 467 q 1214 348 1193 396 q 1235 246 1235 300 m 1079 246 q 1070 288 1079 268 q 1047 323 1061 308 q 1013 346 1032 338 q 971 354 993 354 q 894 322 926 354 q 863 246 863 290 q 894 170 863 201 q 971 139 926 139 q 1013 147 993 139 q 1047 170 1032 156 q 1070 204 1061 185 q 1079 246 1079 224 m 568 738 q 547 635 568 683 q 491 552 526 588 q 407 496 456 517 q 304 475 358 475 q 201 496 250 475 q 117 552 153 517 q 61 635 82 588 q 40 738 40 683 q 61 841 40 793 q 117 924 82 889 q 201 980 153 960 q 304 1000 250 1000 q 407 980 358 1000 q 491 924 456 960 q 547 841 526 889 q 568 738 568 793 m 413 738 q 381 814 413 782 q 304 846 349 846 q 228 814 260 846 q 196 738 196 782 q 228 662 196 693 q 304 631 260 631 q 381 662 349 631 q 413 738 413 693 m 411 -47 l 288 14 l 861 1028 l 990 965 l 411 -47 z "},"&":{"ha":1085,"x_min":63,"x_max":1083,"o":"m 796 0 l 703 96 q 587 13 656 46 q 415 -19 518 -19 q 285 -2 349 -19 q 172 52 221 15 q 92 144 122 89 q 63 274 63 199 q 79 368 63 325 q 124 444 96 411 q 190 503 153 478 q 268 546 228 528 q 194 643 222 590 q 167 760 167 696 q 194 874 167 826 q 266 951 222 921 q 365 996 310 982 q 474 1010 419 1010 q 583 995 529 1010 q 680 950 638 981 q 748 872 722 919 q 774 760 774 825 q 758 674 774 713 q 716 605 743 636 q 653 549 689 574 q 576 503 617 524 l 700 376 l 799 528 l 1051 528 l 839 243 l 1083 0 l 796 0 m 569 753 q 544 817 569 790 q 476 843 519 843 q 409 817 436 843 q 382 753 382 792 q 401 686 382 718 q 456 625 419 654 q 536 676 503 644 q 569 753 569 708 m 394 415 q 322 369 353 399 q 290 283 290 339 q 302 231 290 254 q 333 192 314 208 q 375 168 351 176 q 424 160 399 160 q 506 179 469 160 q 568 235 542 199 l 394 415 z "},"'":{"ha":421,"x_min":119,"x_max":300,"o":"m 119 607 l 119 983 l 300 983 l 300 607 l 119 607 z "},"(":{"ha":475,"x_min":40,"x_max":400,"o":"m 244 -231 q 93 67 146 -94 q 40 400 40 229 q 93 733 40 571 q 244 1031 146 894 l 400 954 q 266 692 313 833 q 219 400 219 551 q 266 108 219 249 q 400 -154 313 -33 l 244 -231 z "},")":{"ha":475,"x_min":75,"x_max":435,"o":"m 435 400 q 382 67 435 229 q 231 -231 329 -94 l 75 -154 q 209 108 163 -33 q 256 400 256 249 q 209 692 256 551 q 75 954 163 833 l 231 1031 q 382 733 329 894 q 435 400 435 571 z "},"*":{"ha":679,"x_min":39,"x_max":640,"o":"m 463 664 l 575 515 l 450 428 l 338 579 l 228 433 l 106 521 l 218 665 l 39 725 l 88 864 l 264 803 l 264 983 l 417 983 l 417 803 l 593 858 l 640 719 l 463 664 z "},"+":{"ha":925,"x_min":78,"x_max":849,"o":"m 554 333 l 554 43 l 374 43 l 374 333 l 78 333 l 78 508 l 372 508 l 372 799 l 553 799 l 553 508 l 849 508 l 849 333 l 554 333 z "},",":{"ha":417,"x_min":28,"x_max":350,"o":"m 215 -172 l 28 -172 l 132 222 l 350 222 l 215 -172 z "},"-":{"ha":453,"x_min":50,"x_max":403,"o":"m 50 274 l 50 454 l 403 454 l 403 274 l 50 274 z "},".":{"ha":417,"x_min":68,"x_max":349,"o":"m 349 122 q 308 25 349 64 q 210 -14 267 -14 q 155 -3 181 -14 q 110 25 129 7 q 79 67 90 43 q 68 121 68 92 q 79 174 68 149 q 110 217 90 199 q 155 247 129 236 q 210 258 181 258 q 308 219 267 258 q 349 122 349 181 z "},"/":{"ha":576,"x_min":-10,"x_max":576,"o":"m 147 -72 l -10 -21 l 419 1058 l 576 1004 l 147 -72 z "},":":{"ha":461,"x_min":94,"x_max":367,"o":"m 367 569 q 356 517 367 542 q 326 475 344 493 q 283 447 308 457 q 232 436 258 436 q 179 446 204 436 q 135 474 154 456 q 106 515 117 492 q 94 567 94 539 q 106 619 94 594 q 135 661 117 643 q 179 690 154 679 q 232 700 204 700 q 283 690 258 700 q 326 662 308 679 q 356 620 344 644 q 367 569 367 596 m 367 124 q 356 72 367 96 q 326 30 344 47 q 283 2 308 13 q 232 -8 258 -8 q 179 1 204 -8 q 135 29 154 11 q 106 71 117 47 q 94 122 94 94 q 106 174 94 150 q 135 217 117 199 q 179 245 154 235 q 232 256 204 256 q 283 245 258 256 q 326 217 308 235 q 356 176 344 200 q 367 124 367 151 z "},";":{"ha":461,"x_min":42,"x_max":368,"o":"m 367 569 q 327 476 367 514 q 232 438 288 438 q 180 447 204 438 q 137 475 156 457 q 107 517 118 493 q 96 568 96 540 q 106 620 96 596 q 135 663 117 644 q 179 691 154 681 q 232 701 204 701 q 283 691 258 701 q 326 663 308 681 q 356 622 344 646 q 367 569 367 597 m 233 -172 l 42 -172 l 146 222 l 368 222 l 233 -172 z "},"<":{"ha":925,"x_min":110,"x_max":815,"o":"m 110 349 l 110 492 l 815 789 l 815 600 l 390 418 l 815 242 l 815 51 l 110 349 z "},"=":{"ha":925,"x_min":94,"x_max":831,"o":"m 94 465 l 94 636 l 831 636 l 831 465 l 94 465 m 94 208 l 94 379 l 831 379 l 831 208 l 94 208 z "},">":{"ha":925,"x_min":110,"x_max":815,"o":"m 110 51 l 110 242 l 535 418 l 110 600 l 110 789 l 815 492 l 815 349 l 110 51 z "},"?":{"ha":758,"x_min":56,"x_max":732,"o":"m 732 732 q 721 651 732 686 q 690 588 710 617 q 641 533 669 558 q 576 479 613 507 q 540 447 554 461 q 517 419 525 433 q 505 388 508 404 q 501 350 501 372 l 501 314 l 285 314 l 285 367 q 292 431 285 403 q 313 483 299 460 q 347 529 326 507 q 394 575 367 551 l 440 618 q 481 662 464 639 q 497 717 497 685 q 470 788 497 761 q 396 814 443 814 q 308 774 338 814 q 276 685 279 735 l 56 708 q 94 840 64 783 q 171 935 124 897 q 278 991 218 972 q 404 1010 338 1010 q 526 994 467 1010 q 631 944 585 978 q 704 857 676 910 q 732 732 732 804 m 529 118 q 490 24 529 63 q 394 -14 451 -14 q 342 -4 367 -14 q 299 24 318 6 q 269 65 281 42 q 258 117 258 89 q 269 167 258 143 q 298 210 279 192 q 342 238 317 228 q 394 249 367 249 q 447 238 422 249 q 490 210 471 228 q 519 169 508 193 q 529 118 529 144 z "},"@":{"ha":1111,"x_min":40,"x_max":1075,"o":"m 1075 557 q 1053 415 1075 478 q 993 310 1032 353 q 902 244 954 267 q 790 222 850 222 q 699 247 735 222 q 658 311 664 271 l 653 311 q 592 251 633 279 q 488 222 550 222 q 403 240 440 222 q 341 288 367 257 q 301 363 315 319 q 288 457 288 406 q 306 572 288 515 q 360 672 325 628 q 444 742 396 715 q 554 769 493 769 q 642 747 607 769 q 686 694 676 725 l 688 694 l 697 742 l 847 742 l 804 524 q 792 460 797 490 q 786 408 786 429 q 794 374 786 389 q 826 358 803 358 q 901 406 868 358 q 933 551 933 454 q 907 694 933 632 q 833 797 881 756 q 719 860 785 839 q 574 882 653 882 q 419 852 489 882 q 299 770 349 822 q 221 646 249 718 q 193 490 193 574 q 222 331 193 401 q 305 210 251 260 q 431 133 358 160 q 592 106 504 106 q 770 137 692 106 q 911 225 849 168 l 999 128 q 810 12 918 49 q 576 -25 703 -25 q 360 13 458 -25 q 190 119 261 51 q 80 283 119 188 q 40 490 40 378 q 83 696 40 601 q 197 860 125 790 q 367 969 269 929 q 575 1008 464 1008 q 763 980 672 1008 q 923 894 854 951 q 1033 753 992 838 q 1075 557 1075 669 m 646 526 q 642 567 646 547 q 631 601 639 586 q 607 626 622 617 q 568 635 592 635 q 521 619 542 635 q 485 577 500 603 q 461 519 469 551 q 453 457 453 488 q 469 391 453 422 q 529 360 485 360 q 582 376 560 360 q 618 417 604 392 q 639 471 632 442 q 646 526 646 500 z "},"A":{"ha":1013,"x_min":-19,"x_max":1032,"o":"m 768 0 l 692 193 l 311 193 l 239 0 l -19 0 l 393 983 l 624 983 l 1032 0 l 768 0 m 504 721 l 379 383 l 626 383 l 504 721 z "},"B":{"ha":924,"x_min":101,"x_max":868,"o":"m 868 286 q 836 151 868 206 q 751 63 804 96 q 631 15 699 29 q 493 0 564 0 l 101 0 l 101 983 l 493 983 q 610 972 550 983 q 718 931 669 960 q 797 854 767 903 q 828 731 828 806 q 783 595 828 649 q 667 518 739 542 l 667 515 q 745 490 708 508 q 809 442 782 471 q 852 374 836 413 q 868 286 868 335 m 599 699 q 560 772 599 749 q 447 794 522 794 l 331 794 l 331 592 l 458 592 q 562 619 525 592 q 599 699 599 646 m 631 308 q 585 393 631 369 q 463 417 539 417 l 331 417 l 331 192 l 464 192 q 522 197 492 192 q 576 214 551 201 q 615 249 600 226 q 631 308 631 272 z "},"C":{"ha":967,"x_min":56,"x_max":967,"o":"m 967 136 q 806 17 901 61 q 585 -26 710 -26 q 374 11 471 -26 q 207 117 278 49 q 96 282 136 186 q 56 493 56 378 q 97 707 56 611 q 210 870 138 803 q 379 974 282 938 q 589 1010 476 1010 q 794 973 693 1010 q 957 865 894 936 l 796 704 q 708 772 763 750 q 597 794 654 794 q 483 772 535 794 q 393 708 431 749 q 335 613 356 668 q 314 493 314 558 q 335 371 314 426 q 392 276 356 315 q 481 214 429 236 q 593 192 532 192 q 717 219 664 192 q 801 292 769 247 l 967 136 l 967 136 z "},"D":{"ha":1075,"x_min":101,"x_max":1019,"o":"m 1019 494 q 972 272 1019 365 q 845 117 924 178 q 668 28 767 57 q 468 0 569 0 l 101 0 l 101 983 l 457 983 q 663 959 561 983 q 843 878 764 935 q 971 728 922 822 q 1019 494 1019 633 m 772 494 q 745 633 772 578 q 673 720 718 688 q 570 767 628 753 q 451 781 513 781 l 333 781 l 333 206 l 446 206 q 569 220 510 206 q 673 268 628 235 q 745 357 718 301 q 772 494 772 413 z "},"E":{"ha":843,"x_min":101,"x_max":788,"o":"m 101 0 l 101 983 l 763 983 l 763 782 l 331 782 l 331 597 l 739 597 l 739 407 l 331 407 l 331 203 l 788 203 l 788 0 l 101 0 z "},"F":{"ha":800,"x_min":101,"x_max":749,"o":"m 336 781 l 336 578 l 717 578 l 717 382 l 336 382 l 336 0 l 101 0 l 101 983 l 749 983 l 749 781 l 336 781 z "},"G":{"ha":1068,"x_min":56,"x_max":975,"o":"m 975 60 q 806 -1 903 22 q 596 -25 710 -25 q 378 13 478 -25 q 208 118 279 50 q 96 281 136 186 q 56 493 56 376 q 97 707 56 611 q 210 870 138 803 q 379 974 282 938 q 589 1010 476 1010 q 806 974 706 1010 q 968 879 906 939 l 818 708 q 726 774 783 749 q 597 800 669 800 q 482 777 535 800 q 390 713 429 754 q 330 616 351 672 q 308 493 308 560 q 328 368 308 425 q 385 270 347 311 q 480 206 424 229 q 608 183 536 183 q 688 190 650 183 q 757 210 725 196 l 757 389 l 569 389 l 569 581 l 975 581 l 975 60 l 975 60 z "},"H":{"ha":1061,"x_min":101,"x_max":960,"o":"m 722 0 l 722 411 l 339 411 l 339 0 l 101 0 l 101 983 l 339 983 l 339 611 l 722 611 l 722 983 l 960 983 l 960 0 l 722 0 z "},"I":{"ha":442,"x_min":101,"x_max":340,"o":"m 101 0 l 101 983 l 340 983 l 340 0 l 101 0 z "},"J":{"ha":735,"x_min":-4,"x_max":639,"o":"m 639 336 q 626 214 639 278 q 577 97 613 150 q 478 8 542 43 q 315 -26 415 -26 q 107 38 190 -26 q -4 204 24 103 l 206 275 q 241 213 215 236 q 304 189 267 189 q 381 229 363 189 q 400 335 400 269 l 400 983 l 639 983 l 639 336 l 639 336 z "},"K":{"ha":988,"x_min":101,"x_max":1013,"o":"m 703 0 l 338 453 l 335 453 l 335 0 l 101 0 l 101 983 l 335 983 l 335 583 l 339 583 l 690 983 l 988 983 l 564 531 l 1013 0 l 703 0 z "},"L":{"ha":731,"x_min":101,"x_max":721,"o":"m 101 0 l 101 983 l 340 983 l 340 207 l 721 207 l 721 0 l 101 0 z "},"M":{"ha":1326,"x_min":101,"x_max":1225,"o":"m 993 0 l 999 696 l 994 696 l 739 0 l 572 0 l 324 696 l 319 696 l 325 0 l 101 0 l 101 983 l 439 983 l 663 353 l 668 353 l 882 983 l 1225 983 l 1225 0 l 993 0 z "},"N":{"ha":1097,"x_min":101,"x_max":996,"o":"m 726 0 l 331 643 l 326 643 l 332 0 l 101 0 l 101 983 l 372 983 l 767 342 l 771 342 l 765 983 l 996 983 l 996 0 l 726 0 z "},"O":{"ha":1182,"x_min":56,"x_max":1126,"o":"m 1126 496 q 1086 283 1126 379 q 974 117 1046 186 q 804 11 903 49 q 590 -26 706 -26 q 377 11 475 -26 q 208 117 279 49 q 96 283 136 186 q 56 496 56 379 q 96 709 56 614 q 208 871 136 804 q 377 974 279 938 q 590 1010 475 1010 q 804 974 706 1010 q 974 871 903 938 q 1086 709 1046 804 q 1126 496 1126 614 m 872 496 q 851 615 872 560 q 794 710 831 671 q 705 773 757 750 q 590 796 653 796 q 476 773 528 796 q 388 710 425 750 q 330 615 350 671 q 310 496 310 560 q 331 373 310 429 q 388 276 351 317 q 476 213 425 236 q 590 190 528 190 q 704 213 653 190 q 793 276 756 236 q 851 373 831 317 q 872 496 872 429 z "},"P":{"ha":889,"x_min":101,"x_max":847,"o":"m 847 681 q 815 535 847 594 q 729 440 783 476 q 604 388 675 404 q 457 371 533 371 l 339 371 l 339 0 l 101 0 l 101 983 l 463 983 q 613 967 543 983 q 735 916 683 951 q 817 823 788 881 q 847 681 847 765 m 610 679 q 596 736 610 714 q 558 771 582 758 q 505 788 535 783 q 443 792 475 792 l 339 792 l 339 560 l 439 560 q 503 565 472 560 q 558 585 533 571 q 596 622 582 599 q 610 679 610 644 z "},"Q":{"ha":1190,"x_min":50,"x_max":1174,"o":"m 575 0 q 361 33 458 0 q 195 131 264 67 q 88 290 126 196 q 50 504 50 383 q 90 710 50 617 q 202 869 131 803 q 372 973 274 936 q 583 1010 469 1010 q 794 973 697 1010 q 963 870 892 936 q 1073 712 1033 804 q 1113 508 1113 619 q 1100 402 1113 451 q 1067 313 1088 353 q 1019 241 1046 272 q 967 189 993 210 l 967 185 l 1174 189 l 1174 0 l 575 0 m 861 501 q 841 619 861 565 q 784 713 821 674 q 696 773 747 751 q 583 794 644 794 q 473 773 524 794 q 385 713 422 751 q 326 619 347 674 q 306 501 306 565 q 326 380 306 435 q 383 285 346 325 q 470 224 419 246 q 582 203 521 203 q 693 224 642 203 q 782 285 744 246 q 840 380 819 325 q 861 501 861 435 z "},"R":{"ha":921,"x_min":101,"x_max":906,"o":"m 628 0 l 415 390 l 335 390 l 335 0 l 101 0 l 101 983 l 476 983 q 615 969 547 983 q 735 919 682 954 q 821 828 789 885 q 853 686 853 771 q 799 518 853 586 q 649 421 744 450 l 906 0 l 628 0 m 618 682 q 603 738 618 717 q 566 772 589 760 q 515 788 543 783 q 460 792 486 792 l 333 792 l 333 563 l 446 563 q 506 567 475 563 q 561 585 536 572 q 602 621 586 597 q 618 682 618 644 z "},"S":{"ha":821,"x_min":21,"x_max":772,"o":"m 621 728 q 541 790 590 767 q 446 813 492 813 q 398 808 422 813 q 354 792 374 804 q 322 762 335 781 q 308 714 308 743 q 319 672 308 689 q 349 643 329 656 q 397 620 369 631 q 460 599 425 610 q 564 562 510 582 q 663 508 618 542 q 736 426 707 475 q 765 303 765 376 q 734 156 765 218 q 650 54 703 94 q 529 -6 597 14 q 389 -25 461 -25 q 185 12 283 -25 q 21 117 86 49 l 176 275 q 272 201 213 231 q 389 171 331 171 q 440 176 415 171 q 484 194 465 182 q 514 228 503 207 q 525 278 525 249 q 511 325 525 306 q 472 360 497 344 q 408 390 446 376 q 321 418 369 403 q 228 454 274 433 q 148 508 183 475 q 91 587 113 540 q 69 700 69 633 q 103 840 69 782 q 190 936 136 899 q 313 991 244 974 q 450 1008 381 1008 q 620 978 533 1008 q 772 888 707 947 l 621 728 z "},"T":{"ha":807,"x_min":7,"x_max":800,"o":"m 522 781 l 522 0 l 285 0 l 285 781 l 7 781 l 7 983 l 800 983 l 800 781 l 522 781 z "},"U":{"ha":1025,"x_min":92,"x_max":935,"o":"m 935 371 q 905 209 935 282 q 819 84 875 136 q 685 3 764 32 q 511 -26 607 -26 q 336 3 414 -26 q 204 84 258 32 q 121 209 150 136 q 92 371 92 282 l 92 983 l 328 983 l 328 390 q 338 314 328 350 q 370 249 349 278 q 427 204 392 221 q 513 188 463 188 q 598 204 563 188 q 656 249 633 221 q 688 314 678 278 q 697 390 697 350 l 697 983 l 935 983 l 935 371 l 935 371 z "},"V":{"ha":947,"x_min":-21,"x_max":968,"o":"m 589 0 l 351 0 l -21 983 l 246 983 l 474 286 l 479 286 l 706 983 l 968 983 l 589 0 z "},"W":{"ha":1424,"x_min":0,"x_max":1424,"o":"m 1143 0 l 908 0 l 714 665 l 710 665 l 515 0 l 279 0 l 0 983 l 256 983 l 411 329 l 415 329 l 590 983 l 838 983 l 1014 329 l 1018 329 l 1176 983 l 1424 983 l 1143 0 z "},"X":{"ha":976,"x_min":-11,"x_max":988,"o":"m 694 0 l 479 347 l 272 0 l -11 0 l 333 519 l 17 983 l 303 983 l 486 678 l 667 983 l 943 983 l 632 519 l 988 0 l 694 0 z "},"Y":{"ha":929,"x_min":-28,"x_max":957,"o":"m 579 417 l 579 0 l 342 0 l 342 417 l -28 983 l 260 983 l 469 619 l 679 983 l 957 983 l 579 417 z "},"Z":{"ha":882,"x_min":54,"x_max":829,"o":"m 54 0 l 54 206 l 522 782 l 65 782 l 65 983 l 819 983 l 819 793 l 340 206 l 829 206 l 829 0 l 54 0 z "},"[":{"ha":475,"x_min":74,"x_max":374,"o":"m 74 -217 l 74 1017 l 374 1017 l 374 875 l 250 875 l 250 -75 l 374 -75 l 374 -217 l 74 -217 z "},"\\":{"ha":576,"x_min":1,"x_max":586,"o":"m 429 -72 l 1 1004 l 158 1058 l 586 -21 l 429 -72 z "},"]":{"ha":475,"x_min":101,"x_max":401,"o":"m 101 -217 l 101 -75 l 225 -75 l 225 875 l 101 875 l 101 1017 l 401 1017 l 401 -217 l 101 -217 z "},"^":{"ha":958,"x_min":101,"x_max":856,"o":"m 650 476 l 478 772 l 307 476 l 101 476 l 397 983 l 561 983 l 856 476 l 650 476 z "},"_":{"ha":694,"x_min":0,"x_max":694,"o":"m 0 -228 l 0 -104 l 694 -104 l 694 -228 l 0 -228 z "},"`":{"ha":417,"x_min":-54,"x_max":321,"o":"m 149 794 l -54 994 l 176 994 l 321 794 l 149 794 z "},"a":{"ha":786,"x_min":46,"x_max":706,"o":"m 497 301 l 468 301 q 392 298 431 301 q 324 285 354 294 q 275 256 294 275 q 256 207 256 238 q 265 174 256 188 q 288 151 274 160 q 319 140 301 143 q 354 136 338 136 q 460 174 424 136 q 497 278 497 213 l 497 301 m 79 597 q 222 685 140 656 q 388 714 303 714 q 535 692 475 714 q 633 626 596 671 q 688 512 671 581 q 706 349 706 443 l 706 0 l 497 0 l 497 74 l 493 74 q 413 7 467 31 q 297 -17 360 -17 q 211 -6 256 -17 q 130 31 167 6 q 69 97 93 56 q 46 200 46 139 q 87 321 46 275 q 192 392 128 367 q 336 425 257 417 q 490 433 415 433 l 490 444 q 454 520 490 496 q 365 544 418 544 q 272 524 317 544 q 194 474 226 503 l 79 597 z "},"b":{"ha":915,"x_min":92,"x_max":860,"o":"m 860 349 q 838 210 860 276 q 773 92 815 143 q 669 11 731 42 q 531 -19 608 -19 q 399 9 461 -19 q 304 90 338 38 l 301 90 l 301 0 l 92 0 l 92 1050 l 319 1050 l 319 618 l 322 618 q 404 682 351 653 q 533 711 457 711 q 669 682 608 711 q 772 603 729 653 q 837 487 814 553 q 860 349 860 421 m 640 349 q 630 414 640 382 q 599 470 619 446 q 547 510 578 494 q 476 525 517 525 q 407 510 438 525 q 355 469 376 494 q 322 413 333 444 q 310 347 310 381 q 322 282 310 314 q 355 225 333 250 q 407 185 376 200 q 476 169 438 169 q 547 185 517 169 q 599 225 578 200 q 630 283 619 250 q 640 349 640 315 z "},"c":{"ha":699,"x_min":54,"x_max":697,"o":"m 565 468 q 513 508 546 493 q 444 524 479 524 q 379 509 408 524 q 329 470 350 494 q 297 414 308 446 q 285 346 285 382 q 296 278 285 310 q 328 222 307 246 q 380 183 350 197 q 447 169 410 169 q 516 183 482 169 q 571 221 550 196 l 697 67 q 586 1 654 25 q 442 -22 518 -22 q 289 3 360 -22 q 166 76 218 28 q 84 192 114 124 q 54 346 54 260 q 84 499 54 431 q 166 615 114 567 q 289 688 218 663 q 440 714 360 714 q 515 707 478 714 q 585 688 551 700 q 648 659 619 676 q 697 621 676 642 l 565 468 z "},"d":{"ha":914,"x_min":54,"x_max":822,"o":"m 613 0 l 613 90 l 610 90 q 515 9 576 38 q 383 -19 453 -19 q 244 11 306 -19 q 141 92 183 42 q 76 210 99 143 q 54 349 54 276 q 77 487 54 421 q 142 603 100 553 q 245 682 185 653 q 381 711 306 711 q 510 682 457 711 q 592 618 563 653 l 594 618 l 594 1050 l 822 1050 l 822 0 l 613 0 m 604 347 q 592 413 604 381 q 559 469 581 444 q 507 510 538 494 q 438 525 476 525 q 367 510 397 525 q 315 470 336 494 q 284 414 294 446 q 274 349 274 382 q 284 283 274 315 q 315 225 294 250 q 367 185 336 200 q 438 169 397 169 q 507 185 476 169 q 559 225 538 200 q 592 282 581 250 q 604 347 604 314 z "},"e":{"ha":828,"x_min":54,"x_max":775,"o":"m 565 425 q 531 518 565 479 q 429 557 497 557 q 368 547 396 557 q 319 518 340 536 q 286 476 299 500 q 272 425 274 451 l 565 425 m 775 338 q 775 310 775 324 q 774 283 775 296 l 272 283 q 290 231 275 254 q 327 190 304 207 q 378 163 350 172 q 438 153 407 153 q 529 173 492 153 q 590 225 567 193 l 749 125 q 620 16 700 54 q 435 -22 540 -22 q 288 2 357 -22 q 166 73 218 26 q 84 188 114 119 q 54 343 54 256 q 83 497 54 428 q 163 613 113 565 q 281 688 213 661 q 428 714 349 714 q 568 688 504 714 q 678 614 632 663 q 749 496 724 565 q 775 338 775 426 z "},"f":{"ha":506,"x_min":0,"x_max":533,"o":"m 518 882 q 489 889 506 886 q 456 892 472 892 q 404 881 424 892 q 374 851 385 869 q 358 808 363 832 q 354 761 354 785 l 354 692 l 508 692 l 508 521 l 354 521 l 354 0 l 126 0 l 126 521 l 0 521 l 0 692 l 126 692 l 126 758 q 140 880 126 822 q 188 981 154 938 q 280 1051 222 1025 q 424 1076 338 1076 q 481 1073 453 1076 q 533 1063 510 1069 l 518 882 z "},"g":{"ha":914,"x_min":54,"x_max":822,"o":"m 822 65 q 793 -111 822 -36 q 711 -235 764 -186 q 583 -309 658 -285 q 415 -333 507 -333 q 227 -306 324 -333 q 60 -225 131 -278 l 174 -62 q 284 -128 224 -107 q 403 -150 344 -150 q 551 -97 503 -150 q 599 43 599 -44 l 599 85 l 594 85 q 508 18 563 43 q 385 -7 454 -7 q 244 22 306 -7 q 141 99 183 50 q 76 212 99 147 q 54 349 54 276 q 76 486 54 421 q 141 601 99 551 q 244 681 183 651 q 383 711 306 711 q 508 685 449 711 q 604 603 568 658 l 607 603 l 607 692 l 822 692 l 822 65 m 606 350 q 594 417 606 385 q 560 473 582 449 q 507 511 538 497 q 438 525 476 525 q 369 511 399 525 q 318 474 339 497 q 286 418 297 450 q 275 350 275 386 q 286 283 275 315 q 318 227 297 251 q 369 188 339 203 q 438 174 399 174 q 508 188 476 174 q 560 226 539 203 q 594 282 582 250 q 606 350 606 314 z "},"h":{"ha":857,"x_min":92,"x_max":774,"o":"m 544 0 l 544 375 q 540 431 544 404 q 524 477 536 457 q 493 509 513 497 q 443 521 474 521 q 351 478 383 521 q 319 374 319 436 l 319 0 l 92 0 l 92 1050 l 319 1050 l 319 604 l 322 604 q 397 678 346 646 q 521 711 449 711 q 640 686 592 711 q 717 622 688 661 q 760 531 747 582 q 774 428 774 479 l 774 0 l 544 0 z "},"i":{"ha":411,"x_min":75,"x_max":336,"o":"m 336 913 q 326 863 336 886 q 298 824 315 840 q 256 797 281 807 q 206 788 232 788 q 113 824 150 788 q 75 913 75 861 q 85 960 75 938 q 113 1000 94 983 q 154 1027 131 1017 q 206 1038 178 1038 q 256 1028 232 1038 q 298 1001 281 1018 q 326 962 315 985 q 336 913 336 939 m 92 0 l 92 692 l 319 692 l 319 0 l 92 0 z "},"j":{"ha":415,"x_min":-51,"x_max":340,"o":"m 340 913 q 330 863 340 886 q 302 824 319 840 q 260 797 285 807 q 210 788 236 788 q 117 824 154 788 q 79 913 79 861 q 89 960 79 938 q 117 1000 99 983 q 158 1027 135 1017 q 210 1038 182 1038 q 260 1028 236 1038 q 302 1001 285 1018 q 330 962 319 985 q 340 913 340 939 m 324 -18 q 312 -140 324 -82 q 269 -240 300 -197 q 185 -308 239 -283 q 47 -333 131 -333 q -4 -331 24 -333 q -51 -322 -32 -328 l -36 -132 q -10 -137 -24 -136 q 13 -139 3 -139 q 79 -105 63 -139 q 96 -18 96 -71 l 96 692 l 324 692 l 324 -18 z "},"k":{"ha":826,"x_min":90,"x_max":832,"o":"m 832 0 l 550 0 l 324 332 l 319 332 l 319 0 l 90 0 l 90 1050 l 319 1050 l 319 411 l 324 411 l 544 692 l 821 692 l 554 379 l 832 0 z "},"l":{"ha":414,"x_min":92,"x_max":322,"o":"m 92 0 l 92 1050 l 322 1050 l 322 0 l 92 0 z "},"m":{"ha":1283,"x_min":89,"x_max":1200,"o":"m 972 0 l 972 378 q 968 434 972 407 q 953 481 964 461 q 923 512 942 500 q 874 524 904 524 q 823 511 844 524 q 787 478 801 499 q 765 430 772 457 q 758 374 758 403 l 758 0 l 531 0 l 531 394 q 507 489 531 454 q 432 524 483 524 q 348 481 378 524 q 318 375 318 438 l 318 0 l 89 0 l 89 692 l 310 692 l 310 596 l 313 596 q 344 639 325 618 q 389 676 363 660 q 448 701 415 692 q 519 711 481 711 q 647 681 594 711 q 728 593 699 650 q 817 679 763 647 q 949 711 871 711 q 1067 685 1019 711 q 1144 619 1115 660 q 1187 527 1174 578 q 1200 428 1200 476 l 1200 0 l 972 0 z "},"n":{"ha":856,"x_min":89,"x_max":772,"o":"m 543 0 l 543 378 q 538 433 543 407 q 522 480 533 460 q 491 512 511 500 q 440 524 471 524 q 387 512 410 524 q 349 479 364 500 q 326 431 333 458 q 318 375 318 404 l 318 0 l 89 0 l 89 692 l 310 692 l 310 596 l 313 596 q 345 640 325 618 q 392 676 365 661 q 451 701 419 692 q 519 711 483 711 q 638 686 589 711 q 716 622 686 661 q 759 531 746 582 q 772 428 772 479 l 772 0 l 543 0 z "},"o":{"ha":878,"x_min":54,"x_max":822,"o":"m 822 349 q 792 195 822 264 q 708 78 761 126 q 586 4 656 31 q 438 -22 517 -22 q 290 4 360 -22 q 167 78 219 31 q 85 195 115 126 q 54 349 54 264 q 85 501 54 433 q 167 617 115 569 q 290 689 219 664 q 438 714 360 714 q 586 689 517 714 q 708 617 656 664 q 792 501 761 569 q 822 349 822 433 m 603 349 q 592 414 603 382 q 560 470 581 446 q 508 510 539 494 q 438 525 478 525 q 367 510 397 525 q 316 470 336 494 q 285 414 296 446 q 275 349 275 382 q 285 283 275 315 q 317 226 296 251 q 368 185 338 200 q 439 169 399 169 q 510 185 479 169 q 561 226 540 200 q 592 283 582 251 q 603 349 603 315 z "},"p":{"ha":913,"x_min":89,"x_max":858,"o":"m 858 349 q 836 210 858 276 q 772 92 814 143 q 668 11 729 42 q 529 -19 607 -19 q 408 6 465 -19 q 319 76 351 32 l 317 76 l 317 -333 l 89 -333 l 89 692 l 306 692 l 306 607 l 310 607 q 398 680 342 649 q 531 711 454 711 q 667 682 606 711 q 770 603 728 653 q 835 487 813 553 q 858 349 858 421 m 638 349 q 627 414 638 382 q 597 470 617 446 q 546 510 576 494 q 475 525 515 525 q 406 510 436 525 q 353 469 375 494 q 320 413 332 444 q 308 347 308 381 q 320 282 308 314 q 353 225 332 250 q 406 185 375 200 q 475 169 436 169 q 546 185 515 169 q 597 225 576 200 q 627 283 617 250 q 638 349 638 315 z "},"q":{"ha":913,"x_min":54,"x_max":822,"o":"m 596 -333 l 596 76 l 593 76 q 503 6 560 32 q 383 -19 447 -19 q 243 11 304 -19 q 140 92 182 42 q 76 210 99 143 q 54 349 54 276 q 77 487 54 421 q 142 603 100 553 q 245 682 185 653 q 381 711 306 711 q 515 680 458 711 q 603 607 571 649 l 607 607 l 607 692 l 822 692 l 822 -333 l 596 -333 m 604 347 q 592 413 604 381 q 559 469 581 444 q 507 510 538 494 q 438 525 476 525 q 367 510 397 525 q 315 470 336 494 q 284 414 294 446 q 274 349 274 382 q 284 283 274 315 q 315 225 294 250 q 367 185 336 200 q 438 169 397 169 q 507 185 476 169 q 559 225 538 200 q 592 282 581 250 q 604 347 604 314 z "},"r":{"ha":550,"x_min":89,"x_max":547,"o":"m 538 506 q 508 511 522 510 q 479 513 493 513 q 402 496 433 513 q 352 456 371 479 q 325 404 333 432 q 317 356 317 376 l 317 0 l 89 0 l 89 692 l 308 692 l 308 592 l 311 592 q 386 678 338 644 q 499 711 435 711 q 526 710 513 711 q 547 706 539 708 l 538 506 z "},"s":{"ha":656,"x_min":15,"x_max":621,"o":"m 496 488 q 431 532 468 514 q 351 550 393 550 q 292 538 319 550 q 265 494 265 525 q 295 453 265 465 q 392 425 325 440 q 470 401 431 417 q 542 361 510 386 q 593 300 574 336 q 613 214 613 264 q 586 103 613 149 q 517 31 560 58 q 422 -10 475 3 q 317 -22 369 -22 q 151 5 232 -22 q 15 85 69 32 l 143 219 q 218 164 174 186 q 313 142 263 142 q 367 155 340 142 q 394 201 394 168 q 361 249 394 233 q 257 281 328 264 q 185 303 221 289 q 120 340 149 317 q 74 399 92 364 q 56 482 56 433 q 82 588 56 544 q 150 660 108 632 q 242 701 192 688 q 343 714 293 714 q 495 690 421 714 q 621 617 569 665 l 496 488 z "},"t":{"ha":517,"x_min":3,"x_max":499,"o":"m 336 521 l 336 257 q 355 184 336 208 q 422 160 374 160 q 458 163 439 160 q 489 171 476 165 l 492 4 q 432 -10 468 -4 q 360 -17 396 -17 q 243 1 290 -17 q 167 51 196 18 q 126 128 139 83 q 114 229 114 174 l 114 521 l 3 521 l 3 692 l 113 692 l 113 874 l 336 874 l 336 692 l 499 692 l 499 521 l 336 521 z "},"u":{"ha":853,"x_min":82,"x_max":764,"o":"m 544 0 l 544 96 l 542 96 q 509 51 529 72 q 462 15 489 31 q 402 -10 435 0 q 333 -19 369 -19 q 216 6 264 -19 q 138 70 168 31 q 95 160 108 110 q 82 264 82 211 l 82 692 l 311 692 l 311 317 q 315 261 311 288 q 331 214 319 235 q 363 181 343 193 q 414 169 382 169 q 505 214 474 169 q 536 318 536 258 l 536 692 l 764 692 l 764 0 l 544 0 z "},"v":{"ha":788,"x_min":-1,"x_max":789,"o":"m 517 0 l 271 0 l -1 692 l 250 692 l 396 243 l 400 243 l 546 692 l 789 692 l 517 0 z "},"w":{"ha":1210,"x_min":0,"x_max":1210,"o":"m 969 0 l 740 0 l 604 431 l 601 431 l 468 0 l 239 0 l 0 692 l 246 692 l 365 254 l 369 254 l 493 692 l 722 692 l 850 254 l 853 254 l 974 692 l 1210 692 l 969 0 z "},"x":{"ha":825,"x_min":-4,"x_max":829,"o":"m 561 0 l 413 213 l 260 0 l -4 0 l 272 363 l 22 692 l 288 692 l 417 507 l 547 692 l 804 692 l 556 363 l 829 0 l 561 0 z "},"y":{"ha":788,"x_min":-1,"x_max":789,"o":"m 479 -104 q 433 -201 458 -158 q 372 -273 407 -243 q 288 -318 336 -303 q 175 -333 240 -333 q 109 -329 143 -333 q 50 -318 75 -325 l 75 -126 q 112 -135 92 -132 q 149 -139 132 -139 q 225 -115 201 -139 q 265 -46 249 -90 l 288 11 l -1 692 l 251 692 l 406 247 l 410 247 l 547 692 l 789 692 l 479 -104 z "},"z":{"ha":711,"x_min":47,"x_max":664,"o":"m 47 0 l 47 178 l 372 517 l 60 517 l 60 692 l 650 692 l 650 521 l 315 176 l 664 176 l 664 0 l 47 0 z "},"{":{"ha":475,"x_min":8,"x_max":406,"o":"m 292 -217 q 153 -161 204 -217 q 101 -11 101 -106 l 101 221 q 93 273 101 253 q 72 304 85 293 q 42 319 58 315 q 8 324 25 324 l 8 476 q 42 481 25 476 q 72 495 58 485 q 93 525 85 506 q 101 574 101 544 l 101 811 q 153 961 101 906 q 292 1017 204 1017 l 406 1017 l 406 871 l 340 871 q 288 844 300 871 q 276 788 276 818 l 276 556 q 263 487 276 515 q 228 440 249 458 q 186 413 208 422 q 147 401 164 403 l 147 399 q 186 389 164 397 q 228 363 208 381 q 263 315 249 344 q 276 239 276 285 l 276 13 q 288 -44 276 -18 q 340 -71 300 -71 l 406 -71 l 406 -217 l 292 -217 z "},"|":{"ha":335,"x_min":76,"x_max":258,"o":"m 78 -347 l 76 1042 l 258 1042 l 258 -347 l 78 -347 z "},"}":{"ha":475,"x_min":69,"x_max":467,"o":"m 467 324 q 433 319 450 324 q 403 304 417 315 q 382 273 390 293 q 374 221 374 253 l 374 -11 q 322 -161 374 -106 q 183 -217 271 -217 l 69 -217 l 69 -71 l 135 -71 q 187 -44 175 -71 q 199 13 199 -18 l 199 239 q 213 315 199 285 q 247 363 226 344 q 289 389 267 381 q 328 399 311 397 l 328 401 q 289 413 311 403 q 247 440 267 422 q 213 487 226 458 q 199 556 199 515 l 199 788 q 187 844 199 818 q 135 871 175 871 l 69 871 l 69 1017 l 183 1017 q 322 961 271 1017 q 374 811 374 906 l 374 574 q 382 525 374 544 q 403 495 390 506 q 433 481 417 485 q 467 476 450 476 l 467 324 l 467 324 z "},"~":{"ha":925,"x_min":118,"x_max":824,"o":"m 824 396 q 790 344 808 369 q 748 300 771 319 q 696 269 725 281 q 631 257 667 257 q 552 269 586 257 q 475 310 518 282 q 399 349 433 336 q 326 363 365 363 q 258 335 286 363 q 210 265 231 308 l 118 410 q 197 510 150 472 q 308 547 243 547 q 393 534 353 547 q 475 496 433 521 q 556 454 522 468 q 613 440 589 440 q 680 471 651 440 q 733 539 708 501 l 824 399 l 824 396 z "}," ":{"ha":347,"x_min":0,"x_max":0,"o":""},"¡":{"ha":496,"x_min":113,"x_max":383,"o":"m 383 588 q 373 536 383 560 q 344 495 363 513 q 300 467 325 478 q 247 457 275 457 q 194 467 219 457 q 151 496 169 478 q 123 538 133 514 q 113 589 113 561 q 124 640 113 617 q 153 682 135 664 q 195 710 171 700 q 247 719 219 719 q 300 709 275 719 q 344 681 325 699 q 373 640 363 664 q 383 588 383 615 m 131 -278 l 131 376 l 364 376 l 364 -278 l 131 -278 z "},"¢":{"ha":897,"x_min":113,"x_max":764,"o":"m 764 71 q 664 8 724 31 q 542 -19 604 -14 l 542 -110 l 436 -110 l 436 -19 q 303 19 363 -11 q 201 98 243 50 q 135 210 158 146 q 113 347 113 274 q 135 484 113 422 q 201 593 158 546 q 303 670 244 640 q 436 711 363 700 l 436 800 l 542 800 l 542 711 q 665 685 606 707 q 763 624 724 664 l 647 479 q 542 533 604 525 l 542 158 q 602 176 574 161 q 651 213 631 190 l 764 71 m 436 531 q 341 465 374 515 q 308 346 308 414 q 342 228 308 279 q 436 161 375 178 l 436 531 z "},"£":{"ha":897,"x_min":100,"x_max":868,"o":"m 735 761 q 678 799 713 785 q 607 814 644 814 q 535 799 564 814 q 490 759 507 783 q 467 706 474 735 q 461 649 461 676 l 461 578 l 678 578 l 678 418 l 461 418 l 461 196 l 821 196 l 821 0 l 100 0 l 100 196 l 232 196 l 232 418 l 100 418 l 100 578 l 232 578 l 232 663 q 252 781 232 719 q 315 893 272 842 q 427 977 358 944 q 593 1010 496 1010 q 752 983 683 1010 q 868 914 821 957 l 735 761 z "},"¤":{"ha":897,"x_min":40,"x_max":857,"o":"m 744 582 q 781 498 769 542 q 792 404 792 454 q 778 307 792 358 q 742 219 765 256 l 856 107 l 743 -10 l 626 107 q 450 61 554 61 q 359 74 407 61 q 274 110 311 88 l 156 -10 l 40 106 l 160 224 q 124 310 136 261 q 111 404 111 358 q 122 499 111 454 q 156 581 132 543 l 42 693 l 156 806 l 269 693 q 356 731 310 717 q 450 744 401 744 q 545 731 497 744 q 631 696 593 718 l 740 806 l 857 693 l 744 582 m 450 576 q 382 563 413 576 q 330 526 351 549 q 297 471 308 503 q 286 404 286 439 q 297 337 286 368 q 330 282 308 306 q 382 244 351 258 q 450 231 413 231 q 519 244 489 231 q 572 282 550 258 q 604 337 593 306 q 615 404 615 368 q 604 471 615 439 q 572 526 593 503 q 519 563 550 549 q 450 576 489 576 z "},"¥":{"ha":897,"x_min":17,"x_max":885,"o":"m 636 578 l 808 578 l 808 435 l 560 435 l 560 344 l 808 344 l 808 201 l 560 201 l 560 0 l 340 0 l 340 201 l 93 201 l 93 344 l 340 344 l 340 435 l 93 435 l 93 578 l 269 578 l 17 983 l 274 983 l 457 622 l 636 983 l 885 983 l 636 578 z "},"¦":{"ha":335,"x_min":76,"x_max":258,"o":"m 76 435 l 76 938 l 258 938 l 258 435 l 76 435 m 76 -243 l 76 260 l 258 260 l 258 -243 l 76 -243 z "},"§":{"ha":843,"x_min":56,"x_max":781,"o":"m 781 388 q 752 286 781 332 q 676 214 724 240 q 730 147 714 188 q 746 61 746 107 q 715 -62 746 -11 q 634 -144 683 -112 q 525 -191 585 -176 q 407 -206 465 -206 q 306 -195 357 -206 q 209 -163 256 -185 q 123 -110 163 -142 q 56 -37 83 -79 l 225 83 q 310 6 257 31 q 411 -18 364 -18 q 446 -14 428 -18 q 478 -1 464 -10 q 503 22 493 8 q 513 53 513 35 q 502 92 513 75 q 469 122 492 108 q 413 148 447 135 q 331 178 378 161 q 235 215 279 196 q 157 262 190 235 q 105 326 124 289 q 86 414 86 363 q 122 531 86 485 q 206 606 157 578 q 132 763 132 660 q 162 873 132 826 q 238 950 192 919 q 342 994 285 981 q 451 1008 399 1008 q 637 972 554 1008 q 768 865 719 936 l 607 743 q 542 804 582 782 q 461 826 501 826 q 426 822 444 826 q 394 810 408 818 q 372 789 381 801 q 363 758 363 776 q 403 697 363 721 q 525 644 444 672 q 623 603 576 625 q 705 551 669 581 q 760 481 740 521 q 781 388 781 442 m 575 365 q 542 430 575 407 q 467 471 508 453 l 347 519 q 307 492 324 510 q 290 446 290 475 q 299 410 290 425 q 324 383 308 394 q 360 363 340 371 q 401 346 381 354 l 532 294 q 564 324 553 304 q 575 365 575 343 z "},"¨":{"ha":417,"x_min":-58,"x_max":475,"o":"m 475 914 q 441 833 475 865 q 360 800 407 800 q 278 833 311 800 q 244 914 244 867 q 253 956 244 936 q 278 992 263 976 q 314 1017 293 1008 q 360 1026 335 1026 q 441 994 407 1026 q 475 914 475 961 m 174 914 q 140 833 174 865 q 57 800 106 800 q -25 833 8 800 q -58 914 -58 867 q -49 956 -58 936 q -25 992 -40 976 q 12 1017 -10 1008 q 57 1026 33 1026 q 140 994 106 1026 q 174 914 174 961 z "},"©":{"ha":1111,"x_min":28,"x_max":1083,"o":"m 1083 490 q 1042 287 1083 382 q 928 121 1000 192 q 761 10 857 50 q 557 -31 665 -31 q 351 10 447 -31 q 183 121 254 50 q 69 287 111 192 q 28 490 28 382 q 69 695 28 600 q 183 861 111 790 q 351 973 254 932 q 557 1014 447 1014 q 761 973 665 1014 q 928 861 857 932 q 1042 695 1000 790 q 1083 490 1083 600 m 1000 490 q 965 663 1000 582 q 870 805 931 744 q 729 901 810 865 q 557 936 649 936 q 384 901 465 936 q 242 805 303 865 q 147 663 182 744 q 111 490 111 582 q 146 318 111 399 q 240 177 181 238 q 381 82 300 117 q 554 47 463 47 q 727 82 646 47 q 869 177 808 117 q 965 318 929 238 q 1000 490 1000 399 m 706 611 q 652 651 686 636 q 581 665 618 665 q 513 651 542 665 q 463 611 483 636 q 433 555 443 586 q 422 490 422 524 q 433 425 422 457 q 464 368 443 393 q 516 328 485 343 q 589 313 547 313 q 658 326 625 313 q 711 363 690 339 l 811 257 q 711 192 771 215 q 582 169 651 169 q 454 191 514 169 q 349 253 394 213 q 278 353 304 293 q 253 489 253 413 q 279 622 253 563 q 350 722 306 681 q 455 785 394 763 q 582 807 515 807 q 713 781 651 807 q 813 708 775 756 l 706 611 z "},"ª":{"ha":533,"x_min":63,"x_max":457,"o":"m 328 636 l 326 636 q 279 601 311 613 q 210 589 247 589 q 157 596 183 589 q 110 617 131 603 q 76 656 89 632 q 63 711 63 679 q 87 783 63 757 q 149 824 111 810 q 232 843 186 839 q 321 847 278 847 l 321 853 q 301 890 321 878 q 251 901 282 901 q 199 890 224 901 q 157 863 174 879 q 119 901 138 882 q 82 939 101 919 q 165 988 117 971 q 264 1004 214 1004 q 358 990 321 1004 q 417 951 396 975 q 448 894 439 926 q 457 826 457 863 l 457 599 l 328 599 l 328 636 m 325 768 l 308 768 q 269 766 289 768 q 234 759 250 764 q 208 744 218 754 q 197 719 197 735 q 214 691 197 700 q 249 682 231 682 q 305 701 285 682 q 325 751 325 721 l 325 768 z "},"«":{"ha":754,"x_min":35,"x_max":707,"o":"m 572 31 l 349 353 l 572 675 l 707 588 l 547 353 l 707 118 l 572 31 m 258 31 l 35 353 l 258 675 l 393 588 l 233 353 l 394 118 l 258 31 z "},"¬":{"ha":925,"x_min":71,"x_max":842,"o":"m 661 201 l 661 456 l 71 456 l 71 626 l 842 626 l 842 201 l 661 201 z "},"­":{"ha":453,"x_min":50,"x_max":403,"o":"m 50 274 l 50 454 l 403 454 l 403 274 l 50 274 z "},"®":{"ha":833,"x_min":100,"x_max":733,"o":"m 424 724 q 451 733 440 724 q 463 756 463 742 q 451 774 463 767 q 424 781 439 781 l 388 781 l 388 724 l 424 724 m 471 507 l 410 638 l 388 638 l 388 507 l 265 507 l 265 876 l 424 876 q 483 871 453 876 q 538 851 514 865 q 576 815 561 838 q 592 757 592 792 q 525 654 592 681 l 610 507 l 471 507 m 100 683 q 125 806 100 749 q 193 906 150 864 q 294 974 236 949 q 418 999 353 999 q 541 974 483 999 q 641 906 599 949 q 708 806 683 864 q 733 683 733 749 q 708 561 733 618 q 641 462 683 504 q 541 395 599 419 q 418 371 483 371 q 294 395 353 371 q 193 462 236 419 q 125 561 150 504 q 100 683 100 618 m 150 683 q 171 581 150 629 q 228 495 192 532 q 314 438 265 458 q 418 417 363 417 q 522 438 474 417 q 606 495 569 458 q 663 581 642 532 q 683 683 683 629 q 663 788 683 739 q 606 872 642 836 q 522 929 569 908 q 418 950 474 950 q 314 929 363 950 q 228 872 265 908 q 171 788 192 836 q 150 683 150 739 z "},"¯":{"ha":417,"x_min":-25,"x_max":442,"o":"m -25 835 l -25 954 l 442 954 l 442 835 l -25 835 z "},"°":{"ha":578,"x_min":56,"x_max":522,"o":"m 522 775 q 504 683 522 726 q 455 609 486 640 q 381 560 424 578 q 289 542 338 542 q 197 560 240 542 q 123 609 154 578 q 74 683 92 640 q 56 775 56 726 q 74 866 56 824 q 123 940 92 908 q 197 989 154 971 q 289 1007 240 1007 q 381 989 338 1007 q 455 940 424 971 q 504 866 486 908 q 522 775 522 824 m 411 775 q 376 861 411 825 q 289 897 340 897 q 202 861 238 897 q 167 775 167 825 q 202 688 167 724 q 289 653 238 653 q 376 688 340 653 q 411 775 411 724 z "},"±":{"ha":925,"x_min":85,"x_max":856,"o":"m 561 460 l 561 276 l 381 276 l 381 460 l 85 460 l 85 636 l 381 636 l 381 819 l 561 819 l 561 636 l 856 636 l 856 460 l 561 460 m 85 43 l 85 219 l 856 219 l 856 43 l 85 43 z "},"²":{"ha":583,"x_min":63,"x_max":519,"o":"m 76 382 l 76 510 l 313 725 q 342 760 331 742 q 353 803 353 779 q 336 844 353 828 q 290 860 319 860 q 238 836 258 860 q 215 775 218 813 l 63 793 q 88 880 68 842 q 140 944 108 918 q 213 985 172 971 q 297 999 253 999 q 379 988 339 999 q 451 953 419 976 q 501 896 482 931 q 519 813 519 861 q 510 753 519 779 q 487 705 501 726 q 453 664 472 683 q 414 626 435 644 l 293 519 l 519 519 l 519 382 l 76 382 z "},"³":{"ha":583,"x_min":54,"x_max":526,"o":"m 526 561 q 506 475 526 511 q 453 416 486 439 q 381 382 421 393 q 299 371 340 371 q 219 381 257 371 q 148 410 181 390 q 91 463 115 431 q 54 540 67 494 l 200 579 q 231 527 210 549 q 289 506 253 506 q 342 519 317 506 q 367 569 367 533 q 358 603 367 590 q 333 622 349 615 q 299 632 318 629 q 258 635 279 635 l 213 635 l 213 751 l 263 751 q 326 765 300 751 q 353 815 353 779 q 335 853 353 839 q 289 868 317 868 q 244 850 264 868 q 218 801 225 832 l 72 836 q 106 907 83 876 q 160 958 129 938 q 226 990 190 979 q 300 1000 263 1000 q 380 990 342 1000 q 447 960 418 981 q 494 907 476 939 q 513 832 513 875 q 491 751 513 785 q 433 700 469 718 q 502 647 478 685 q 526 561 526 610 z "},"´":{"ha":417,"x_min":96,"x_max":471,"o":"m 268 794 l 96 794 l 240 994 l 471 994 l 268 794 z "},"µ":{"ha":925,"x_min":124,"x_max":807,"o":"m 349 692 l 349 347 q 352 294 349 324 q 367 238 356 264 q 400 193 379 211 q 456 175 421 175 q 515 188 490 175 q 553 221 539 200 q 575 269 568 242 q 582 329 582 297 l 582 692 l 807 692 l 807 0 l 592 0 l 592 79 l 590 79 q 534 17 569 43 q 436 -10 499 -10 q 388 -3 411 -10 q 349 18 364 4 l 349 -314 l 124 -314 l 124 692 l 349 692 z "},"¶":{"ha":858,"x_min":33,"x_max":771,"o":"m 610 -179 l 610 844 l 492 844 l 492 -179 l 331 -179 l 331 465 q 208 485 263 467 q 114 538 153 504 q 54 617 75 571 q 33 719 33 663 q 60 845 33 794 q 132 926 86 896 q 240 970 178 957 q 372 983 301 983 l 771 983 l 771 -179 l 610 -179 z "},"·":{"ha":417,"x_min":68,"x_max":349,"o":"m 349 404 q 308 307 349 346 q 210 268 267 268 q 155 278 181 268 q 110 307 129 289 q 79 349 90 325 q 68 403 68 374 q 79 456 68 431 q 110 499 90 481 q 155 529 129 518 q 210 540 181 540 q 308 501 267 540 q 349 404 349 463 z "},"¸":{"ha":417,"x_min":24,"x_max":393,"o":"m 393 -197 q 374 -264 393 -237 q 324 -306 354 -290 q 258 -327 293 -321 q 189 -333 222 -333 q 101 -324 146 -333 q 24 -299 56 -314 l 61 -215 q 119 -235 88 -228 q 178 -242 150 -242 q 224 -233 200 -242 q 247 -196 247 -224 q 225 -163 247 -171 q 182 -156 203 -156 q 154 -158 169 -156 q 126 -164 139 -160 l 83 -124 l 176 0 l 290 0 l 225 -83 q 238 -82 232 -82 q 250 -82 243 -82 q 301 -87 275 -82 q 347 -104 326 -92 q 380 -140 367 -117 q 393 -197 393 -162 z "},"¹":{"ha":583,"x_min":64,"x_max":413,"o":"m 250 378 l 250 803 l 147 722 l 64 835 l 265 983 l 413 983 l 413 378 l 250 378 z "},"º":{"ha":533,"x_min":51,"x_max":483,"o":"m 483 799 q 467 713 483 751 q 421 647 450 674 q 352 604 392 619 q 267 589 313 589 q 183 604 222 589 q 114 647 143 619 q 68 713 85 674 q 51 799 51 751 q 68 884 51 846 q 114 949 85 922 q 183 991 143 976 q 267 1006 222 1006 q 352 991 313 1006 q 421 949 392 976 q 467 884 450 922 q 483 799 483 846 m 351 799 q 329 860 351 833 q 267 886 307 886 q 206 860 226 886 q 185 799 185 833 q 206 736 185 763 q 267 710 226 710 q 329 736 307 710 q 351 799 351 763 z "},"»":{"ha":754,"x_min":47,"x_max":721,"o":"m 496 31 l 361 118 l 521 351 l 361 588 l 496 675 l 721 351 l 496 31 m 183 31 l 49 118 l 208 351 l 47 588 l 183 675 l 407 351 l 183 31 z "},"¼":{"ha":1306,"x_min":64,"x_max":1225,"o":"m 1144 115 l 1144 0 l 997 0 l 997 115 l 719 115 l 719 244 l 963 606 l 1144 606 l 1144 246 l 1225 246 l 1225 115 l 1144 115 m 997 432 l 996 432 l 874 246 l 997 246 l 997 432 m 435 -42 l 314 13 l 847 1026 l 974 971 l 435 -42 m 250 378 l 250 803 l 147 722 l 64 835 l 265 983 l 413 983 l 413 378 l 250 378 z "},"½":{"ha":1306,"x_min":64,"x_max":1242,"o":"m 799 0 l 799 128 l 1035 344 q 1064 378 1053 360 q 1075 421 1075 397 q 1058 462 1075 446 q 1014 478 1042 478 q 961 455 982 478 q 938 393 940 432 l 785 413 q 810 499 790 461 q 863 564 831 538 q 935 604 894 590 q 1019 618 975 618 q 1101 607 1061 618 q 1173 573 1142 596 q 1223 515 1204 550 q 1242 431 1242 479 q 1233 372 1242 399 q 1209 324 1224 346 q 1176 282 1194 301 q 1136 244 1157 263 l 1015 139 l 1242 139 l 1242 0 l 799 0 m 435 -42 l 314 13 l 847 1026 l 974 971 l 435 -42 m 250 378 l 250 803 l 147 722 l 64 835 l 265 983 l 413 983 l 413 378 l 250 378 z "},"¾":{"ha":1306,"x_min":54,"x_max":1225,"o":"m 1144 115 l 1144 0 l 997 0 l 997 115 l 719 115 l 719 244 l 963 606 l 1144 606 l 1144 246 l 1225 246 l 1225 115 l 1144 115 m 997 432 l 996 432 l 874 246 l 997 246 l 997 432 m 435 -42 l 314 13 l 847 1026 l 974 971 l 435 -42 m 526 561 q 506 475 526 511 q 453 416 486 439 q 381 382 421 393 q 299 371 340 371 q 219 381 257 371 q 148 410 181 390 q 91 463 115 431 q 54 540 67 494 l 200 579 q 231 527 210 549 q 289 506 253 506 q 342 519 317 506 q 367 569 367 533 q 358 603 367 590 q 333 622 349 615 q 299 632 318 629 q 258 635 279 635 l 213 635 l 213 751 l 263 751 q 326 765 300 751 q 353 815 353 779 q 335 853 353 839 q 289 868 317 868 q 244 850 264 868 q 218 801 225 832 l 72 836 q 106 907 83 876 q 160 958 129 938 q 226 990 190 979 q 300 1000 263 1000 q 380 990 342 1000 q 447 960 418 981 q 494 907 476 939 q 513 832 513 875 q 491 751 513 785 q 433 700 469 718 q 502 647 478 685 q 526 561 526 610 z "},"¿":{"ha":758,"x_min":26,"x_max":704,"o":"m 501 589 q 491 538 501 561 q 462 496 481 514 q 418 467 443 478 q 365 457 393 457 q 313 467 338 457 q 270 495 289 478 q 240 536 251 513 q 229 588 229 560 q 240 640 229 615 q 269 681 250 664 q 313 709 288 699 q 365 719 338 719 q 417 710 393 719 q 460 682 442 700 q 490 640 479 664 q 501 589 501 617 m 704 -3 q 665 -134 696 -78 q 588 -228 635 -190 q 481 -284 540 -265 q 354 -303 421 -303 q 234 -287 293 -303 q 129 -237 175 -271 q 55 -151 83 -203 q 26 -26 26 -99 q 38 55 26 19 q 69 119 49 90 q 118 174 89 149 q 183 228 147 200 q 220 259 206 244 q 243 288 235 274 q 255 318 251 301 q 258 356 258 335 l 258 392 l 475 392 l 475 340 q 468 276 475 304 q 447 224 461 247 q 413 178 433 200 q 365 131 392 156 l 318 89 q 278 44 294 67 q 261 -10 261 22 q 289 -81 261 -54 q 364 -108 317 -108 q 451 -69 421 -108 q 482 22 481 -29 l 704 -3 z "},"À":{"ha":1013,"x_min":-19,"x_max":1032,"o":"m 768 0 l 692 193 l 311 193 l 239 0 l -19 0 l 393 983 l 624 983 l 1032 0 l 768 0 m 504 721 l 379 383 l 626 383 l 504 721 m 438 1061 l 235 1261 l 465 1261 l 610 1061 l 438 1061 z "},"Á":{"ha":1013,"x_min":-19,"x_max":1032,"o":"m 768 0 l 692 193 l 311 193 l 239 0 l -19 0 l 393 983 l 624 983 l 1032 0 l 768 0 m 504 721 l 379 383 l 626 383 l 504 721 m 581 1061 l 408 1061 l 553 1261 l 783 1261 l 581 1061 z "},"Â":{"ha":1013,"x_min":-19,"x_max":1032,"o":"m 768 0 l 692 193 l 311 193 l 239 0 l -19 0 l 393 983 l 624 983 l 1032 0 l 768 0 m 504 721 l 379 383 l 626 383 l 504 721 m 603 1061 l 508 1174 l 414 1061 l 236 1061 l 408 1261 l 614 1261 l 783 1061 l 603 1061 z "},"Ã":{"ha":1013,"x_min":-19,"x_max":1032,"o":"m 768 0 l 692 193 l 311 193 l 239 0 l -19 0 l 393 983 l 624 983 l 1032 0 l 768 0 m 504 721 l 379 383 l 626 383 l 504 721 m 765 1250 q 750 1181 761 1214 q 720 1122 739 1147 q 674 1082 701 1097 q 608 1067 646 1067 q 551 1075 579 1067 q 496 1096 524 1083 q 448 1117 468 1111 q 408 1124 428 1124 q 370 1107 383 1124 q 350 1068 357 1090 l 250 1068 q 265 1137 254 1104 q 295 1194 276 1169 q 342 1234 314 1219 q 407 1249 369 1249 q 463 1241 436 1249 q 518 1221 490 1233 q 568 1200 547 1207 q 608 1193 589 1193 q 647 1209 635 1193 q 667 1250 660 1225 l 765 1250 z "},"Ä":{"ha":1013,"x_min":-19,"x_max":1032,"o":"m 768 0 l 692 193 l 311 193 l 239 0 l -19 0 l 393 983 l 624 983 l 1032 0 l 768 0 m 504 721 l 379 383 l 626 383 l 504 721 m 775 1181 q 741 1099 775 1132 q 660 1067 707 1067 q 578 1100 611 1067 q 544 1181 544 1133 q 553 1223 544 1203 q 578 1259 563 1243 q 614 1284 593 1275 q 660 1293 635 1293 q 741 1260 707 1293 q 775 1181 775 1228 m 474 1181 q 440 1099 474 1132 q 357 1067 406 1067 q 275 1100 308 1067 q 242 1181 242 1133 q 251 1223 242 1203 q 275 1259 260 1243 q 312 1284 290 1275 q 357 1293 333 1293 q 440 1260 406 1293 q 474 1181 474 1228 z "},"Å":{"ha":1013,"x_min":-19,"x_max":1032,"o":"m 768 0 l 692 193 l 311 193 l 239 0 l -19 0 l 393 983 l 624 983 l 1032 0 l 768 0 m 504 721 l 379 383 l 626 383 l 504 721 m 661 1189 q 649 1129 661 1157 q 617 1082 638 1101 q 568 1051 596 1063 q 510 1040 540 1040 q 451 1051 478 1040 q 403 1082 424 1063 q 370 1128 382 1101 q 358 1188 358 1156 q 402 1295 358 1253 q 510 1338 446 1338 q 568 1326 540 1338 q 617 1295 596 1315 q 649 1248 638 1275 q 661 1189 661 1221 m 592 1189 q 568 1247 592 1224 q 510 1269 544 1269 q 451 1246 474 1269 q 428 1188 428 1222 q 451 1131 428 1154 q 510 1108 475 1108 q 568 1131 544 1108 q 592 1189 592 1154 z "},"Æ":{"ha":1435,"x_min":-6,"x_max":1379,"o":"m 714 0 l 714 213 l 393 213 l 271 0 l -6 0 l 569 983 l 1354 983 l 1354 782 l 940 782 l 940 597 l 1331 597 l 1331 407 l 940 407 l 940 203 l 1379 203 l 1379 0 l 714 0 m 714 782 l 700 782 l 488 404 l 714 404 l 714 782 z "},"Ç":{"ha":967,"x_min":56,"x_max":967,"o":"m 738 -197 q 718 -264 738 -237 q 668 -306 699 -290 q 602 -327 638 -321 q 533 -333 567 -333 q 445 -324 490 -333 q 368 -299 400 -314 l 406 -215 q 463 -235 432 -228 q 522 -242 494 -242 q 568 -233 544 -242 q 592 -196 592 -224 q 569 -163 592 -171 q 526 -156 547 -156 q 499 -158 514 -156 q 471 -164 483 -160 l 428 -124 l 504 -21 q 324 34 406 -8 q 182 143 242 76 q 89 299 122 210 q 56 493 56 388 q 97 707 56 611 q 210 870 138 803 q 379 974 282 938 q 589 1010 476 1010 q 794 973 693 1010 q 957 865 894 936 l 796 704 q 708 772 763 750 q 597 794 654 794 q 483 772 535 794 q 393 708 431 749 q 335 613 356 668 q 314 493 314 558 q 335 371 314 426 q 392 276 356 315 q 481 214 429 236 q 593 192 532 192 q 717 219 664 192 q 801 292 769 247 l 967 136 q 817 23 906 65 q 614 -25 728 -19 l 569 -83 q 582 -82 576 -82 q 594 -82 588 -82 q 645 -87 619 -82 q 691 -104 671 -92 q 724 -140 711 -117 q 738 -197 738 -162 z "},"È":{"ha":843,"x_min":101,"x_max":788,"o":"m 101 0 l 101 983 l 763 983 l 763 782 l 331 782 l 331 597 l 739 597 l 739 407 l 331 407 l 331 203 l 788 203 l 788 0 l 101 0 m 392 1061 l 189 1261 l 419 1261 l 564 1061 l 392 1061 z "},"É":{"ha":843,"x_min":101,"x_max":788,"o":"m 101 0 l 101 983 l 763 983 l 763 782 l 331 782 l 331 597 l 739 597 l 739 407 l 331 407 l 331 203 l 788 203 l 788 0 l 101 0 m 496 1061 l 324 1061 l 468 1261 l 699 1261 l 496 1061 z "},"Ê":{"ha":843,"x_min":101,"x_max":788,"o":"m 101 0 l 101 983 l 763 983 l 763 782 l 331 782 l 331 597 l 739 597 l 739 407 l 331 407 l 331 203 l 788 203 l 788 0 l 101 0 m 531 1061 l 436 1174 l 342 1061 l 164 1061 l 336 1261 l 542 1261 l 711 1061 l 531 1061 z "},"Ë":{"ha":843,"x_min":101,"x_max":788,"o":"m 101 0 l 101 983 l 763 983 l 763 782 l 331 782 l 331 597 l 739 597 l 739 407 l 331 407 l 331 203 l 788 203 l 788 0 l 101 0 m 704 1181 q 670 1099 704 1132 q 589 1067 636 1067 q 507 1100 540 1067 q 474 1181 474 1133 q 483 1223 474 1203 q 507 1259 492 1243 q 543 1284 522 1275 q 589 1293 564 1293 q 670 1260 636 1293 q 704 1181 704 1228 m 403 1181 q 369 1099 403 1132 q 286 1067 335 1067 q 204 1100 238 1067 q 171 1181 171 1133 q 180 1223 171 1203 q 204 1259 189 1243 q 241 1284 219 1275 q 286 1293 263 1293 q 369 1260 335 1293 q 403 1181 403 1228 z "},"Ì":{"ha":442,"x_min":-35,"x_max":340,"o":"m 101 0 l 101 983 l 340 983 l 340 0 l 101 0 m 168 1061 l -35 1261 l 196 1261 l 340 1061 l 168 1061 z "},"Í":{"ha":442,"x_min":101,"x_max":476,"o":"m 101 0 l 101 983 l 340 983 l 340 0 l 101 0 m 274 1061 l 101 1061 l 246 1261 l 476 1261 l 274 1061 z "},"Î":{"ha":442,"x_min":-54,"x_max":493,"o":"m 101 0 l 101 983 l 340 983 l 340 0 l 101 0 m 313 1061 l 218 1174 l 124 1061 l -54 1061 l 118 1261 l 324 1261 l 493 1061 l 313 1061 z "},"Ï":{"ha":442,"x_min":-46,"x_max":488,"o":"m 101 0 l 101 983 l 340 983 l 340 0 l 101 0 m 488 1181 q 453 1099 488 1132 q 372 1067 419 1067 q 290 1100 324 1067 q 257 1181 257 1133 q 266 1223 257 1203 q 290 1259 275 1243 q 326 1284 306 1275 q 372 1293 347 1293 q 453 1260 419 1293 q 488 1181 488 1228 m 186 1181 q 152 1099 186 1132 q 69 1067 118 1067 q -12 1100 21 1067 q -46 1181 -46 1133 q -37 1223 -46 1203 q -12 1259 -28 1243 q 24 1284 3 1275 q 69 1293 46 1293 q 152 1260 118 1293 q 186 1181 186 1228 z "},"Ð":{"ha":1075,"x_min":18,"x_max":1017,"o":"m 1017 494 q 969 274 1017 367 q 846 119 922 181 q 674 29 769 58 q 481 0 578 0 l 103 0 l 103 429 l 18 429 l 18 578 l 103 578 l 103 983 l 482 983 q 683 956 586 983 q 854 870 781 929 q 972 718 928 811 q 1017 494 1017 625 m 774 494 q 751 620 774 567 q 686 708 728 674 q 587 760 644 743 q 460 776 529 776 l 335 776 l 335 578 l 586 578 l 586 429 l 335 429 l 335 208 l 438 208 q 572 224 510 208 q 678 275 633 240 q 748 364 722 310 q 774 494 774 418 z "},"Ñ":{"ha":1097,"x_min":101,"x_max":996,"o":"m 726 0 l 331 643 l 326 643 l 332 0 l 101 0 l 101 983 l 372 983 l 767 342 l 771 342 l 765 983 l 996 983 l 996 0 l 726 0 m 811 1250 q 796 1181 807 1214 q 766 1122 785 1147 q 719 1082 747 1097 q 654 1067 692 1067 q 597 1075 625 1067 q 542 1096 569 1083 q 494 1117 514 1111 q 454 1124 474 1124 q 416 1107 429 1124 q 396 1068 403 1090 l 296 1068 q 311 1137 300 1104 q 341 1194 322 1169 q 388 1234 360 1219 q 453 1249 415 1249 q 509 1241 482 1249 q 564 1221 536 1233 q 614 1200 593 1207 q 654 1193 635 1193 q 693 1209 681 1193 q 713 1250 706 1225 l 811 1250 z "},"Ò":{"ha":1182,"x_min":56,"x_max":1126,"o":"m 1126 496 q 1086 283 1126 379 q 974 117 1046 186 q 804 11 903 49 q 590 -26 706 -26 q 377 11 475 -26 q 208 117 279 49 q 96 283 136 186 q 56 496 56 379 q 96 709 56 614 q 208 871 136 804 q 377 974 279 938 q 590 1010 475 1010 q 804 974 706 1010 q 974 871 903 938 q 1086 709 1046 804 q 1126 496 1126 614 m 872 496 q 851 615 872 560 q 794 710 831 671 q 705 773 757 750 q 590 796 653 796 q 476 773 528 796 q 388 710 425 750 q 330 615 350 671 q 310 496 310 560 q 331 373 310 429 q 388 276 351 317 q 476 213 425 236 q 590 190 528 190 q 704 213 653 190 q 793 276 756 236 q 851 373 831 317 q 872 496 872 429 m 560 1061 l 357 1261 l 588 1261 l 732 1061 l 560 1061 z "},"Ó":{"ha":1182,"x_min":56,"x_max":1126,"o":"m 1126 496 q 1086 283 1126 379 q 974 117 1046 186 q 804 11 903 49 q 590 -26 706 -26 q 377 11 475 -26 q 208 117 279 49 q 96 283 136 186 q 56 496 56 379 q 96 709 56 614 q 208 871 136 804 q 377 974 279 938 q 590 1010 475 1010 q 804 974 706 1010 q 974 871 903 938 q 1086 709 1046 804 q 1126 496 1126 614 m 872 496 q 851 615 872 560 q 794 710 831 671 q 705 773 757 750 q 590 796 653 796 q 476 773 528 796 q 388 710 425 750 q 330 615 350 671 q 310 496 310 560 q 331 373 310 429 q 388 276 351 317 q 476 213 425 236 q 590 190 528 190 q 704 213 653 190 q 793 276 756 236 q 851 373 831 317 q 872 496 872 429 m 638 1061 l 465 1061 l 610 1261 l 840 1261 l 638 1061 z "},"Ô":{"ha":1182,"x_min":56,"x_max":1126,"o":"m 1126 496 q 1086 283 1126 379 q 974 117 1046 186 q 804 11 903 49 q 590 -26 706 -26 q 377 11 475 -26 q 208 117 279 49 q 96 283 136 186 q 56 496 56 379 q 96 709 56 614 q 208 871 136 804 q 377 974 279 938 q 590 1010 475 1010 q 804 974 706 1010 q 974 871 903 938 q 1086 709 1046 804 q 1126 496 1126 614 m 872 496 q 851 615 872 560 q 794 710 831 671 q 705 773 757 750 q 590 796 653 796 q 476 773 528 796 q 388 710 425 750 q 330 615 350 671 q 310 496 310 560 q 331 373 310 429 q 388 276 351 317 q 476 213 425 236 q 590 190 528 190 q 704 213 653 190 q 793 276 756 236 q 851 373 831 317 q 872 496 872 429 m 685 1061 l 590 1174 l 496 1061 l 318 1061 l 490 1261 l 696 1261 l 865 1061 l 685 1061 z "},"Õ":{"ha":1182,"x_min":56,"x_max":1126,"o":"m 1126 496 q 1086 283 1126 379 q 974 117 1046 186 q 804 11 903 49 q 590 -26 706 -26 q 377 11 475 -26 q 208 117 279 49 q 96 283 136 186 q 56 496 56 379 q 96 709 56 614 q 208 871 136 804 q 377 974 279 938 q 590 1010 475 1010 q 804 974 706 1010 q 974 871 903 938 q 1086 709 1046 804 q 1126 496 1126 614 m 872 496 q 851 615 872 560 q 794 710 831 671 q 705 773 757 750 q 590 796 653 796 q 476 773 528 796 q 388 710 425 750 q 330 615 350 671 q 310 496 310 560 q 331 373 310 429 q 388 276 351 317 q 476 213 425 236 q 590 190 528 190 q 704 213 653 190 q 793 276 756 236 q 851 373 831 317 q 872 496 872 429 m 850 1250 q 835 1181 846 1214 q 805 1122 824 1147 q 758 1082 786 1097 q 693 1067 731 1067 q 636 1075 664 1067 q 581 1096 608 1083 q 533 1117 553 1111 q 493 1124 513 1124 q 455 1107 468 1124 q 435 1068 442 1090 l 335 1068 q 350 1137 339 1104 q 380 1194 361 1169 q 426 1234 399 1219 q 492 1249 454 1249 q 548 1241 521 1249 q 603 1221 575 1233 q 653 1200 632 1207 q 693 1193 674 1193 q 732 1209 719 1193 q 751 1250 744 1225 l 850 1250 z "},"Ö":{"ha":1182,"x_min":56,"x_max":1126,"o":"m 1126 496 q 1086 283 1126 379 q 974 117 1046 186 q 804 11 903 49 q 590 -26 706 -26 q 377 11 475 -26 q 208 117 279 49 q 96 283 136 186 q 56 496 56 379 q 96 709 56 614 q 208 871 136 804 q 377 974 279 938 q 590 1010 475 1010 q 804 974 706 1010 q 974 871 903 938 q 1086 709 1046 804 q 1126 496 1126 614 m 872 496 q 851 615 872 560 q 794 710 831 671 q 705 773 757 750 q 590 796 653 796 q 476 773 528 796 q 388 710 425 750 q 330 615 350 671 q 310 496 310 560 q 331 373 310 429 q 388 276 351 317 q 476 213 425 236 q 590 190 528 190 q 704 213 653 190 q 793 276 756 236 q 851 373 831 317 q 872 496 872 429 m 858 1181 q 824 1099 858 1132 q 743 1067 790 1067 q 661 1100 694 1067 q 628 1181 628 1133 q 637 1223 628 1203 q 661 1259 646 1243 q 697 1284 676 1275 q 743 1293 718 1293 q 824 1260 790 1293 q 858 1181 858 1228 m 557 1181 q 523 1099 557 1132 q 440 1067 489 1067 q 358 1100 392 1067 q 325 1181 325 1133 q 334 1223 325 1203 q 358 1259 343 1243 q 395 1284 374 1275 q 440 1293 417 1293 q 523 1260 489 1293 q 557 1181 557 1228 z "},"×":{"ha":925,"x_min":88,"x_max":839,"o":"m 708 51 l 463 292 l 218 51 l 89 175 l 335 418 l 88 660 l 218 786 l 464 546 l 706 785 l 832 664 l 590 424 l 839 181 l 708 51 z "},"Ø":{"ha":1182,"x_min":54,"x_max":1126,"o":"m 56 494 q 96 708 56 613 q 208 869 136 803 q 377 972 279 936 q 590 1008 475 1008 q 894 928 765 1008 q 954 994 924 961 q 1015 1063 985 1028 q 1062 1022 1039 1042 q 1108 981 1085 1001 q 1049 916 1078 949 q 989 851 1019 883 q 1091 694 1056 783 q 1126 494 1126 606 q 1085 283 1126 378 q 973 119 1044 188 q 803 13 901 51 q 589 -25 704 -25 l 582 -25 q 411 -1 490 -25 q 271 71 332 24 q 209 5 239 38 q 147 -61 179 -28 q 101 -22 124 -42 q 54 18 78 -1 q 116 85 86 51 q 178 153 146 119 q 87 304 118 217 q 56 494 56 392 m 882 494 q 869 593 882 547 q 829 675 857 639 q 626 454 728 564 q 424 233 525 344 q 589 182 488 182 q 710 206 656 182 q 802 272 764 231 q 861 371 840 314 q 882 494 882 428 m 297 493 q 340 326 297 392 q 541 545 440 436 q 743 764 642 654 q 676 794 715 783 q 590 804 636 804 q 467 780 521 804 q 375 713 413 756 q 317 614 338 671 q 297 493 297 557 z "},"Ù":{"ha":1025,"x_min":92,"x_max":935,"o":"m 935 371 q 905 209 935 282 q 819 84 875 136 q 685 3 764 32 q 511 -26 607 -26 q 336 3 414 -26 q 204 84 258 32 q 121 209 150 136 q 92 371 92 282 l 92 983 l 328 983 l 328 390 q 338 314 328 350 q 370 249 349 278 q 427 204 392 221 q 513 188 463 188 q 598 204 563 188 q 656 249 633 221 q 688 314 678 278 q 697 390 697 350 l 697 983 l 935 983 l 935 371 m 481 1061 l 278 1261 l 508 1261 l 653 1061 l 481 1061 z "},"Ú":{"ha":1025,"x_min":92,"x_max":935,"o":"m 935 371 q 905 209 935 282 q 819 84 875 136 q 685 3 764 32 q 511 -26 607 -26 q 336 3 414 -26 q 204 84 258 32 q 121 209 150 136 q 92 371 92 282 l 92 983 l 328 983 l 328 390 q 338 314 328 350 q 370 249 349 278 q 427 204 392 221 q 513 188 463 188 q 598 204 563 188 q 656 249 633 221 q 688 314 678 278 q 697 390 697 350 l 697 983 l 935 983 l 935 371 m 551 1061 l 379 1061 l 524 1261 l 754 1261 l 551 1061 z "},"Û":{"ha":1025,"x_min":92,"x_max":935,"o":"m 935 371 q 905 209 935 282 q 819 84 875 136 q 685 3 764 32 q 511 -26 607 -26 q 336 3 414 -26 q 204 84 258 32 q 121 209 150 136 q 92 371 92 282 l 92 983 l 328 983 l 328 390 q 338 314 328 350 q 370 249 349 278 q 427 204 392 221 q 513 188 463 188 q 598 204 563 188 q 656 249 633 221 q 688 314 678 278 q 697 390 697 350 l 697 983 l 935 983 l 935 371 m 607 1061 l 513 1174 l 418 1061 l 240 1061 l 413 1261 l 618 1261 l 788 1061 l 607 1061 z "},"Ü":{"ha":1025,"x_min":92,"x_max":935,"o":"m 935 371 q 905 209 935 282 q 819 84 875 136 q 685 3 764 32 q 511 -26 607 -26 q 336 3 414 -26 q 204 84 258 32 q 121 209 150 136 q 92 371 92 282 l 92 983 l 328 983 l 328 390 q 338 314 328 350 q 370 249 349 278 q 427 204 392 221 q 513 188 463 188 q 598 204 563 188 q 656 249 633 221 q 688 314 678 278 q 697 390 697 350 l 697 983 l 935 983 l 935 371 m 781 1181 q 747 1099 781 1132 q 665 1067 713 1067 q 583 1100 617 1067 q 550 1181 550 1133 q 559 1223 550 1203 q 583 1259 568 1243 q 619 1284 599 1275 q 665 1293 640 1293 q 747 1260 713 1293 q 781 1181 781 1228 m 479 1181 q 445 1099 479 1132 q 363 1067 411 1067 q 281 1100 314 1067 q 247 1181 247 1133 q 256 1223 247 1203 q 281 1259 265 1243 q 317 1284 296 1275 q 363 1293 339 1293 q 445 1260 411 1293 q 479 1181 479 1228 z "},"Ý":{"ha":929,"x_min":-28,"x_max":957,"o":"m 579 417 l 579 0 l 342 0 l 342 417 l -28 983 l 260 983 l 469 619 l 679 983 l 957 983 l 579 417 m 551 1061 l 379 1061 l 524 1261 l 754 1261 l 551 1061 z "},"Þ":{"ha":889,"x_min":101,"x_max":847,"o":"m 847 513 q 815 367 847 426 q 729 272 783 308 q 604 219 675 236 q 457 203 533 203 l 339 203 l 339 0 l 101 0 l 101 983 l 339 983 l 339 815 l 463 815 q 613 799 543 815 q 735 748 683 783 q 817 655 788 713 q 847 513 847 597 m 610 511 q 596 569 610 547 q 558 604 582 592 q 505 621 535 617 q 443 625 475 625 l 339 625 l 339 392 l 439 392 q 503 397 472 392 q 558 417 533 403 q 596 453 582 431 q 610 511 610 476 z "},"ß":{"ha":926,"x_min":89,"x_max":874,"o":"m 385 194 q 439 181 408 186 q 486 176 469 176 q 598 209 553 176 q 643 319 643 242 q 628 391 643 361 q 588 440 614 421 q 528 469 563 460 q 456 478 494 478 l 426 478 l 426 657 l 457 657 q 491 660 471 657 q 530 676 511 664 q 563 710 549 688 q 576 769 576 732 q 547 848 576 814 q 460 882 518 882 q 390 865 418 882 q 347 822 363 849 q 324 761 331 794 q 317 694 317 728 l 317 0 l 89 0 l 89 696 q 111 843 89 775 q 181 960 133 911 q 299 1038 228 1010 q 469 1067 371 1067 q 600 1047 539 1067 q 707 992 661 1028 q 779 905 753 957 q 806 789 806 853 q 764 656 806 711 q 661 581 722 600 l 661 579 q 815 488 757 560 q 874 308 874 417 q 848 172 874 232 q 776 69 822 111 q 664 4 729 26 q 518 -18 599 -18 q 385 -1 453 -18 l 385 194 l 385 194 z "},"à":{"ha":786,"x_min":46,"x_max":706,"o":"m 497 301 l 468 301 q 392 298 431 301 q 324 285 354 294 q 275 256 294 275 q 256 207 256 238 q 265 174 256 188 q 288 151 274 160 q 319 140 301 143 q 354 136 338 136 q 460 174 424 136 q 497 278 497 213 l 497 301 m 79 597 q 222 685 140 656 q 388 714 303 714 q 535 692 475 714 q 633 626 596 671 q 688 512 671 581 q 706 349 706 443 l 706 0 l 497 0 l 497 74 l 493 74 q 413 7 467 31 q 297 -17 360 -17 q 211 -6 256 -17 q 130 31 167 6 q 69 97 93 56 q 46 200 46 139 q 87 321 46 275 q 192 392 128 367 q 336 425 257 417 q 490 433 415 433 l 490 444 q 454 520 490 496 q 365 544 418 544 q 272 524 317 544 q 194 474 226 503 l 79 597 m 358 794 l 156 994 l 386 994 l 531 794 l 358 794 z "},"á":{"ha":786,"x_min":46,"x_max":706,"o":"m 497 301 l 468 301 q 392 298 431 301 q 324 285 354 294 q 275 256 294 275 q 256 207 256 238 q 265 174 256 188 q 288 151 274 160 q 319 140 301 143 q 354 136 338 136 q 460 174 424 136 q 497 278 497 213 l 497 301 m 79 597 q 222 685 140 656 q 388 714 303 714 q 535 692 475 714 q 633 626 596 671 q 688 512 671 581 q 706 349 706 443 l 706 0 l 497 0 l 497 74 l 493 74 q 413 7 467 31 q 297 -17 360 -17 q 211 -6 256 -17 q 130 31 167 6 q 69 97 93 56 q 46 200 46 139 q 87 321 46 275 q 192 392 128 367 q 336 425 257 417 q 490 433 415 433 l 490 444 q 454 520 490 496 q 365 544 418 544 q 272 524 317 544 q 194 474 226 503 l 79 597 m 433 794 l 261 794 l 406 994 l 636 994 l 433 794 z "},"â":{"ha":786,"x_min":46,"x_max":706,"o":"m 497 301 l 468 301 q 392 298 431 301 q 324 285 354 294 q 275 256 294 275 q 256 207 256 238 q 265 174 256 188 q 288 151 274 160 q 319 140 301 143 q 354 136 338 136 q 460 174 424 136 q 497 278 497 213 l 497 301 m 79 597 q 222 685 140 656 q 388 714 303 714 q 535 692 475 714 q 633 626 596 671 q 688 512 671 581 q 706 349 706 443 l 706 0 l 497 0 l 497 74 l 493 74 q 413 7 467 31 q 297 -17 360 -17 q 211 -6 256 -17 q 130 31 167 6 q 69 97 93 56 q 46 200 46 139 q 87 321 46 275 q 192 392 128 367 q 336 425 257 417 q 490 433 415 433 l 490 444 q 454 520 490 496 q 365 544 418 544 q 272 524 317 544 q 194 474 226 503 l 79 597 m 489 794 l 394 907 l 300 794 l 122 794 l 294 994 l 500 994 l 669 794 l 489 794 z "},"ã":{"ha":786,"x_min":46,"x_max":706,"o":"m 497 301 l 468 301 q 392 298 431 301 q 324 285 354 294 q 275 256 294 275 q 256 207 256 238 q 265 174 256 188 q 288 151 274 160 q 319 140 301 143 q 354 136 338 136 q 460 174 424 136 q 497 278 497 213 l 497 301 m 79 597 q 222 685 140 656 q 388 714 303 714 q 535 692 475 714 q 633 626 596 671 q 688 512 671 581 q 706 349 706 443 l 706 0 l 497 0 l 497 74 l 493 74 q 413 7 467 31 q 297 -17 360 -17 q 211 -6 256 -17 q 130 31 167 6 q 69 97 93 56 q 46 200 46 139 q 87 321 46 275 q 192 392 128 367 q 336 425 257 417 q 490 433 415 433 l 490 444 q 454 520 490 496 q 365 544 418 544 q 272 524 317 544 q 194 474 226 503 l 79 597 m 657 983 q 642 914 653 947 q 612 856 631 881 q 565 815 593 831 q 500 800 538 800 q 443 808 471 800 q 388 829 415 817 q 340 851 360 844 q 300 857 319 857 q 262 840 275 857 q 242 801 249 824 l 142 801 q 157 870 146 838 q 187 928 168 903 q 233 967 206 953 q 299 982 261 982 q 355 974 328 982 q 410 954 382 967 q 460 933 439 940 q 500 926 481 926 q 539 942 526 926 q 558 983 551 958 l 657 983 z "},"ä":{"ha":786,"x_min":46,"x_max":706,"o":"m 497 301 l 468 301 q 392 298 431 301 q 324 285 354 294 q 275 256 294 275 q 256 207 256 238 q 265 174 256 188 q 288 151 274 160 q 319 140 301 143 q 354 136 338 136 q 460 174 424 136 q 497 278 497 213 l 497 301 m 79 597 q 222 685 140 656 q 388 714 303 714 q 535 692 475 714 q 633 626 596 671 q 688 512 671 581 q 706 349 706 443 l 706 0 l 497 0 l 497 74 l 493 74 q 413 7 467 31 q 297 -17 360 -17 q 211 -6 256 -17 q 130 31 167 6 q 69 97 93 56 q 46 200 46 139 q 87 321 46 275 q 192 392 128 367 q 336 425 257 417 q 490 433 415 433 l 490 444 q 454 520 490 496 q 365 544 418 544 q 272 524 317 544 q 194 474 226 503 l 79 597 m 663 914 q 628 833 663 865 q 547 800 594 800 q 465 833 499 800 q 432 914 432 867 q 441 956 432 936 q 465 992 450 976 q 501 1017 481 1008 q 547 1026 522 1026 q 628 994 594 1026 q 663 914 663 961 m 361 914 q 327 833 361 865 q 244 800 293 800 q 163 833 196 800 q 129 914 129 867 q 138 956 129 936 q 163 992 147 976 q 199 1017 178 1008 q 244 1026 221 1026 q 327 994 293 1026 q 361 914 361 961 z "},"å":{"ha":786,"x_min":46,"x_max":706,"o":"m 497 301 l 468 301 q 392 298 431 301 q 324 285 354 294 q 275 256 294 275 q 256 207 256 238 q 265 174 256 188 q 288 151 274 160 q 319 140 301 143 q 354 136 338 136 q 460 174 424 136 q 497 278 497 213 l 497 301 m 79 597 q 222 685 140 656 q 388 714 303 714 q 535 692 475 714 q 633 626 596 671 q 688 512 671 581 q 706 349 706 443 l 706 0 l 497 0 l 497 74 l 493 74 q 413 7 467 31 q 297 -17 360 -17 q 211 -6 256 -17 q 130 31 167 6 q 69 97 93 56 q 46 200 46 139 q 87 321 46 275 q 192 392 128 367 q 336 425 257 417 q 490 433 415 433 l 490 444 q 454 520 490 496 q 365 544 418 544 q 272 524 317 544 q 194 474 226 503 l 79 597 m 550 922 q 538 863 550 890 q 506 815 526 835 q 457 785 485 796 q 399 774 429 774 q 340 785 367 774 q 292 815 313 796 q 259 862 271 835 q 247 921 247 889 q 291 1028 247 986 q 399 1071 335 1071 q 457 1060 429 1071 q 506 1028 485 1049 q 538 981 526 1008 q 550 922 550 954 m 481 922 q 457 980 481 957 q 399 1003 433 1003 q 340 979 363 1003 q 317 921 317 956 q 340 865 317 888 q 399 842 364 842 q 457 865 433 842 q 481 922 481 888 z "},"æ":{"ha":1249,"x_min":46,"x_max":1196,"o":"m 497 288 l 468 288 q 313 272 369 288 q 256 207 256 257 q 265 174 256 188 q 288 151 274 160 q 319 140 301 143 q 354 136 338 136 q 460 171 424 136 q 497 265 497 206 l 497 288 m 985 425 q 951 518 985 479 q 849 557 917 557 q 788 547 815 557 q 739 518 760 536 q 706 476 718 500 q 692 425 693 451 l 985 425 m 1167 125 q 1039 16 1118 54 q 853 -22 960 -22 q 702 10 771 -22 q 593 103 633 43 q 495 17 561 50 q 313 -17 429 -17 q 221 -5 268 -17 q 135 33 174 7 q 71 99 96 58 q 46 200 46 140 q 83 316 46 272 q 183 384 121 360 q 326 416 246 408 q 490 424 406 424 l 490 433 q 457 518 490 492 q 367 544 424 544 q 272 524 318 544 q 194 474 226 503 l 81 597 q 222 685 140 656 q 388 714 303 714 q 528 683 474 714 q 611 613 583 653 q 709 685 649 657 q 849 714 769 714 q 989 688 925 714 q 1099 614 1053 663 q 1170 496 1144 565 q 1196 338 1196 426 q 1195 310 1196 324 q 1193 283 1194 296 l 693 283 q 747 189 700 225 q 857 153 794 153 q 950 173 913 153 q 1010 225 988 193 l 1167 125 z "},"ç":{"ha":699,"x_min":54,"x_max":697,"o":"m 597 -197 q 578 -264 597 -237 q 528 -306 558 -290 q 462 -327 497 -321 q 393 -333 426 -333 q 305 -324 350 -333 q 228 -299 260 -314 l 265 -215 q 323 -235 292 -228 q 382 -242 354 -242 q 428 -233 404 -242 q 451 -196 451 -224 q 429 -163 451 -171 q 386 -156 407 -156 q 358 -158 374 -156 q 331 -164 343 -160 l 288 -124 l 368 -17 q 242 23 300 -7 q 143 99 185 53 q 78 208 101 146 q 54 346 54 269 q 84 499 54 431 q 166 615 114 567 q 289 688 218 663 q 440 714 360 714 q 515 707 478 714 q 585 688 551 700 q 648 659 619 676 q 697 621 676 642 l 565 468 q 513 508 546 493 q 444 524 479 524 q 379 509 408 524 q 329 470 350 494 q 297 414 308 446 q 285 346 285 382 q 296 278 285 310 q 328 222 307 246 q 380 183 350 197 q 447 169 410 169 q 516 183 482 169 q 571 221 550 196 l 697 67 q 602 8 660 31 q 478 -21 544 -15 l 429 -83 q 442 -82 436 -82 q 454 -82 447 -82 q 505 -87 479 -82 q 551 -104 531 -92 q 584 -140 571 -117 q 597 -197 597 -162 z "},"è":{"ha":828,"x_min":54,"x_max":775,"o":"m 565 425 q 531 518 565 479 q 429 557 497 557 q 368 547 396 557 q 319 518 340 536 q 286 476 299 500 q 272 425 274 451 l 565 425 m 775 338 q 775 310 775 324 q 774 283 775 296 l 272 283 q 290 231 275 254 q 327 190 304 207 q 378 163 350 172 q 438 153 407 153 q 529 173 492 153 q 590 225 567 193 l 749 125 q 620 16 700 54 q 435 -22 540 -22 q 288 2 357 -22 q 166 73 218 26 q 84 188 114 119 q 54 343 54 256 q 83 497 54 428 q 163 613 113 565 q 281 688 213 661 q 428 714 349 714 q 568 688 504 714 q 678 614 632 663 q 749 496 724 565 q 775 338 775 426 m 386 794 l 183 994 l 414 994 l 558 794 l 386 794 z "},"é":{"ha":828,"x_min":54,"x_max":775,"o":"m 565 425 q 531 518 565 479 q 429 557 497 557 q 368 547 396 557 q 319 518 340 536 q 286 476 299 500 q 272 425 274 451 l 565 425 m 775 338 q 775 310 775 324 q 774 283 775 296 l 272 283 q 290 231 275 254 q 327 190 304 207 q 378 163 350 172 q 438 153 407 153 q 529 173 492 153 q 590 225 567 193 l 749 125 q 620 16 700 54 q 435 -22 540 -22 q 288 2 357 -22 q 166 73 218 26 q 84 188 114 119 q 54 343 54 256 q 83 497 54 428 q 163 613 113 565 q 281 688 213 661 q 428 714 349 714 q 568 688 504 714 q 678 614 632 663 q 749 496 724 565 q 775 338 775 426 m 460 794 l 288 794 l 432 994 l 663 994 l 460 794 z "},"ê":{"ha":828,"x_min":54,"x_max":775,"o":"m 565 425 q 531 518 565 479 q 429 557 497 557 q 368 547 396 557 q 319 518 340 536 q 286 476 299 500 q 272 425 274 451 l 565 425 m 775 338 q 775 310 775 324 q 774 283 775 296 l 272 283 q 290 231 275 254 q 327 190 304 207 q 378 163 350 172 q 438 153 407 153 q 529 173 492 153 q 590 225 567 193 l 749 125 q 620 16 700 54 q 435 -22 540 -22 q 288 2 357 -22 q 166 73 218 26 q 84 188 114 119 q 54 343 54 256 q 83 497 54 428 q 163 613 113 565 q 281 688 213 661 q 428 714 349 714 q 568 688 504 714 q 678 614 632 663 q 749 496 724 565 q 775 338 775 426 m 529 794 l 435 907 l 340 794 l 163 794 l 335 994 l 540 994 l 710 794 l 529 794 z "},"ë":{"ha":828,"x_min":54,"x_max":775,"o":"m 565 425 q 531 518 565 479 q 429 557 497 557 q 368 547 396 557 q 319 518 340 536 q 286 476 299 500 q 272 425 274 451 l 565 425 m 775 338 q 775 310 775 324 q 774 283 775 296 l 272 283 q 290 231 275 254 q 327 190 304 207 q 378 163 350 172 q 438 153 407 153 q 529 173 492 153 q 590 225 567 193 l 749 125 q 620 16 700 54 q 435 -22 540 -22 q 288 2 357 -22 q 166 73 218 26 q 84 188 114 119 q 54 343 54 256 q 83 497 54 428 q 163 613 113 565 q 281 688 213 661 q 428 714 349 714 q 568 688 504 714 q 678 614 632 663 q 749 496 724 565 q 775 338 775 426 m 701 914 q 667 833 701 865 q 586 800 633 800 q 504 833 538 800 q 471 914 471 867 q 480 956 471 936 q 504 992 489 976 q 540 1017 519 1008 q 586 1026 561 1026 q 667 994 633 1026 q 701 914 701 961 m 400 914 q 366 833 400 865 q 283 800 332 800 q 201 833 235 800 q 168 914 168 867 q 177 956 168 936 q 201 992 186 976 q 238 1017 217 1008 q 283 1026 260 1026 q 366 994 332 1026 q 400 914 400 961 z "},"ì":{"ha":411,"x_min":-58,"x_max":319,"o":"m 92 0 l 92 692 l 319 692 l 319 0 l 92 0 m 144 794 l -58 994 l 172 994 l 317 794 l 144 794 z "},"í":{"ha":411,"x_min":92,"x_max":468,"o":"m 92 0 l 92 692 l 319 692 l 319 0 l 92 0 m 265 794 l 93 794 l 238 994 l 468 994 l 265 794 z "},"î":{"ha":411,"x_min":-64,"x_max":483,"o":"m 92 0 l 92 692 l 319 692 l 319 0 l 92 0 m 303 794 l 208 907 l 114 794 l -64 794 l 108 994 l 314 994 l 483 794 l 303 794 z "},"ï":{"ha":411,"x_min":-58,"x_max":475,"o":"m 92 0 l 92 692 l 319 692 l 319 0 l 92 0 m 475 914 q 441 833 475 865 q 360 800 407 800 q 278 833 311 800 q 244 914 244 867 q 253 956 244 936 q 278 992 263 976 q 314 1017 293 1008 q 360 1026 335 1026 q 441 994 407 1026 q 475 914 475 961 m 174 914 q 140 833 174 865 q 57 800 106 800 q -25 833 8 800 q -58 914 -58 867 q -49 956 -58 936 q -25 992 -40 976 q 12 1017 -10 1008 q 57 1026 33 1026 q 140 994 106 1026 q 174 914 174 961 z "},"ð":{"ha":878,"x_min":54,"x_max":824,"o":"m 824 392 q 796 219 824 296 q 717 89 768 143 q 596 6 667 35 q 438 -22 525 -22 q 288 3 358 -22 q 166 77 218 29 q 84 194 114 125 q 54 347 54 263 q 83 497 54 431 q 161 610 111 564 q 278 683 211 657 q 421 708 344 708 q 481 701 453 708 q 535 674 510 693 l 538 675 q 474 760 508 718 q 401 833 440 801 l 251 767 l 140 864 l 292 929 q 246 969 275 946 q 188 1011 217 992 l 364 1110 q 433 1053 403 1081 q 483 1010 464 1026 l 640 1079 l 761 981 l 593 908 q 685 796 643 854 q 758 674 726 738 q 806 539 789 610 q 824 392 824 468 m 604 347 q 593 412 604 381 q 561 468 582 443 q 509 508 540 493 q 438 524 478 524 q 367 508 397 524 q 315 468 336 493 q 284 412 294 443 q 274 347 274 381 q 285 282 274 314 q 317 225 296 250 q 368 185 338 200 q 439 169 399 169 q 510 185 479 169 q 561 225 540 200 q 593 282 582 250 q 604 347 604 314 z "},"ñ":{"ha":856,"x_min":89,"x_max":772,"o":"m 543 0 l 543 378 q 538 433 543 407 q 522 480 533 460 q 491 512 511 500 q 440 524 471 524 q 387 512 410 524 q 349 479 364 500 q 326 431 333 458 q 318 375 318 404 l 318 0 l 89 0 l 89 692 l 310 692 l 310 596 l 313 596 q 345 640 325 618 q 392 676 365 661 q 451 701 419 692 q 519 711 483 711 q 638 686 589 711 q 716 622 686 661 q 759 531 746 582 q 772 428 772 479 l 772 0 l 543 0 m 690 983 q 675 914 686 947 q 645 856 664 881 q 599 815 626 831 q 533 800 571 800 q 476 808 504 800 q 421 829 449 817 q 373 851 393 844 q 333 857 353 857 q 295 840 308 857 q 275 801 282 824 l 175 801 q 190 870 179 838 q 220 928 201 903 q 267 967 239 953 q 332 982 294 982 q 388 974 361 982 q 443 954 415 967 q 493 933 472 940 q 533 926 514 926 q 572 942 560 926 q 592 983 585 958 l 690 983 z "},"ò":{"ha":878,"x_min":54,"x_max":822,"o":"m 822 349 q 792 195 822 264 q 708 78 761 126 q 586 4 656 31 q 438 -22 517 -22 q 290 4 360 -22 q 167 78 219 31 q 85 195 115 126 q 54 349 54 264 q 85 501 54 433 q 167 617 115 569 q 290 689 219 664 q 438 714 360 714 q 586 689 517 714 q 708 617 656 664 q 792 501 761 569 q 822 349 822 433 m 603 349 q 592 414 603 382 q 560 470 581 446 q 508 510 539 494 q 438 525 478 525 q 367 510 397 525 q 316 470 336 494 q 285 414 296 446 q 275 349 275 382 q 285 283 275 315 q 317 226 296 251 q 368 185 338 200 q 439 169 399 169 q 510 185 479 169 q 561 226 540 200 q 592 283 582 251 q 603 349 603 315 m 379 794 l 176 994 l 407 994 l 551 794 l 379 794 z "},"ó":{"ha":878,"x_min":54,"x_max":822,"o":"m 822 349 q 792 195 822 264 q 708 78 761 126 q 586 4 656 31 q 438 -22 517 -22 q 290 4 360 -22 q 167 78 219 31 q 85 195 115 126 q 54 349 54 264 q 85 501 54 433 q 167 617 115 569 q 290 689 219 664 q 438 714 360 714 q 586 689 517 714 q 708 617 656 664 q 792 501 761 569 q 822 349 822 433 m 603 349 q 592 414 603 382 q 560 470 581 446 q 508 510 539 494 q 438 525 478 525 q 367 510 397 525 q 316 470 336 494 q 285 414 296 446 q 275 349 275 382 q 285 283 275 315 q 317 226 296 251 q 368 185 338 200 q 439 169 399 169 q 510 185 479 169 q 561 226 540 200 q 592 283 582 251 q 603 349 603 315 m 492 794 l 319 794 l 464 994 l 694 994 l 492 794 z "},"ô":{"ha":878,"x_min":54,"x_max":822,"o":"m 822 349 q 792 195 822 264 q 708 78 761 126 q 586 4 656 31 q 438 -22 517 -22 q 290 4 360 -22 q 167 78 219 31 q 85 195 115 126 q 54 349 54 264 q 85 501 54 433 q 167 617 115 569 q 290 689 219 664 q 438 714 360 714 q 586 689 517 714 q 708 617 656 664 q 792 501 761 569 q 822 349 822 433 m 603 349 q 592 414 603 382 q 560 470 581 446 q 508 510 539 494 q 438 525 478 525 q 367 510 397 525 q 316 470 336 494 q 285 414 296 446 q 275 349 275 382 q 285 283 275 315 q 317 226 296 251 q 368 185 338 200 q 439 169 399 169 q 510 185 479 169 q 561 226 540 200 q 592 283 582 251 q 603 349 603 315 m 529 800 l 438 910 l 346 800 l 172 800 l 340 994 l 540 994 l 704 800 l 529 800 z "},"õ":{"ha":878,"x_min":54,"x_max":822,"o":"m 822 349 q 792 195 822 264 q 708 78 761 126 q 586 4 656 31 q 438 -22 517 -22 q 290 4 360 -22 q 167 78 219 31 q 85 195 115 126 q 54 349 54 264 q 85 501 54 433 q 167 617 115 569 q 290 689 219 664 q 438 714 360 714 q 586 689 517 714 q 708 617 656 664 q 792 501 761 569 q 822 349 822 433 m 603 349 q 592 414 603 382 q 560 470 581 446 q 508 510 539 494 q 438 525 478 525 q 367 510 397 525 q 316 470 336 494 q 285 414 296 446 q 275 349 275 382 q 285 283 275 315 q 317 226 296 251 q 368 185 338 200 q 439 169 399 169 q 510 185 479 169 q 561 226 540 200 q 592 283 582 251 q 603 349 603 315 m 696 983 q 681 914 692 947 q 651 856 669 881 q 604 815 632 831 q 539 800 576 800 q 482 808 510 800 q 426 829 454 817 q 378 851 399 844 q 339 857 358 857 q 301 840 314 857 q 281 801 288 824 l 181 801 q 196 870 185 838 q 226 928 207 903 q 272 967 244 953 q 338 982 300 982 q 394 974 367 982 q 449 954 421 967 q 499 933 478 940 q 539 926 519 926 q 578 942 565 926 q 597 983 590 958 l 696 983 z "},"ö":{"ha":878,"x_min":54,"x_max":822,"o":"m 822 349 q 792 195 822 264 q 708 78 761 126 q 586 4 656 31 q 438 -22 517 -22 q 290 4 360 -22 q 167 78 219 31 q 85 195 115 126 q 54 349 54 264 q 85 501 54 433 q 167 617 115 569 q 290 689 219 664 q 438 714 360 714 q 586 689 517 714 q 708 617 656 664 q 792 501 761 569 q 822 349 822 433 m 603 349 q 592 414 603 382 q 560 470 581 446 q 508 510 539 494 q 438 525 478 525 q 367 510 397 525 q 316 470 336 494 q 285 414 296 446 q 275 349 275 382 q 285 283 275 315 q 317 226 296 251 q 368 185 338 200 q 439 169 399 169 q 510 185 479 169 q 561 226 540 200 q 592 283 582 251 q 603 349 603 315 m 704 914 q 670 833 704 865 q 589 800 636 800 q 507 833 540 800 q 474 914 474 867 q 483 956 474 936 q 507 992 492 976 q 543 1017 522 1008 q 589 1026 564 1026 q 670 994 636 1026 q 704 914 704 961 m 403 914 q 369 833 403 865 q 286 800 335 800 q 204 833 238 800 q 171 914 171 867 q 180 956 171 936 q 204 992 189 976 q 241 1017 219 1008 q 286 1026 263 1026 q 369 994 335 1026 q 403 914 403 961 z "},"÷":{"ha":925,"x_min":110,"x_max":814,"o":"m 342 679 q 351 724 342 703 q 378 762 361 746 q 416 787 394 778 q 463 796 438 796 q 509 787 488 796 q 547 762 531 778 q 572 724 563 746 q 582 679 582 703 q 572 633 582 654 q 547 595 563 611 q 509 570 531 579 q 463 561 488 561 q 416 570 438 561 q 378 595 394 579 q 351 633 361 611 q 342 679 342 654 m 342 163 q 351 208 342 186 q 378 245 361 229 q 416 270 394 261 q 463 279 438 279 q 509 270 488 279 q 547 245 531 261 q 572 208 563 229 q 582 163 582 186 q 572 117 582 139 q 547 80 563 96 q 509 54 531 64 q 463 44 488 44 q 416 54 438 44 q 378 80 394 64 q 351 117 361 96 q 342 163 342 139 m 110 333 l 110 510 l 814 510 l 814 333 l 110 333 z "},"ø":{"ha":878,"x_min":33,"x_max":843,"o":"m 746 571 q 822 347 822 482 q 792 196 822 264 q 709 79 761 128 q 587 4 657 31 q 438 -22 517 -22 q 319 -6 375 -22 q 219 43 264 11 l 115 -60 l 33 21 l 133 119 q 76 219 97 161 q 54 347 54 278 q 84 499 54 431 q 166 615 114 567 q 288 689 218 663 q 438 715 358 715 q 660 647 568 715 l 760 747 l 843 667 l 746 571 m 517 507 q 480 526 501 518 q 435 533 458 533 q 363 518 394 533 q 310 478 332 503 q 278 420 289 453 q 267 353 267 388 q 272 310 267 332 q 286 274 276 288 l 517 507 m 606 344 q 601 388 606 367 q 588 425 597 410 l 356 192 q 394 171 371 178 q 440 164 417 164 q 512 179 481 164 q 564 219 543 194 q 595 277 585 244 q 606 344 606 310 z "},"ù":{"ha":853,"x_min":82,"x_max":764,"o":"m 544 0 l 544 96 l 542 96 q 509 51 529 72 q 462 15 489 31 q 402 -10 435 0 q 333 -19 369 -19 q 216 6 264 -19 q 138 70 168 31 q 95 160 108 110 q 82 264 82 211 l 82 692 l 311 692 l 311 317 q 315 261 311 288 q 331 214 319 235 q 363 181 343 193 q 414 169 382 169 q 505 214 474 169 q 536 318 536 258 l 536 692 l 764 692 l 764 0 l 544 0 m 394 794 l 192 994 l 422 994 l 567 794 l 394 794 z "},"ú":{"ha":853,"x_min":82,"x_max":764,"o":"m 544 0 l 544 96 l 542 96 q 509 51 529 72 q 462 15 489 31 q 402 -10 435 0 q 333 -19 369 -19 q 216 6 264 -19 q 138 70 168 31 q 95 160 108 110 q 82 264 82 211 l 82 692 l 311 692 l 311 317 q 315 261 311 288 q 331 214 319 235 q 363 181 343 193 q 414 169 382 169 q 505 214 474 169 q 536 318 536 258 l 536 692 l 764 692 l 764 0 l 544 0 m 476 794 l 304 794 l 449 994 l 679 994 l 476 794 z "},"û":{"ha":853,"x_min":82,"x_max":764,"o":"m 544 0 l 544 96 l 542 96 q 509 51 529 72 q 462 15 489 31 q 402 -10 435 0 q 333 -19 369 -19 q 216 6 264 -19 q 138 70 168 31 q 95 160 108 110 q 82 264 82 211 l 82 692 l 311 692 l 311 317 q 315 261 311 288 q 331 214 319 235 q 363 181 343 193 q 414 169 382 169 q 505 214 474 169 q 536 318 536 258 l 536 692 l 764 692 l 764 0 l 544 0 m 521 794 l 426 907 l 332 794 l 154 794 l 326 994 l 532 994 l 701 794 l 521 794 z "},"ü":{"ha":853,"x_min":82,"x_max":764,"o":"m 544 0 l 544 96 l 542 96 q 509 51 529 72 q 462 15 489 31 q 402 -10 435 0 q 333 -19 369 -19 q 216 6 264 -19 q 138 70 168 31 q 95 160 108 110 q 82 264 82 211 l 82 692 l 311 692 l 311 317 q 315 261 311 288 q 331 214 319 235 q 363 181 343 193 q 414 169 382 169 q 505 214 474 169 q 536 318 536 258 l 536 692 l 764 692 l 764 0 l 544 0 m 693 914 q 659 833 693 865 q 578 800 625 800 q 496 833 529 800 q 463 914 463 867 q 472 956 463 936 q 496 992 481 976 q 532 1017 511 1008 q 578 1026 553 1026 q 659 994 625 1026 q 693 914 693 961 m 392 914 q 358 833 392 865 q 275 800 324 800 q 193 833 226 800 q 160 914 160 867 q 169 956 160 936 q 193 992 178 976 q 230 1017 208 1008 q 275 1026 251 1026 q 358 994 324 1026 q 392 914 392 961 z "},"ý":{"ha":788,"x_min":-1,"x_max":789,"o":"m 479 -104 q 433 -201 458 -158 q 372 -273 407 -243 q 288 -318 336 -303 q 175 -333 240 -333 q 109 -329 143 -333 q 50 -318 75 -325 l 75 -126 q 112 -135 92 -132 q 149 -139 132 -139 q 225 -115 201 -139 q 265 -46 249 -90 l 288 11 l -1 692 l 251 692 l 406 247 l 410 247 l 547 692 l 789 692 l 479 -104 m 475 794 l 303 794 l 447 994 l 678 994 l 475 794 z "},"þ":{"ha":915,"x_min":92,"x_max":860,"o":"m 860 349 q 838 210 860 276 q 774 92 815 143 q 671 11 732 42 q 531 -19 610 -19 q 409 7 467 -19 q 321 78 351 33 l 318 78 l 318 -333 l 92 -333 l 92 1050 l 318 1050 l 318 618 l 322 618 q 403 682 351 653 q 533 711 456 711 q 669 682 608 711 q 772 603 729 653 q 837 487 814 553 q 860 349 860 421 m 640 349 q 630 414 640 382 q 599 470 619 446 q 547 510 578 494 q 476 525 517 525 q 407 510 438 525 q 355 469 376 494 q 322 413 333 444 q 310 347 310 381 q 322 282 310 314 q 355 225 333 250 q 407 185 376 200 q 476 169 438 169 q 547 185 517 169 q 599 225 578 200 q 630 283 619 250 q 640 349 640 315 z "},"ÿ":{"ha":788,"x_min":-1,"x_max":789,"o":"m 479 -104 q 433 -201 458 -158 q 372 -273 407 -243 q 288 -318 336 -303 q 175 -333 240 -333 q 109 -329 143 -333 q 50 -318 75 -325 l 75 -126 q 112 -135 92 -132 q 149 -139 132 -139 q 225 -115 201 -139 q 265 -46 249 -90 l 288 11 l -1 692 l 251 692 l 406 247 l 410 247 l 547 692 l 789 692 l 479 -104 m 674 914 q 640 833 674 865 q 558 800 606 800 q 476 833 510 800 q 443 914 443 867 q 452 956 443 936 q 476 992 461 976 q 513 1017 492 1008 q 558 1026 533 1026 q 640 994 606 1026 q 674 914 674 961 m 372 914 q 338 833 372 865 q 256 800 304 800 q 174 833 207 800 q 140 914 140 867 q 149 956 140 936 q 174 992 158 976 q 210 1017 189 1008 q 256 1026 232 1026 q 338 994 304 1026 q 372 914 372 961 z "},"Ā":{"ha":1013,"x_min":-19,"x_max":1032,"o":"m 768 0 l 692 193 l 311 193 l 239 0 l -19 0 l 393 983 l 624 983 l 1032 0 l 768 0 m 504 721 l 379 383 l 626 383 l 504 721 m 272 1101 l 272 1221 l 739 1221 l 739 1101 l 272 1101 z "},"ā":{"ha":786,"x_min":46,"x_max":706,"o":"m 497 301 l 468 301 q 392 298 431 301 q 324 285 354 294 q 275 256 294 275 q 256 207 256 238 q 265 174 256 188 q 288 151 274 160 q 319 140 301 143 q 354 136 338 136 q 460 174 424 136 q 497 278 497 213 l 497 301 m 79 597 q 222 685 140 656 q 388 714 303 714 q 535 692 475 714 q 633 626 596 671 q 688 512 671 581 q 706 349 706 443 l 706 0 l 497 0 l 497 74 l 493 74 q 413 7 467 31 q 297 -17 360 -17 q 211 -6 256 -17 q 130 31 167 6 q 69 97 93 56 q 46 200 46 139 q 87 321 46 275 q 192 392 128 367 q 336 425 257 417 q 490 433 415 433 l 490 444 q 454 520 490 496 q 365 544 418 544 q 272 524 317 544 q 194 474 226 503 l 79 597 m 164 835 l 164 954 l 631 954 l 631 835 l 164 835 z "},"Ă":{"ha":1013,"x_min":-19,"x_max":1032,"o":"m 768 0 l 692 193 l 311 193 l 239 0 l -19 0 l 393 983 l 624 983 l 1032 0 l 768 0 m 504 721 l 379 383 l 626 383 l 504 721 m 746 1261 q 721 1169 742 1207 q 668 1107 700 1131 q 594 1072 636 1083 q 503 1061 551 1061 q 413 1072 456 1061 q 339 1106 371 1082 q 287 1169 307 1131 q 263 1261 267 1207 l 379 1261 q 395 1224 383 1239 q 424 1201 407 1210 q 463 1188 442 1192 q 504 1185 483 1185 q 585 1199 551 1185 q 629 1261 619 1213 l 746 1261 z "},"ă":{"ha":786,"x_min":46,"x_max":706,"o":"m 497 301 l 468 301 q 392 298 431 301 q 324 285 354 294 q 275 256 294 275 q 256 207 256 238 q 265 174 256 188 q 288 151 274 160 q 319 140 301 143 q 354 136 338 136 q 460 174 424 136 q 497 278 497 213 l 497 301 m 79 597 q 222 685 140 656 q 388 714 303 714 q 535 692 475 714 q 633 626 596 671 q 688 512 671 581 q 706 349 706 443 l 706 0 l 497 0 l 497 74 l 493 74 q 413 7 467 31 q 297 -17 360 -17 q 211 -6 256 -17 q 130 31 167 6 q 69 97 93 56 q 46 200 46 139 q 87 321 46 275 q 192 392 128 367 q 336 425 257 417 q 490 433 415 433 l 490 444 q 454 520 490 496 q 365 544 418 544 q 272 524 317 544 q 194 474 226 503 l 79 597 m 639 994 q 614 902 635 940 q 561 840 593 864 q 487 806 529 817 q 396 794 444 794 q 306 805 349 794 q 232 840 264 815 q 180 902 200 864 q 156 994 160 940 l 272 994 q 317 933 281 954 q 356 922 335 925 q 397 918 376 918 q 478 932 444 918 q 522 994 513 946 l 639 994 z "},"Ą":{"ha":1013,"x_min":-19,"x_max":1032,"o":"m 944 -272 q 871 -312 913 -296 q 785 -328 829 -328 q 728 -321 757 -328 q 678 -299 700 -314 q 642 -259 656 -283 q 628 -201 628 -235 q 641 -144 628 -172 q 674 -89 654 -115 q 719 -40 694 -62 q 769 0 744 -18 l 768 0 l 692 193 l 311 193 l 239 0 l -19 0 l 393 983 l 624 983 l 1032 0 l 897 0 q 808 -85 844 -42 q 772 -164 772 -128 q 787 -200 772 -186 q 824 -214 801 -214 q 863 -206 843 -214 q 900 -186 882 -199 l 944 -272 m 504 721 l 379 383 l 626 383 l 504 721 z "},"ą":{"ha":786,"x_min":46,"x_max":706,"o":"m 667 -272 q 593 -312 635 -296 q 507 -328 551 -328 q 451 -321 479 -328 q 400 -299 422 -314 q 364 -259 378 -283 q 350 -201 350 -235 q 364 -142 350 -171 q 399 -86 378 -112 q 446 -37 419 -60 q 497 3 472 -14 l 497 74 l 493 74 q 413 7 467 31 q 297 -17 360 -17 q 211 -6 256 -17 q 130 31 167 6 q 69 97 93 56 q 46 200 46 139 q 87 321 46 275 q 192 392 128 367 q 336 425 257 417 q 490 433 415 433 l 490 444 q 454 520 490 496 q 365 544 418 544 q 272 524 317 544 q 194 474 226 503 l 79 597 q 222 685 140 656 q 388 714 303 714 q 535 692 475 714 q 633 626 596 671 q 688 512 671 581 q 706 349 706 443 l 706 0 l 619 0 q 531 -85 567 -42 q 494 -164 494 -128 q 509 -200 494 -186 q 546 -214 524 -214 q 585 -206 565 -214 q 622 -186 604 -199 l 667 -272 m 497 301 l 468 301 q 392 298 431 301 q 324 285 354 294 q 275 256 294 275 q 256 207 256 238 q 265 174 256 188 q 288 151 274 160 q 319 140 301 143 q 354 136 338 136 q 460 174 424 136 q 497 278 497 213 l 497 301 z "},"Ć":{"ha":967,"x_min":56,"x_max":967,"o":"m 967 136 q 806 17 901 61 q 585 -26 710 -26 q 374 11 471 -26 q 207 117 278 49 q 96 282 136 186 q 56 493 56 378 q 97 707 56 611 q 210 870 138 803 q 379 974 282 938 q 589 1010 476 1010 q 794 973 693 1010 q 957 865 894 936 l 796 704 q 708 772 763 750 q 597 794 654 794 q 483 772 535 794 q 393 708 431 749 q 335 613 356 668 q 314 493 314 558 q 335 371 314 426 q 392 276 356 315 q 481 214 429 236 q 593 192 532 192 q 717 219 664 192 q 801 292 769 247 l 967 136 m 629 1061 l 457 1061 l 601 1261 l 832 1261 l 629 1061 z "},"ć":{"ha":699,"x_min":54,"x_max":699,"o":"m 565 468 q 513 508 546 493 q 444 524 479 524 q 379 509 408 524 q 329 470 350 494 q 297 414 308 446 q 285 346 285 382 q 296 278 285 310 q 328 222 307 246 q 380 183 350 197 q 447 169 410 169 q 516 183 482 169 q 571 221 550 196 l 697 67 q 586 1 654 25 q 442 -22 518 -22 q 289 3 360 -22 q 166 76 218 28 q 84 192 114 124 q 54 346 54 260 q 84 499 54 431 q 166 615 114 567 q 289 688 218 663 q 440 714 360 714 q 515 707 478 714 q 585 688 551 700 q 648 659 619 676 q 697 621 676 642 l 565 468 m 496 794 l 324 794 l 468 994 l 699 994 l 496 794 z "},"Ĉ":{"ha":967,"x_min":56,"x_max":967,"o":"m 967 136 q 806 17 901 61 q 585 -26 710 -26 q 374 11 471 -26 q 207 117 278 49 q 96 282 136 186 q 56 493 56 378 q 97 707 56 611 q 210 870 138 803 q 379 974 282 938 q 589 1010 476 1010 q 794 973 693 1010 q 957 865 894 936 l 796 704 q 708 772 763 750 q 597 794 654 794 q 483 772 535 794 q 393 708 431 749 q 335 613 356 668 q 314 493 314 558 q 335 371 314 426 q 392 276 356 315 q 481 214 429 236 q 593 192 532 192 q 717 219 664 192 q 801 292 769 247 l 967 136 m 688 1061 l 593 1174 l 499 1061 l 321 1061 l 493 1261 l 699 1261 l 868 1061 l 688 1061 z "},"ĉ":{"ha":699,"x_min":54,"x_max":717,"o":"m 565 468 q 513 508 546 493 q 444 524 479 524 q 379 509 408 524 q 329 470 350 494 q 297 414 308 446 q 285 346 285 382 q 296 278 285 310 q 328 222 307 246 q 380 183 350 197 q 447 169 410 169 q 516 183 482 169 q 571 221 550 196 l 697 67 q 586 1 654 25 q 442 -22 518 -22 q 289 3 360 -22 q 166 76 218 28 q 84 192 114 124 q 54 346 54 260 q 84 499 54 431 q 166 615 114 567 q 289 688 218 663 q 440 714 360 714 q 515 707 478 714 q 585 688 551 700 q 648 659 619 676 q 697 621 676 642 l 565 468 m 536 794 l 442 907 l 347 794 l 169 794 l 342 994 l 547 994 l 717 794 l 536 794 z "},"Ċ":{"ha":967,"x_min":56,"x_max":967,"o":"m 967 136 q 806 17 901 61 q 585 -26 710 -26 q 374 11 471 -26 q 207 117 278 49 q 96 282 136 186 q 56 493 56 378 q 97 707 56 611 q 210 870 138 803 q 379 974 282 938 q 589 1010 476 1010 q 794 973 693 1010 q 957 865 894 936 l 796 704 q 708 772 763 750 q 597 794 654 794 q 483 772 535 794 q 393 708 431 749 q 335 613 356 668 q 314 493 314 558 q 335 371 314 426 q 392 276 356 315 q 481 214 429 236 q 593 192 532 192 q 717 219 664 192 q 801 292 769 247 l 967 136 m 715 1179 q 679 1095 715 1129 q 590 1061 643 1061 q 502 1096 538 1061 q 467 1179 467 1131 q 502 1263 467 1228 q 590 1299 538 1299 q 679 1264 643 1299 q 715 1179 715 1229 z "},"ċ":{"ha":699,"x_min":54,"x_max":697,"o":"m 565 468 q 513 508 546 493 q 444 524 479 524 q 379 509 408 524 q 329 470 350 494 q 297 414 308 446 q 285 346 285 382 q 296 278 285 310 q 328 222 307 246 q 380 183 350 197 q 447 169 410 169 q 516 183 482 169 q 571 221 550 196 l 697 67 q 586 1 654 25 q 442 -22 518 -22 q 289 3 360 -22 q 166 76 218 28 q 84 192 114 124 q 54 346 54 260 q 84 499 54 431 q 166 615 114 567 q 289 688 218 663 q 440 714 360 714 q 515 707 478 714 q 585 688 551 700 q 648 659 619 676 q 697 621 676 642 l 565 468 m 569 913 q 533 828 569 863 q 444 794 497 794 q 356 829 392 794 q 321 913 321 864 q 356 997 321 961 q 444 1032 392 1032 q 533 997 497 1032 q 569 913 569 963 z "},"Č":{"ha":967,"x_min":56,"x_max":967,"o":"m 967 136 q 806 17 901 61 q 585 -26 710 -26 q 374 11 471 -26 q 207 117 278 49 q 96 282 136 186 q 56 493 56 378 q 97 707 56 611 q 210 870 138 803 q 379 974 282 938 q 589 1010 476 1010 q 794 973 693 1010 q 957 865 894 936 l 796 704 q 708 772 763 750 q 597 794 654 794 q 483 772 535 794 q 393 708 431 749 q 335 613 356 668 q 314 493 314 558 q 335 371 314 426 q 392 276 356 315 q 481 214 429 236 q 593 192 532 192 q 717 219 664 192 q 801 292 769 247 l 967 136 m 696 1061 l 492 1061 l 319 1261 l 500 1261 l 594 1149 l 689 1261 l 867 1261 l 696 1061 z "},"č":{"ha":699,"x_min":54,"x_max":714,"o":"m 565 468 q 513 508 546 493 q 444 524 479 524 q 379 509 408 524 q 329 470 350 494 q 297 414 308 446 q 285 346 285 382 q 296 278 285 310 q 328 222 307 246 q 380 183 350 197 q 447 169 410 169 q 516 183 482 169 q 571 221 550 196 l 697 67 q 586 1 654 25 q 442 -22 518 -22 q 289 3 360 -22 q 166 76 218 28 q 84 192 114 124 q 54 346 54 260 q 84 499 54 431 q 166 615 114 567 q 289 688 218 663 q 440 714 360 714 q 515 707 478 714 q 585 688 551 700 q 648 659 619 676 q 697 621 676 642 l 565 468 m 543 794 l 339 794 l 167 994 l 347 994 l 442 882 l 536 994 l 714 994 l 543 794 z "},"Ď":{"ha":1075,"x_min":101,"x_max":1019,"o":"m 1019 494 q 972 272 1019 365 q 845 117 924 178 q 668 28 767 57 q 468 0 569 0 l 101 0 l 101 983 l 457 983 q 663 959 561 983 q 843 878 764 935 q 971 728 922 822 q 1019 494 1019 633 m 772 494 q 745 633 772 578 q 673 720 718 688 q 570 767 628 753 q 451 781 513 781 l 333 781 l 333 206 l 446 206 q 569 220 510 206 q 673 268 628 235 q 745 357 718 301 q 772 494 772 413 m 599 1061 l 394 1061 l 222 1261 l 403 1261 l 497 1149 l 592 1261 l 769 1261 l 599 1061 z "},"ď":{"ha":914,"x_min":54,"x_max":1156,"o":"m 613 0 l 613 90 l 610 90 q 515 9 576 38 q 383 -19 453 -19 q 244 11 306 -19 q 141 92 183 42 q 76 210 99 143 q 54 349 54 276 q 77 487 54 421 q 142 603 100 553 q 245 682 185 653 q 381 711 306 711 q 510 682 457 711 q 592 618 563 653 l 594 618 l 594 1050 l 822 1050 l 822 0 l 613 0 m 604 347 q 592 413 604 381 q 559 469 581 444 q 507 510 538 494 q 438 525 476 525 q 367 510 397 525 q 315 470 336 494 q 284 414 294 446 q 274 349 274 382 q 284 283 274 315 q 315 225 294 250 q 367 185 336 200 q 438 169 397 169 q 507 185 476 169 q 559 225 538 200 q 592 282 581 250 q 604 347 604 314 m 1036 713 l 861 713 l 954 983 l 1156 983 l 1036 713 z "},"Đ":{"ha":1075,"x_min":18,"x_max":1017,"o":"m 1017 494 q 969 274 1017 367 q 846 119 922 181 q 674 29 769 58 q 481 0 578 0 l 103 0 l 103 429 l 18 429 l 18 578 l 103 578 l 103 983 l 482 983 q 683 956 586 983 q 854 870 781 929 q 972 718 928 811 q 1017 494 1017 625 m 774 494 q 751 620 774 567 q 686 708 728 674 q 587 760 644 743 q 460 776 529 776 l 335 776 l 335 578 l 586 578 l 586 429 l 335 429 l 335 208 l 438 208 q 572 224 510 208 q 678 275 633 240 q 748 364 722 310 q 774 494 774 418 z "},"đ":{"ha":914,"x_min":54,"x_max":886,"o":"m 613 0 l 613 90 l 610 90 q 515 9 576 38 q 383 -19 453 -19 q 244 11 306 -19 q 141 92 183 42 q 76 210 99 143 q 54 349 54 276 q 77 487 54 421 q 142 603 100 553 q 245 682 185 653 q 381 711 306 711 q 510 682 457 711 q 592 618 563 653 l 594 618 l 594 792 l 388 792 l 388 915 l 594 915 l 594 1050 l 822 1050 l 822 915 l 886 915 l 886 792 l 822 792 l 822 0 l 613 0 m 604 347 q 592 413 604 381 q 559 469 581 444 q 507 510 538 494 q 438 525 476 525 q 367 510 397 525 q 315 470 336 494 q 284 414 294 446 q 274 349 274 382 q 284 283 274 315 q 315 225 294 250 q 367 185 336 200 q 438 169 397 169 q 507 185 476 169 q 559 225 538 200 q 592 282 581 250 q 604 347 604 314 z "},"Ē":{"ha":843,"x_min":101,"x_max":788,"o":"m 101 0 l 101 983 l 763 983 l 763 782 l 331 782 l 331 597 l 739 597 l 739 407 l 331 407 l 331 203 l 788 203 l 788 0 l 101 0 m 197 1101 l 197 1221 l 664 1221 l 664 1101 l 197 1101 z "},"ē":{"ha":828,"x_min":54,"x_max":775,"o":"m 565 425 q 531 518 565 479 q 429 557 497 557 q 368 547 396 557 q 319 518 340 536 q 286 476 299 500 q 272 425 274 451 l 565 425 m 775 338 q 775 310 775 324 q 774 283 775 296 l 272 283 q 290 231 275 254 q 327 190 304 207 q 378 163 350 172 q 438 153 407 153 q 529 173 492 153 q 590 225 567 193 l 749 125 q 620 16 700 54 q 435 -22 540 -22 q 288 2 357 -22 q 166 73 218 26 q 84 188 114 119 q 54 343 54 256 q 83 497 54 428 q 163 613 113 565 q 281 688 213 661 q 428 714 349 714 q 568 688 504 714 q 678 614 632 663 q 749 496 724 565 q 775 338 775 426 m 200 835 l 200 954 l 667 954 l 667 835 l 200 835 z "},"Ĕ":{"ha":843,"x_min":101,"x_max":788,"o":"m 101 0 l 101 983 l 763 983 l 763 782 l 331 782 l 331 597 l 739 597 l 739 407 l 331 407 l 331 203 l 788 203 l 788 0 l 101 0 m 672 1261 q 647 1169 668 1207 q 594 1107 626 1131 q 520 1072 563 1083 q 429 1061 478 1061 q 340 1072 382 1061 q 265 1106 297 1082 q 213 1169 233 1131 q 189 1261 193 1207 l 306 1261 q 322 1224 310 1239 q 351 1201 333 1210 q 389 1188 368 1192 q 431 1185 410 1185 q 512 1199 478 1185 q 556 1261 546 1213 l 672 1261 z "},"ĕ":{"ha":828,"x_min":54,"x_max":775,"o":"m 565 425 q 531 518 565 479 q 429 557 497 557 q 368 547 396 557 q 319 518 340 536 q 286 476 299 500 q 272 425 274 451 l 565 425 m 775 338 q 775 310 775 324 q 774 283 775 296 l 272 283 q 290 231 275 254 q 327 190 304 207 q 378 163 350 172 q 438 153 407 153 q 529 173 492 153 q 590 225 567 193 l 749 125 q 620 16 700 54 q 435 -22 540 -22 q 288 2 357 -22 q 166 73 218 26 q 84 188 114 119 q 54 343 54 256 q 83 497 54 428 q 163 613 113 565 q 281 688 213 661 q 428 714 349 714 q 568 688 504 714 q 678 614 632 663 q 749 496 724 565 q 775 338 775 426 m 675 994 q 650 902 671 940 q 597 840 629 864 q 523 806 565 817 q 432 794 481 794 q 342 805 385 794 q 268 840 300 815 q 216 902 236 864 q 192 994 196 940 l 308 994 q 353 933 317 954 q 392 922 371 925 q 433 918 413 918 q 515 932 481 918 q 558 994 549 946 l 675 994 z "},"Ė":{"ha":843,"x_min":101,"x_max":788,"o":"m 101 0 l 101 983 l 763 983 l 763 782 l 331 782 l 331 597 l 739 597 l 739 407 l 331 407 l 331 203 l 788 203 l 788 0 l 101 0 m 556 1179 q 519 1095 556 1129 q 431 1061 483 1061 q 342 1096 378 1061 q 307 1179 307 1131 q 342 1263 307 1228 q 431 1299 378 1299 q 519 1264 483 1299 q 556 1179 556 1229 z "},"ė":{"ha":828,"x_min":54,"x_max":775,"o":"m 565 425 q 531 518 565 479 q 429 557 497 557 q 368 547 396 557 q 319 518 340 536 q 286 476 299 500 q 272 425 274 451 l 565 425 m 775 338 q 775 310 775 324 q 774 283 775 296 l 272 283 q 290 231 275 254 q 327 190 304 207 q 378 163 350 172 q 438 153 407 153 q 529 173 492 153 q 590 225 567 193 l 749 125 q 620 16 700 54 q 435 -22 540 -22 q 288 2 357 -22 q 166 73 218 26 q 84 188 114 119 q 54 343 54 256 q 83 497 54 428 q 163 613 113 565 q 281 688 213 661 q 428 714 349 714 q 568 688 504 714 q 678 614 632 663 q 749 496 724 565 q 775 338 775 426 m 557 913 q 521 828 557 863 q 432 794 485 794 q 344 829 379 794 q 308 913 308 864 q 344 997 308 961 q 432 1032 379 1032 q 521 997 485 1032 q 557 913 557 963 z "},"Ę":{"ha":843,"x_min":101,"x_max":811,"o":"m 811 -272 q 738 -312 779 -296 q 651 -328 696 -328 q 595 -321 624 -328 q 544 -299 567 -314 q 508 -259 522 -283 q 494 -201 494 -235 q 508 -144 494 -172 q 541 -89 521 -115 q 586 -40 561 -62 q 636 0 611 -18 l 101 0 l 101 983 l 763 983 l 763 782 l 331 782 l 331 597 l 739 597 l 739 407 l 331 407 l 331 203 l 788 203 l 788 0 l 764 0 q 675 -85 711 -42 q 639 -164 639 -128 q 653 -200 639 -186 q 690 -214 668 -214 q 729 -206 710 -214 q 767 -186 749 -199 l 811 -272 l 811 -272 z "},"ę":{"ha":828,"x_min":54,"x_max":775,"o":"m 603 -272 q 529 -312 571 -296 q 443 -328 488 -328 q 387 -321 415 -328 q 336 -299 358 -314 q 300 -259 314 -283 q 286 -201 286 -235 q 322 -103 286 -150 q 400 -21 357 -57 q 265 10 328 -17 q 155 83 201 36 q 81 194 108 129 q 54 343 54 260 q 83 497 54 428 q 163 613 113 565 q 281 688 213 661 q 428 714 349 714 q 568 688 504 714 q 678 614 632 663 q 749 496 724 565 q 775 338 775 426 q 775 310 775 324 q 774 283 775 296 l 272 283 q 290 231 275 254 q 327 190 304 207 q 378 163 350 172 q 438 153 407 153 q 529 173 492 153 q 590 225 567 193 l 749 125 q 542 -10 678 19 q 463 -90 494 -50 q 431 -164 431 -129 q 445 -200 431 -186 q 482 -214 460 -214 q 521 -206 501 -214 q 558 -186 540 -199 l 603 -272 m 565 425 q 531 518 565 479 q 429 557 497 557 q 368 547 396 557 q 319 518 340 536 q 286 476 299 500 q 272 425 274 451 l 565 425 z "},"Ě":{"ha":843,"x_min":101,"x_max":788,"o":"m 101 0 l 101 983 l 763 983 l 763 782 l 331 782 l 331 597 l 739 597 l 739 407 l 331 407 l 331 203 l 788 203 l 788 0 l 101 0 m 535 1061 l 331 1061 l 158 1261 l 339 1261 l 433 1149 l 528 1261 l 706 1261 l 535 1061 z "},"ě":{"ha":828,"x_min":54,"x_max":775,"o":"m 565 425 q 531 518 565 479 q 429 557 497 557 q 368 547 396 557 q 319 518 340 536 q 286 476 299 500 q 272 425 274 451 l 565 425 m 775 338 q 775 310 775 324 q 774 283 775 296 l 272 283 q 290 231 275 254 q 327 190 304 207 q 378 163 350 172 q 438 153 407 153 q 529 173 492 153 q 590 225 567 193 l 749 125 q 620 16 700 54 q 435 -22 540 -22 q 288 2 357 -22 q 166 73 218 26 q 84 188 114 119 q 54 343 54 256 q 83 497 54 428 q 163 613 113 565 q 281 688 213 661 q 428 714 349 714 q 568 688 504 714 q 678 614 632 663 q 749 496 724 565 q 775 338 775 426 m 536 794 l 332 794 l 160 994 l 340 994 l 435 882 l 529 994 l 707 994 l 536 794 z "},"Ĝ":{"ha":1068,"x_min":56,"x_max":975,"o":"m 975 60 q 806 -1 903 22 q 596 -25 710 -25 q 378 13 478 -25 q 208 118 279 50 q 96 281 136 186 q 56 493 56 376 q 97 707 56 611 q 210 870 138 803 q 379 974 282 938 q 589 1010 476 1010 q 806 974 706 1010 q 968 879 906 939 l 818 708 q 726 774 783 749 q 597 800 669 800 q 482 777 535 800 q 390 713 429 754 q 330 616 351 672 q 308 493 308 560 q 328 368 308 425 q 385 270 347 311 q 480 206 424 229 q 608 183 536 183 q 688 190 650 183 q 757 210 725 196 l 757 389 l 569 389 l 569 581 l 975 581 l 975 60 m 693 1061 l 599 1174 l 504 1061 l 326 1061 l 499 1261 l 704 1261 l 874 1061 l 693 1061 z "},"ĝ":{"ha":914,"x_min":54,"x_max":822,"o":"m 822 65 q 793 -111 822 -36 q 711 -235 764 -186 q 583 -309 658 -285 q 415 -333 507 -333 q 227 -306 324 -333 q 60 -225 131 -278 l 174 -62 q 284 -128 224 -107 q 403 -150 344 -150 q 551 -97 503 -150 q 599 43 599 -44 l 599 85 l 594 85 q 508 18 563 43 q 385 -7 454 -7 q 244 22 306 -7 q 141 99 183 50 q 76 212 99 147 q 54 349 54 276 q 76 486 54 421 q 141 601 99 551 q 244 681 183 651 q 383 711 306 711 q 508 685 449 711 q 604 603 568 658 l 607 603 l 607 692 l 822 692 l 822 65 m 606 350 q 594 417 606 385 q 560 473 582 449 q 507 511 538 497 q 438 525 476 525 q 369 511 399 525 q 318 474 339 497 q 286 418 297 450 q 275 350 275 386 q 286 283 275 315 q 318 227 297 251 q 369 188 339 203 q 438 174 399 174 q 508 188 476 174 q 560 226 539 203 q 594 282 582 250 q 606 350 606 314 m 538 794 l 443 907 l 349 794 l 171 794 l 343 994 l 549 994 l 718 794 l 538 794 z "},"Ğ":{"ha":1068,"x_min":56,"x_max":975,"o":"m 975 60 q 806 -1 903 22 q 596 -25 710 -25 q 378 13 478 -25 q 208 118 279 50 q 96 281 136 186 q 56 493 56 376 q 97 707 56 611 q 210 870 138 803 q 379 974 282 938 q 589 1010 476 1010 q 806 974 706 1010 q 968 879 906 939 l 818 708 q 726 774 783 749 q 597 800 669 800 q 482 777 535 800 q 390 713 429 754 q 330 616 351 672 q 308 493 308 560 q 328 368 308 425 q 385 270 347 311 q 480 206 424 229 q 608 183 536 183 q 688 190 650 183 q 757 210 725 196 l 757 389 l 569 389 l 569 581 l 975 581 l 975 60 m 847 1261 q 822 1169 843 1207 q 769 1107 801 1131 q 695 1072 738 1083 q 604 1061 653 1061 q 515 1072 557 1061 q 440 1106 472 1082 q 388 1169 408 1131 q 364 1261 368 1207 l 481 1261 q 497 1224 485 1239 q 526 1201 508 1210 q 564 1188 543 1192 q 606 1185 585 1185 q 687 1199 653 1185 q 731 1261 721 1213 l 847 1261 z "},"ğ":{"ha":914,"x_min":54,"x_max":822,"o":"m 822 65 q 793 -111 822 -36 q 711 -235 764 -186 q 583 -309 658 -285 q 415 -333 507 -333 q 227 -306 324 -333 q 60 -225 131 -278 l 174 -62 q 284 -128 224 -107 q 403 -150 344 -150 q 551 -97 503 -150 q 599 43 599 -44 l 599 85 l 594 85 q 508 18 563 43 q 385 -7 454 -7 q 244 22 306 -7 q 141 99 183 50 q 76 212 99 147 q 54 349 54 276 q 76 486 54 421 q 141 601 99 551 q 244 681 183 651 q 383 711 306 711 q 508 685 449 711 q 604 603 568 658 l 607 603 l 607 692 l 822 692 l 822 65 m 606 350 q 594 417 606 385 q 560 473 582 449 q 507 511 538 497 q 438 525 476 525 q 369 511 399 525 q 318 474 339 497 q 286 418 297 450 q 275 350 275 386 q 286 283 275 315 q 318 227 297 251 q 369 188 339 203 q 438 174 399 174 q 508 188 476 174 q 560 226 539 203 q 594 282 582 250 q 606 350 606 314 m 693 994 q 668 902 689 940 q 615 840 647 864 q 541 806 583 817 q 450 794 499 794 q 360 805 403 794 q 286 840 318 815 q 234 902 254 864 q 210 994 214 940 l 326 994 q 371 933 335 954 q 410 922 389 925 q 451 918 431 918 q 533 932 499 918 q 576 994 567 946 l 693 994 z "},"Ġ":{"ha":1068,"x_min":56,"x_max":975,"o":"m 975 60 q 806 -1 903 22 q 596 -25 710 -25 q 378 13 478 -25 q 208 118 279 50 q 96 281 136 186 q 56 493 56 376 q 97 707 56 611 q 210 870 138 803 q 379 974 282 938 q 589 1010 476 1010 q 806 974 706 1010 q 968 879 906 939 l 818 708 q 726 774 783 749 q 597 800 669 800 q 482 777 535 800 q 390 713 429 754 q 330 616 351 672 q 308 493 308 560 q 328 368 308 425 q 385 270 347 311 q 480 206 424 229 q 608 183 536 183 q 688 190 650 183 q 757 210 725 196 l 757 389 l 569 389 l 569 581 l 975 581 l 975 60 m 724 1179 q 688 1095 724 1129 q 599 1061 651 1061 q 510 1096 546 1061 q 475 1179 475 1131 q 510 1263 475 1228 q 599 1299 546 1299 q 688 1264 651 1299 q 724 1179 724 1229 z "},"ġ":{"ha":914,"x_min":54,"x_max":822,"o":"m 822 65 q 793 -111 822 -36 q 711 -235 764 -186 q 583 -309 658 -285 q 415 -333 507 -333 q 227 -306 324 -333 q 60 -225 131 -278 l 174 -62 q 284 -128 224 -107 q 403 -150 344 -150 q 551 -97 503 -150 q 599 43 599 -44 l 599 85 l 594 85 q 508 18 563 43 q 385 -7 454 -7 q 244 22 306 -7 q 141 99 183 50 q 76 212 99 147 q 54 349 54 276 q 76 486 54 421 q 141 601 99 551 q 244 681 183 651 q 383 711 306 711 q 508 685 449 711 q 604 603 568 658 l 607 603 l 607 692 l 822 692 l 822 65 m 606 350 q 594 417 606 385 q 560 473 582 449 q 507 511 538 497 q 438 525 476 525 q 369 511 399 525 q 318 474 339 497 q 286 418 297 450 q 275 350 275 386 q 286 283 275 315 q 318 227 297 251 q 369 188 339 203 q 438 174 399 174 q 508 188 476 174 q 560 226 539 203 q 594 282 582 250 q 606 350 606 314 m 571 913 q 535 828 571 863 q 446 794 499 794 q 358 829 393 794 q 322 913 322 864 q 358 997 322 961 q 446 1032 393 1032 q 535 997 499 1032 q 571 913 571 963 z "},"Ģ":{"ha":1068,"x_min":56,"x_max":975,"o":"m 975 60 q 806 -1 903 22 q 596 -25 710 -25 q 378 13 478 -25 q 208 118 279 50 q 96 281 136 186 q 56 493 56 376 q 97 707 56 611 q 210 870 138 803 q 379 974 282 938 q 589 1010 476 1010 q 806 974 706 1010 q 968 879 906 939 l 818 708 q 726 774 783 749 q 597 800 669 800 q 482 777 535 800 q 390 713 429 754 q 330 616 351 672 q 308 493 308 560 q 328 368 308 425 q 385 270 347 311 q 480 206 424 229 q 608 183 536 183 q 688 190 650 183 q 757 210 725 196 l 757 389 l 569 389 l 569 581 l 975 581 l 975 60 m 583 -333 l 408 -333 l 501 -62 l 703 -62 l 583 -333 z "},"ģ":{"ha":914,"x_min":54,"x_max":822,"o":"m 822 65 q 793 -111 822 -36 q 711 -235 764 -186 q 583 -309 658 -285 q 415 -333 507 -333 q 227 -306 324 -333 q 60 -225 131 -278 l 174 -62 q 284 -128 224 -107 q 403 -150 344 -150 q 551 -97 503 -150 q 599 43 599 -44 l 599 85 l 594 85 q 508 18 563 43 q 385 -7 454 -7 q 244 22 306 -7 q 141 99 183 50 q 76 212 99 147 q 54 349 54 276 q 76 486 54 421 q 141 601 99 551 q 244 681 183 651 q 383 711 306 711 q 508 685 449 711 q 604 603 568 658 l 607 603 l 607 692 l 822 692 l 822 65 m 606 350 q 594 417 606 385 q 560 473 582 449 q 507 511 538 497 q 438 525 476 525 q 369 511 399 525 q 318 474 339 497 q 286 418 297 450 q 275 350 275 386 q 286 283 275 315 q 318 227 297 251 q 369 188 339 203 q 438 174 399 174 q 508 188 476 174 q 560 226 539 203 q 594 282 582 250 q 606 350 606 314 m 463 1065 l 638 1065 l 544 794 l 343 794 l 463 1065 z "},"Ĥ":{"ha":1061,"x_min":101,"x_max":960,"o":"m 722 0 l 722 411 l 339 411 l 339 0 l 101 0 l 101 983 l 339 983 l 339 611 l 722 611 l 722 983 l 960 983 l 960 0 l 722 0 m 628 1061 l 533 1174 l 439 1061 l 261 1061 l 433 1261 l 639 1261 l 808 1061 l 628 1061 z "},"ĥ":{"ha":857,"x_min":92,"x_max":774,"o":"m 544 0 l 544 375 q 540 431 544 404 q 524 477 536 457 q 493 509 513 497 q 443 521 474 521 q 351 478 383 521 q 319 374 319 436 l 319 0 l 92 0 l 92 1050 l 319 1050 l 319 604 l 322 604 q 397 678 346 646 q 521 711 449 711 q 640 686 592 711 q 717 622 688 661 q 760 531 747 582 q 774 428 774 479 l 774 0 l 544 0 m 531 1106 l 436 1218 l 342 1106 l 164 1106 l 336 1306 l 542 1306 l 711 1106 l 531 1106 z "},"Ħ":{"ha":1061,"x_min":101,"x_max":960,"o":"m 722 0 l 722 411 l 339 411 l 339 0 l 101 0 l 101 983 l 339 983 l 339 818 l 722 818 l 722 983 l 960 983 l 960 0 l 722 0 m 722 611 l 722 694 l 339 694 l 339 611 l 722 611 z "},"ħ":{"ha":857,"x_min":28,"x_max":774,"o":"m 544 0 l 544 375 q 540 431 544 404 q 524 477 536 457 q 493 509 513 497 q 443 521 474 521 q 351 478 383 521 q 319 374 319 436 l 319 0 l 92 0 l 92 792 l 28 792 l 28 915 l 92 915 l 92 1050 l 319 1050 l 319 915 l 526 915 l 526 792 l 319 792 l 319 604 l 322 604 q 397 678 346 646 q 521 711 449 711 q 640 686 592 711 q 717 622 688 661 q 760 531 747 582 q 774 428 774 479 l 774 0 l 544 0 z "},"Ĩ":{"ha":442,"x_min":-36,"x_max":479,"o":"m 101 0 l 101 983 l 340 983 l 340 0 l 101 0 m 479 1250 q 464 1181 475 1214 q 434 1122 453 1147 q 388 1082 415 1097 q 322 1067 360 1067 q 265 1075 293 1067 q 210 1096 238 1083 q 162 1117 182 1111 q 122 1124 142 1124 q 84 1107 97 1124 q 64 1068 71 1090 l -36 1068 q -21 1137 -32 1104 q 9 1194 -10 1169 q 56 1234 28 1219 q 121 1249 83 1249 q 177 1241 150 1249 q 232 1221 204 1233 q 282 1200 261 1207 q 322 1193 303 1193 q 361 1209 349 1193 q 381 1250 374 1225 l 479 1250 z "},"ĩ":{"ha":411,"x_min":-50,"x_max":465,"o":"m 92 0 l 92 692 l 319 692 l 319 0 l 92 0 m 465 983 q 450 914 461 947 q 420 856 439 881 q 374 815 401 831 q 308 800 346 800 q 251 808 279 800 q 196 829 224 817 q 148 851 168 844 q 108 857 128 857 q 70 840 83 857 q 50 801 57 824 l -50 801 q -35 870 -46 838 q -5 928 -24 903 q 42 967 14 953 q 107 982 69 982 q 163 974 136 982 q 218 954 190 967 q 268 933 247 940 q 308 926 289 926 q 347 942 335 926 q 367 983 360 958 l 465 983 z "},"Ī":{"ha":442,"x_min":-14,"x_max":453,"o":"m 101 0 l 101 983 l 340 983 l 340 0 l 101 0 m -14 1101 l -14 1221 l 453 1221 l 453 1101 l -14 1101 z "},"ī":{"ha":411,"x_min":-25,"x_max":442,"o":"m 92 0 l 92 692 l 319 692 l 319 0 l 92 0 m -25 835 l -25 954 l 442 954 l 442 835 l -25 835 z "},"Į":{"ha":442,"x_min":56,"x_max":372,"o":"m 372 -272 q 299 -312 340 -296 q 213 -328 257 -328 q 156 -321 185 -328 q 106 -299 128 -314 q 69 -259 83 -283 q 56 -201 56 -235 q 69 -144 56 -172 q 102 -89 82 -115 q 147 -40 122 -62 q 197 0 172 -18 l 101 0 l 101 983 l 340 983 l 340 0 l 325 0 q 236 -85 272 -42 q 200 -164 200 -128 q 215 -200 200 -186 q 251 -214 229 -214 q 290 -206 271 -214 q 328 -186 310 -199 l 372 -272 l 372 -272 z "},"į":{"ha":411,"x_min":29,"x_max":346,"o":"m 346 -272 q 272 -312 314 -296 q 186 -328 231 -328 q 130 -321 158 -328 q 79 -299 101 -314 q 43 -259 57 -283 q 29 -201 29 -235 q 42 -144 29 -172 q 76 -89 56 -115 q 121 -40 96 -62 q 171 0 146 -18 l 92 0 l 92 692 l 319 692 l 319 0 l 299 0 q 210 -85 246 -42 q 174 -164 174 -128 q 188 -200 174 -186 q 225 -214 203 -214 q 264 -206 244 -214 q 301 -186 283 -199 l 346 -272 m 336 913 q 326 863 336 886 q 298 824 315 840 q 256 797 281 807 q 206 788 232 788 q 113 824 150 788 q 75 913 75 861 q 85 960 75 938 q 113 1000 94 983 q 154 1027 131 1017 q 206 1038 178 1038 q 256 1028 232 1038 q 298 1001 281 1018 q 326 962 315 985 q 336 913 336 939 z "},"İ":{"ha":442,"x_min":97,"x_max":346,"o":"m 101 0 l 101 983 l 340 983 l 340 0 l 101 0 m 346 1179 q 310 1095 346 1129 q 221 1061 274 1061 q 133 1096 168 1061 q 97 1179 97 1131 q 133 1263 97 1228 q 221 1299 168 1299 q 310 1264 274 1299 q 346 1179 346 1229 z "},"ı":{"ha":411,"x_min":92,"x_max":319,"o":"m 92 0 l 92 692 l 319 692 l 319 0 l 92 0 z "},"Ĳ":{"ha":1163,"x_min":101,"x_max":1067,"o":"m 101 0 l 101 983 l 340 983 l 340 0 l 101 0 m 1067 336 q 1053 214 1067 278 q 1005 97 1040 150 q 906 8 969 43 q 743 -26 843 -26 q 535 38 618 -26 q 424 204 451 103 l 633 275 q 669 213 643 236 q 732 189 694 189 q 809 229 790 189 q 828 335 828 269 l 828 983 l 1067 983 l 1067 336 z "},"ĳ":{"ha":818,"x_min":75,"x_max":743,"o":"m 336 913 q 326 863 336 886 q 298 824 315 840 q 256 797 281 807 q 206 788 232 788 q 113 824 150 788 q 75 913 75 861 q 85 960 75 938 q 113 1000 94 983 q 154 1027 131 1017 q 206 1038 178 1038 q 256 1028 232 1038 q 298 1001 281 1018 q 326 962 315 985 q 336 913 336 939 m 92 0 l 92 692 l 319 692 l 319 0 l 92 0 m 743 913 q 733 863 743 886 q 705 824 722 840 q 663 797 688 807 q 613 788 639 788 q 519 824 557 788 q 482 913 482 861 q 492 960 482 938 q 519 1000 501 983 q 561 1027 538 1017 q 613 1038 585 1038 q 663 1028 639 1038 q 705 1001 688 1018 q 733 962 722 985 q 743 913 743 939 m 726 -18 q 715 -140 726 -82 q 672 -240 703 -197 q 588 -308 642 -283 q 450 -333 533 -333 q 399 -331 426 -333 q 351 -322 371 -328 l 367 -132 q 392 -137 379 -136 q 415 -139 406 -139 q 482 -105 465 -139 q 499 -18 499 -71 l 499 692 l 726 692 l 726 -18 z "},"Ĵ":{"ha":735,"x_min":-4,"x_max":792,"o":"m 639 336 q 626 214 639 278 q 577 97 613 150 q 478 8 542 43 q 315 -26 415 -26 q 107 38 190 -26 q -4 204 24 103 l 206 275 q 241 213 215 236 q 304 189 267 189 q 381 229 363 189 q 400 335 400 269 l 400 983 l 639 983 l 639 336 m 611 1061 l 517 1174 l 422 1061 l 244 1061 l 417 1261 l 622 1261 l 792 1061 l 611 1061 z "},"ĵ":{"ha":415,"x_min":-67,"x_max":481,"o":"m 324 -18 q 312 -140 324 -82 q 269 -240 300 -197 q 185 -308 239 -283 q 47 -333 131 -333 q -4 -331 24 -333 q -51 -322 -32 -328 l -36 -132 q -10 -137 -24 -136 q 13 -139 3 -139 q 79 -105 63 -139 q 96 -18 96 -71 l 96 692 l 324 692 l 324 -18 m 300 794 l 206 907 l 111 794 l -67 794 l 106 994 l 311 994 l 481 794 l 300 794 z "},"Ķ":{"ha":988,"x_min":101,"x_max":1013,"o":"m 703 0 l 338 453 l 335 453 l 335 0 l 101 0 l 101 983 l 335 983 l 335 583 l 339 583 l 690 983 l 988 983 l 564 531 l 1013 0 l 703 0 m 496 -333 l 321 -333 l 414 -62 l 615 -62 l 496 -333 z "},"ķ":{"ha":826,"x_min":90,"x_max":832,"o":"m 832 0 l 550 0 l 324 332 l 319 332 l 319 0 l 90 0 l 90 1050 l 319 1050 l 319 411 l 324 411 l 544 692 l 821 692 l 554 379 l 832 0 m 415 -333 l 240 -333 l 333 -62 l 535 -62 l 415 -333 z "},"Ĺ":{"ha":731,"x_min":101,"x_max":721,"o":"m 101 0 l 101 983 l 340 983 l 340 207 l 721 207 l 721 0 l 101 0 m 304 1061 l 132 1061 l 276 1261 l 507 1261 l 304 1061 z "},"ĺ":{"ha":414,"x_min":92,"x_max":467,"o":"m 92 0 l 92 1050 l 322 1050 l 322 0 l 92 0 m 264 1100 l 92 1100 l 236 1300 l 467 1300 l 264 1100 z "},"Ļ":{"ha":731,"x_min":101,"x_max":721,"o":"m 101 0 l 101 983 l 340 983 l 340 207 l 721 207 l 721 0 l 101 0 m 389 -333 l 214 -333 l 307 -62 l 508 -62 l 389 -333 z "},"ļ":{"ha":414,"x_min":15,"x_max":322,"o":"m 92 0 l 92 1050 l 322 1050 l 322 0 l 92 0 m 190 -333 l 15 -333 l 108 -62 l 310 -62 l 190 -333 z "},"Ľ":{"ha":731,"x_min":101,"x_max":721,"o":"m 101 0 l 101 983 l 340 983 l 340 207 l 721 207 l 721 0 l 101 0 m 556 713 l 381 713 l 474 983 l 675 983 l 556 713 z "},"ľ":{"ha":414,"x_min":92,"x_max":657,"o":"m 92 0 l 92 1050 l 322 1050 l 322 0 l 92 0 m 538 713 l 363 713 l 456 983 l 657 983 l 538 713 z "},"Ŀ":{"ha":731,"x_min":101,"x_max":721,"o":"m 101 0 l 101 983 l 340 983 l 340 207 l 721 207 l 721 0 l 101 0 m 706 482 q 669 398 706 432 q 581 364 633 364 q 492 399 528 364 q 457 482 457 433 q 492 566 457 531 q 581 601 528 601 q 669 567 633 601 q 706 482 706 532 z "},"ŀ":{"ha":622,"x_min":92,"x_max":639,"o":"m 92 0 l 92 1050 l 322 1050 l 322 0 l 92 0 m 639 468 q 603 384 639 418 q 514 350 567 350 q 426 385 461 350 q 390 468 390 419 q 426 552 390 517 q 514 588 461 588 q 603 553 567 588 q 639 468 639 518 z "},"Ł":{"ha":731,"x_min":13,"x_max":721,"o":"m 101 0 l 101 246 l 13 168 l 13 365 l 101 443 l 101 983 l 340 983 l 340 619 l 606 851 l 606 656 l 340 424 l 340 207 l 721 207 l 721 0 l 101 0 z "},"ł":{"ha":414,"x_min":11,"x_max":403,"o":"m 322 553 l 322 0 l 92 0 l 92 371 l 11 293 l 11 492 l 92 571 l 92 1050 l 322 1050 l 322 749 l 403 828 l 403 631 l 322 553 z "},"Ń":{"ha":1097,"x_min":101,"x_max":996,"o":"m 726 0 l 331 643 l 326 643 l 332 0 l 101 0 l 101 983 l 372 983 l 767 342 l 771 342 l 765 983 l 996 983 l 996 0 l 726 0 m 614 1061 l 442 1061 l 586 1261 l 817 1261 l 614 1061 z "},"ń":{"ha":856,"x_min":89,"x_max":772,"o":"m 543 0 l 543 378 q 538 433 543 407 q 522 480 533 460 q 491 512 511 500 q 440 524 471 524 q 387 512 410 524 q 349 479 364 500 q 326 431 333 458 q 318 375 318 404 l 318 0 l 89 0 l 89 692 l 310 692 l 310 596 l 313 596 q 345 640 325 618 q 392 676 365 661 q 451 701 419 692 q 519 711 483 711 q 638 686 589 711 q 716 622 686 661 q 759 531 746 582 q 772 428 772 479 l 772 0 l 543 0 m 469 794 l 297 794 l 442 994 l 672 994 l 469 794 z "},"Ņ":{"ha":1097,"x_min":101,"x_max":996,"o":"m 726 0 l 331 643 l 326 643 l 332 0 l 101 0 l 101 983 l 372 983 l 767 342 l 771 342 l 765 983 l 996 983 l 996 0 l 726 0 m 526 -333 l 351 -333 l 444 -62 l 646 -62 l 526 -333 z "},"ņ":{"ha":856,"x_min":89,"x_max":772,"o":"m 543 0 l 543 378 q 538 433 543 407 q 522 480 533 460 q 491 512 511 500 q 440 524 471 524 q 387 512 410 524 q 349 479 364 500 q 326 431 333 458 q 318 375 318 404 l 318 0 l 89 0 l 89 692 l 310 692 l 310 596 l 313 596 q 345 640 325 618 q 392 676 365 661 q 451 701 419 692 q 519 711 483 711 q 638 686 589 711 q 716 622 686 661 q 759 531 746 582 q 772 428 772 479 l 772 0 l 543 0 m 407 -333 l 232 -333 l 325 -62 l 526 -62 l 407 -333 z "},"Ň":{"ha":1097,"x_min":101,"x_max":996,"o":"m 726 0 l 331 643 l 326 643 l 332 0 l 101 0 l 101 983 l 372 983 l 767 342 l 771 342 l 765 983 l 996 983 l 996 0 l 726 0 m 656 1061 l 451 1061 l 279 1261 l 460 1261 l 554 1149 l 649 1261 l 826 1261 l 656 1061 z "},"ň":{"ha":856,"x_min":89,"x_max":772,"o":"m 543 0 l 543 378 q 538 433 543 407 q 522 480 533 460 q 491 512 511 500 q 440 524 471 524 q 387 512 410 524 q 349 479 364 500 q 326 431 333 458 q 318 375 318 404 l 318 0 l 89 0 l 89 692 l 310 692 l 310 596 l 313 596 q 345 640 325 618 q 392 676 365 661 q 451 701 419 692 q 519 711 483 711 q 638 686 589 711 q 716 622 686 661 q 759 531 746 582 q 772 428 772 479 l 772 0 l 543 0 m 533 794 l 329 794 l 157 994 l 338 994 l 432 882 l 526 994 l 704 994 l 533 794 z "},"ŉ":{"ha":981,"x_min":-12,"x_max":897,"o":"m 668 0 l 668 378 q 663 433 668 407 q 647 480 658 460 q 616 512 636 500 q 565 524 596 524 q 512 512 535 524 q 474 479 489 500 q 451 431 458 458 q 443 375 443 404 l 443 0 l 214 0 l 214 692 l 435 692 l 435 596 l 438 596 q 470 640 450 618 q 517 676 490 661 q 576 701 544 692 q 644 711 608 711 q 763 686 714 711 q 841 622 811 661 q 884 531 871 582 q 897 428 897 479 l 897 0 l 668 0 m 163 713 l -12 713 l 81 983 l 282 983 l 163 713 z "},"Ō":{"ha":1182,"x_min":56,"x_max":1126,"o":"m 1126 496 q 1086 283 1126 379 q 974 117 1046 186 q 804 11 903 49 q 590 -26 706 -26 q 377 11 475 -26 q 208 117 279 49 q 96 283 136 186 q 56 496 56 379 q 96 709 56 614 q 208 871 136 804 q 377 974 279 938 q 590 1010 475 1010 q 804 974 706 1010 q 974 871 903 938 q 1086 709 1046 804 q 1126 496 1126 614 m 872 496 q 851 615 872 560 q 794 710 831 671 q 705 773 757 750 q 590 796 653 796 q 476 773 528 796 q 388 710 425 750 q 330 615 350 671 q 310 496 310 560 q 331 373 310 429 q 388 276 351 317 q 476 213 425 236 q 590 190 528 190 q 704 213 653 190 q 793 276 756 236 q 851 373 831 317 q 872 496 872 429 m 354 1101 l 354 1221 l 821 1221 l 821 1101 l 354 1101 z "},"ō":{"ha":878,"x_min":54,"x_max":822,"o":"m 822 349 q 792 195 822 264 q 708 78 761 126 q 586 4 656 31 q 438 -22 517 -22 q 290 4 360 -22 q 167 78 219 31 q 85 195 115 126 q 54 349 54 264 q 85 501 54 433 q 167 617 115 569 q 290 689 219 664 q 438 714 360 714 q 586 689 517 714 q 708 617 656 664 q 792 501 761 569 q 822 349 822 433 m 603 349 q 592 414 603 382 q 560 470 581 446 q 508 510 539 494 q 438 525 478 525 q 367 510 397 525 q 316 470 336 494 q 285 414 296 446 q 275 349 275 382 q 285 283 275 315 q 317 226 296 251 q 368 185 338 200 q 439 169 399 169 q 510 185 479 169 q 561 226 540 200 q 592 283 582 251 q 603 349 603 315 m 204 835 l 204 954 l 671 954 l 671 835 l 204 835 z "},"Ŏ":{"ha":1182,"x_min":56,"x_max":1126,"o":"m 1126 496 q 1086 283 1126 379 q 974 117 1046 186 q 804 11 903 49 q 590 -26 706 -26 q 377 11 475 -26 q 208 117 279 49 q 96 283 136 186 q 56 496 56 379 q 96 709 56 614 q 208 871 136 804 q 377 974 279 938 q 590 1010 475 1010 q 804 974 706 1010 q 974 871 903 938 q 1086 709 1046 804 q 1126 496 1126 614 m 872 496 q 851 615 872 560 q 794 710 831 671 q 705 773 757 750 q 590 796 653 796 q 476 773 528 796 q 388 710 425 750 q 330 615 350 671 q 310 496 310 560 q 331 373 310 429 q 388 276 351 317 q 476 213 425 236 q 590 190 528 190 q 704 213 653 190 q 793 276 756 236 q 851 373 831 317 q 872 496 872 429 m 831 1261 q 806 1169 826 1207 q 753 1107 785 1131 q 678 1072 721 1083 q 588 1061 636 1061 q 498 1072 540 1061 q 424 1106 456 1082 q 372 1169 392 1131 q 347 1261 351 1207 l 464 1261 q 480 1224 468 1239 q 509 1201 492 1210 q 547 1188 526 1192 q 589 1185 568 1185 q 670 1199 636 1185 q 714 1261 704 1213 l 831 1261 z "},"ŏ":{"ha":878,"x_min":54,"x_max":822,"o":"m 822 349 q 792 195 822 264 q 708 78 761 126 q 586 4 656 31 q 438 -22 517 -22 q 290 4 360 -22 q 167 78 219 31 q 85 195 115 126 q 54 349 54 264 q 85 501 54 433 q 167 617 115 569 q 290 689 219 664 q 438 714 360 714 q 586 689 517 714 q 708 617 656 664 q 792 501 761 569 q 822 349 822 433 m 603 349 q 592 414 603 382 q 560 470 581 446 q 508 510 539 494 q 438 525 478 525 q 367 510 397 525 q 316 470 336 494 q 285 414 296 446 q 275 349 275 382 q 285 283 275 315 q 317 226 296 251 q 368 185 338 200 q 439 169 399 169 q 510 185 479 169 q 561 226 540 200 q 592 283 582 251 q 603 349 603 315 m 678 994 q 653 902 674 940 q 600 840 632 864 q 526 806 568 817 q 435 794 483 794 q 345 805 388 794 q 271 840 303 815 q 219 902 239 864 q 194 994 199 940 l 311 994 q 356 933 319 954 q 394 922 374 925 q 436 918 415 918 q 517 932 483 918 q 561 994 551 946 l 678 994 z "},"Ő":{"ha":1182,"x_min":56,"x_max":1126,"o":"m 1126 496 q 1086 283 1126 379 q 974 117 1046 186 q 804 11 903 49 q 590 -26 706 -26 q 377 11 475 -26 q 208 117 279 49 q 96 283 136 186 q 56 496 56 379 q 96 709 56 614 q 208 871 136 804 q 377 974 279 938 q 590 1010 475 1010 q 804 974 706 1010 q 974 871 903 938 q 1086 709 1046 804 q 1126 496 1126 614 m 872 496 q 851 615 872 560 q 794 710 831 671 q 705 773 757 750 q 590 796 653 796 q 476 773 528 796 q 388 710 425 750 q 330 615 350 671 q 310 496 310 560 q 331 373 310 429 q 388 276 351 317 q 476 213 425 236 q 590 190 528 190 q 704 213 653 190 q 793 276 756 236 q 851 373 831 317 q 872 496 872 429 m 818 1061 l 646 1061 l 790 1261 l 1021 1261 l 818 1061 m 513 1061 l 340 1061 l 485 1261 l 715 1261 l 513 1061 z "},"ő":{"ha":878,"x_min":54,"x_max":879,"o":"m 822 349 q 792 195 822 264 q 708 78 761 126 q 586 4 656 31 q 438 -22 517 -22 q 290 4 360 -22 q 167 78 219 31 q 85 195 115 126 q 54 349 54 264 q 85 501 54 433 q 167 617 115 569 q 290 689 219 664 q 438 714 360 714 q 586 689 517 714 q 708 617 656 664 q 792 501 761 569 q 822 349 822 433 m 603 349 q 592 414 603 382 q 560 470 581 446 q 508 510 539 494 q 438 525 478 525 q 367 510 397 525 q 316 470 336 494 q 285 414 296 446 q 275 349 275 382 q 285 283 275 315 q 317 226 296 251 q 368 185 338 200 q 439 169 399 169 q 510 185 479 169 q 561 226 540 200 q 592 283 582 251 q 603 349 603 315 m 676 794 l 504 794 l 649 994 l 879 994 l 676 794 m 371 794 l 199 794 l 343 994 l 574 994 l 371 794 z "},"Œ":{"ha":1415,"x_min":56,"x_max":1360,"o":"m 614 0 q 410 27 510 0 q 231 113 310 54 q 103 266 151 172 q 56 493 56 360 q 103 722 56 628 q 231 874 151 815 q 410 958 310 932 q 614 983 510 983 l 1336 983 l 1336 782 l 922 782 l 922 597 l 1313 597 l 1313 407 l 922 407 l 922 203 l 1360 203 l 1360 0 l 614 0 m 696 782 l 632 782 q 511 768 569 782 q 408 721 453 754 q 335 631 363 688 q 308 489 308 575 q 335 356 308 410 q 408 267 363 301 q 510 218 453 233 q 626 203 567 203 l 696 203 l 696 782 z "},"œ":{"ha":1351,"x_min":54,"x_max":1299,"o":"m 275 349 q 285 283 275 315 q 316 225 296 250 q 367 185 336 200 q 438 169 397 169 q 508 185 478 169 q 560 225 539 200 q 591 283 581 250 q 601 349 601 315 q 591 413 601 382 q 560 469 581 444 q 508 510 539 494 q 438 525 478 525 q 367 510 397 525 q 316 469 336 494 q 285 413 296 444 q 275 349 275 382 m 1089 425 q 1055 518 1089 479 q 953 557 1021 557 q 892 547 919 557 q 843 518 864 536 q 810 476 822 500 q 796 425 797 451 l 1089 425 m 1271 125 q 1143 16 1222 54 q 958 -22 1064 -22 q 801 10 871 -22 q 693 93 732 42 q 587 9 653 40 q 435 -22 521 -22 q 287 3 356 -22 q 166 78 218 29 q 84 194 114 126 q 54 349 54 263 q 84 501 54 433 q 166 615 114 568 q 287 688 218 663 q 435 714 356 714 q 588 680 519 714 q 694 593 656 646 q 803 679 738 644 q 954 714 869 714 q 1092 688 1029 714 q 1201 614 1156 663 q 1273 496 1247 565 q 1299 338 1299 426 q 1299 310 1299 324 q 1297 283 1299 296 l 796 283 q 815 230 800 254 q 851 189 829 206 q 902 163 874 172 q 961 153 931 153 q 1053 173 1015 153 q 1114 225 1090 193 l 1271 125 z "},"Ŕ":{"ha":921,"x_min":101,"x_max":906,"o":"m 628 0 l 415 390 l 335 390 l 335 0 l 101 0 l 101 983 l 476 983 q 615 969 547 983 q 735 919 682 954 q 821 828 789 885 q 853 686 853 771 q 799 518 853 586 q 649 421 744 450 l 906 0 l 628 0 m 618 682 q 603 738 618 717 q 566 772 589 760 q 515 788 543 783 q 460 792 486 792 l 333 792 l 333 563 l 446 563 q 506 567 475 563 q 561 585 536 572 q 602 621 586 597 q 618 682 618 644 m 486 1061 l 314 1061 l 458 1261 l 689 1261 l 486 1061 z "},"ŕ":{"ha":550,"x_min":89,"x_max":547,"o":"m 538 506 q 508 511 522 510 q 479 513 493 513 q 402 496 433 513 q 352 456 371 479 q 325 404 333 432 q 317 356 317 376 l 317 0 l 89 0 l 89 692 l 308 692 l 308 592 l 311 592 q 386 678 338 644 q 499 711 435 711 q 526 710 513 711 q 547 706 539 708 l 538 506 m 321 794 l 149 794 l 293 994 l 524 994 l 321 794 z "},"Ŗ":{"ha":921,"x_min":101,"x_max":906,"o":"m 628 0 l 415 390 l 335 390 l 335 0 l 101 0 l 101 983 l 476 983 q 615 969 547 983 q 735 919 682 954 q 821 828 789 885 q 853 686 853 771 q 799 518 853 586 q 649 421 744 450 l 906 0 l 628 0 m 618 682 q 603 738 618 717 q 566 772 589 760 q 515 788 543 783 q 460 792 486 792 l 333 792 l 333 563 l 446 563 q 506 567 475 563 q 561 585 536 572 q 602 621 586 597 q 618 682 618 644 m 454 -333 l 279 -333 l 372 -62 l 574 -62 l 454 -333 z "},"ŗ":{"ha":550,"x_min":17,"x_max":547,"o":"m 538 506 q 508 511 522 510 q 479 513 493 513 q 402 496 433 513 q 352 456 371 479 q 325 404 333 432 q 317 356 317 376 l 317 0 l 89 0 l 89 692 l 308 692 l 308 592 l 311 592 q 386 678 338 644 q 499 711 435 711 q 526 710 513 711 q 547 706 539 708 l 538 506 m 192 -335 l 17 -335 l 110 -64 l 311 -64 l 192 -335 z "},"Ř":{"ha":921,"x_min":101,"x_max":906,"o":"m 628 0 l 415 390 l 335 390 l 335 0 l 101 0 l 101 983 l 476 983 q 615 969 547 983 q 735 919 682 954 q 821 828 789 885 q 853 686 853 771 q 799 518 853 586 q 649 421 744 450 l 906 0 l 628 0 m 618 682 q 603 738 618 717 q 566 772 589 760 q 515 788 543 783 q 460 792 486 792 l 333 792 l 333 563 l 446 563 q 506 567 475 563 q 561 585 536 572 q 602 621 586 597 q 618 682 618 644 m 547 1061 l 343 1061 l 171 1261 l 351 1261 l 446 1149 l 540 1261 l 718 1261 l 547 1061 z "},"ř":{"ha":550,"x_min":43,"x_max":590,"o":"m 538 506 q 508 511 522 510 q 479 513 493 513 q 402 496 433 513 q 352 456 371 479 q 325 404 333 432 q 317 356 317 376 l 317 0 l 89 0 l 89 692 l 308 692 l 308 592 l 311 592 q 386 678 338 644 q 499 711 435 711 q 526 710 513 711 q 547 706 539 708 l 538 506 m 419 794 l 215 794 l 43 994 l 224 994 l 318 882 l 413 994 l 590 994 l 419 794 z "},"Ś":{"ha":821,"x_min":21,"x_max":772,"o":"m 621 728 q 541 790 590 767 q 446 813 492 813 q 398 808 422 813 q 354 792 374 804 q 322 762 335 781 q 308 714 308 743 q 319 672 308 689 q 349 643 329 656 q 397 620 369 631 q 460 599 425 610 q 564 562 510 582 q 663 508 618 542 q 736 426 707 475 q 765 303 765 376 q 734 156 765 218 q 650 54 703 94 q 529 -6 597 14 q 389 -25 461 -25 q 185 12 283 -25 q 21 117 86 49 l 176 275 q 272 201 213 231 q 389 171 331 171 q 440 176 415 171 q 484 194 465 182 q 514 228 503 207 q 525 278 525 249 q 511 325 525 306 q 472 360 497 344 q 408 390 446 376 q 321 418 369 403 q 228 454 274 433 q 148 508 183 475 q 91 587 113 540 q 69 700 69 633 q 103 840 69 782 q 190 936 136 899 q 313 991 244 974 q 450 1008 381 1008 q 620 978 533 1008 q 772 888 707 947 l 621 728 m 474 1061 l 301 1061 l 446 1261 l 676 1261 l 474 1061 z "},"ś":{"ha":656,"x_min":15,"x_max":621,"o":"m 496 488 q 431 532 468 514 q 351 550 393 550 q 292 538 319 550 q 265 494 265 525 q 295 453 265 465 q 392 425 325 440 q 470 401 431 417 q 542 361 510 386 q 593 300 574 336 q 613 214 613 264 q 586 103 613 149 q 517 31 560 58 q 422 -10 475 3 q 317 -22 369 -22 q 151 5 232 -22 q 15 85 69 32 l 143 219 q 218 164 174 186 q 313 142 263 142 q 367 155 340 142 q 394 201 394 168 q 361 249 394 233 q 257 281 328 264 q 185 303 221 289 q 120 340 149 317 q 74 399 92 364 q 56 482 56 433 q 82 588 56 544 q 150 660 108 632 q 242 701 192 688 q 343 714 293 714 q 495 690 421 714 q 621 617 569 665 l 496 488 m 386 794 l 214 794 l 358 994 l 589 994 l 386 794 z "},"Ŝ":{"ha":821,"x_min":21,"x_max":772,"o":"m 621 728 q 541 790 590 767 q 446 813 492 813 q 398 808 422 813 q 354 792 374 804 q 322 762 335 781 q 308 714 308 743 q 319 672 308 689 q 349 643 329 656 q 397 620 369 631 q 460 599 425 610 q 564 562 510 582 q 663 508 618 542 q 736 426 707 475 q 765 303 765 376 q 734 156 765 218 q 650 54 703 94 q 529 -6 597 14 q 389 -25 461 -25 q 185 12 283 -25 q 21 117 86 49 l 176 275 q 272 201 213 231 q 389 171 331 171 q 440 176 415 171 q 484 194 465 182 q 514 228 503 207 q 525 278 525 249 q 511 325 525 306 q 472 360 497 344 q 408 390 446 376 q 321 418 369 403 q 228 454 274 433 q 148 508 183 475 q 91 587 113 540 q 69 700 69 633 q 103 840 69 782 q 190 936 136 899 q 313 991 244 974 q 450 1008 381 1008 q 620 978 533 1008 q 772 888 707 947 l 621 728 m 539 1061 l 444 1174 l 350 1061 l 172 1061 l 344 1261 l 550 1261 l 719 1061 l 539 1061 z "},"ŝ":{"ha":656,"x_min":15,"x_max":621,"o":"m 496 488 q 431 532 468 514 q 351 550 393 550 q 292 538 319 550 q 265 494 265 525 q 295 453 265 465 q 392 425 325 440 q 470 401 431 417 q 542 361 510 386 q 593 300 574 336 q 613 214 613 264 q 586 103 613 149 q 517 31 560 58 q 422 -10 475 3 q 317 -22 369 -22 q 151 5 232 -22 q 15 85 69 32 l 143 219 q 218 164 174 186 q 313 142 263 142 q 367 155 340 142 q 394 201 394 168 q 361 249 394 233 q 257 281 328 264 q 185 303 221 289 q 120 340 149 317 q 74 399 92 364 q 56 482 56 433 q 82 588 56 544 q 150 660 108 632 q 242 701 192 688 q 343 714 293 714 q 495 690 421 714 q 621 617 569 665 l 496 488 m 438 794 l 343 907 l 249 794 l 71 794 l 243 994 l 449 994 l 618 794 l 438 794 z "},"Ş":{"ha":821,"x_min":21,"x_max":772,"o":"m 579 -197 q 560 -264 579 -237 q 510 -306 540 -290 q 444 -327 479 -321 q 375 -333 408 -333 q 287 -324 332 -333 q 210 -299 242 -314 l 247 -215 q 305 -235 274 -228 q 364 -242 336 -242 q 410 -233 386 -242 q 433 -196 433 -224 q 411 -163 433 -171 q 368 -156 389 -156 q 340 -158 356 -156 q 313 -164 325 -160 l 269 -124 l 344 -24 q 165 19 250 -17 q 21 117 79 54 l 176 275 q 272 201 213 231 q 389 171 331 171 q 440 176 415 171 q 484 194 465 182 q 514 228 503 207 q 525 278 525 249 q 511 325 525 306 q 472 360 497 344 q 408 390 446 376 q 321 418 369 403 q 228 454 274 433 q 148 508 183 475 q 91 587 113 540 q 69 700 69 633 q 103 840 69 782 q 190 936 136 899 q 313 991 244 974 q 450 1008 381 1008 q 620 978 533 1008 q 772 888 707 947 l 621 728 q 541 790 590 767 q 446 813 492 813 q 398 808 422 813 q 354 792 374 804 q 322 762 335 781 q 308 714 308 743 q 319 672 308 689 q 349 643 329 656 q 397 620 369 631 q 460 599 425 610 q 564 562 510 582 q 663 508 618 542 q 736 426 707 475 q 765 303 765 376 q 741 172 765 228 q 675 75 717 115 q 578 12 633 35 q 460 -19 522 -11 l 411 -83 q 424 -82 418 -82 q 436 -82 429 -82 q 487 -87 461 -82 q 533 -104 513 -92 q 566 -140 553 -117 q 579 -197 579 -162 z "},"ş":{"ha":656,"x_min":15,"x_max":621,"o":"m 504 -197 q 485 -264 504 -237 q 435 -306 465 -290 q 369 -327 404 -321 q 300 -333 333 -333 q 212 -324 257 -333 q 135 -299 167 -314 l 172 -215 q 230 -235 199 -228 q 289 -242 261 -242 q 335 -233 311 -242 q 358 -196 358 -224 q 336 -163 358 -171 q 293 -156 314 -156 q 265 -158 281 -156 q 238 -164 250 -160 l 194 -124 l 272 -19 q 130 13 197 -12 q 15 85 63 39 l 143 219 q 218 164 174 186 q 313 142 263 142 q 367 155 340 142 q 394 201 394 168 q 361 249 394 233 q 257 281 328 264 q 185 303 221 289 q 120 340 149 317 q 74 399 92 364 q 56 482 56 433 q 82 588 56 544 q 150 660 108 632 q 242 702 192 689 q 343 715 293 715 q 495 690 421 715 q 621 617 569 665 l 496 488 q 431 532 468 514 q 351 550 393 550 q 292 538 319 550 q 265 494 265 525 q 295 453 265 465 q 392 425 325 440 q 470 401 431 417 q 542 361 510 386 q 593 300 574 336 q 613 214 613 264 q 594 119 613 160 q 544 50 575 78 q 472 6 513 22 q 388 -17 432 -11 l 336 -83 q 349 -82 343 -82 q 361 -82 354 -82 q 412 -87 386 -82 q 458 -104 438 -92 q 491 -140 478 -117 q 504 -197 504 -162 z "},"Š":{"ha":821,"x_min":21,"x_max":772,"o":"m 621 728 q 541 790 590 767 q 446 813 492 813 q 398 808 422 813 q 354 792 374 804 q 322 762 335 781 q 308 714 308 743 q 319 672 308 689 q 349 643 329 656 q 397 620 369 631 q 460 599 425 610 q 564 562 510 582 q 663 508 618 542 q 736 426 707 475 q 765 303 765 376 q 734 156 765 218 q 650 54 703 94 q 529 -6 597 14 q 389 -25 461 -25 q 185 12 283 -25 q 21 117 86 49 l 176 275 q 272 201 213 231 q 389 171 331 171 q 440 176 415 171 q 484 194 465 182 q 514 228 503 207 q 525 278 525 249 q 511 325 525 306 q 472 360 497 344 q 408 390 446 376 q 321 418 369 403 q 228 454 274 433 q 148 508 183 475 q 91 587 113 540 q 69 700 69 633 q 103 840 69 782 q 190 936 136 899 q 313 991 244 974 q 450 1008 381 1008 q 620 978 533 1008 q 772 888 707 947 l 621 728 m 551 1061 l 347 1061 l 175 1261 l 356 1261 l 450 1149 l 544 1261 l 722 1261 l 551 1061 z "},"š":{"ha":656,"x_min":15,"x_max":621,"o":"m 496 488 q 431 532 468 514 q 351 550 393 550 q 292 538 319 550 q 265 494 265 525 q 295 453 265 465 q 392 425 325 440 q 470 401 431 417 q 542 361 510 386 q 593 300 574 336 q 613 214 613 264 q 586 103 613 149 q 517 31 560 58 q 422 -10 475 3 q 317 -22 369 -22 q 151 5 232 -22 q 15 85 69 32 l 143 219 q 218 164 174 186 q 313 142 263 142 q 367 155 340 142 q 394 201 394 168 q 361 249 394 233 q 257 281 328 264 q 185 303 221 289 q 120 340 149 317 q 74 399 92 364 q 56 482 56 433 q 82 588 56 544 q 150 660 108 632 q 242 701 192 688 q 343 714 293 714 q 495 690 421 714 q 621 617 569 665 l 496 488 m 446 794 l 242 794 l 69 994 l 250 994 l 344 882 l 439 994 l 617 994 l 446 794 z "},"Ţ":{"ha":807,"x_min":7,"x_max":800,"o":"m 522 781 l 522 0 l 285 0 l 285 781 l 7 781 l 7 983 l 800 983 l 800 781 l 522 781 m 388 -333 l 213 -333 l 306 -62 l 507 -62 l 388 -333 z "},"ţ":{"ha":517,"x_min":3,"x_max":499,"o":"m 336 521 l 336 257 q 355 184 336 208 q 422 160 374 160 q 458 163 439 160 q 489 171 476 165 l 492 4 q 432 -10 468 -4 q 360 -17 396 -17 q 243 1 290 -17 q 167 51 196 18 q 126 128 139 83 q 114 229 114 174 l 114 521 l 3 521 l 3 692 l 113 692 l 113 874 l 336 874 l 336 692 l 499 692 l 499 521 l 336 521 m 281 -333 l 106 -333 l 199 -62 l 400 -62 l 281 -333 z "},"Ť":{"ha":807,"x_min":7,"x_max":800,"o":"m 522 781 l 522 0 l 285 0 l 285 781 l 7 781 l 7 983 l 800 983 l 800 781 l 522 781 m 507 1061 l 303 1061 l 131 1261 l 311 1261 l 406 1149 l 500 1261 l 678 1261 l 507 1061 z "},"ť":{"ha":517,"x_min":3,"x_max":669,"o":"m 336 521 l 336 257 q 355 184 336 208 q 422 160 374 160 q 458 163 439 160 q 489 171 476 165 l 492 4 q 432 -10 468 -4 q 360 -17 396 -17 q 243 1 290 -17 q 167 51 196 18 q 126 128 139 83 q 114 229 114 174 l 114 521 l 3 521 l 3 692 l 113 692 l 113 874 l 336 874 l 336 692 l 499 692 l 499 521 l 336 521 m 550 744 l 375 744 l 468 1015 l 669 1015 l 550 744 z "},"Ŧ":{"ha":807,"x_min":7,"x_max":800,"o":"m 522 781 l 522 663 l 711 663 l 711 539 l 522 539 l 522 0 l 285 0 l 285 539 l 103 539 l 103 663 l 285 663 l 285 781 l 7 781 l 7 983 l 800 983 l 800 781 l 522 781 z "},"ŧ":{"ha":517,"x_min":3,"x_max":499,"o":"m 336 299 l 336 257 q 355 184 336 208 q 422 160 374 160 q 458 163 439 160 q 489 171 476 165 l 492 4 q 432 -10 468 -4 q 360 -17 396 -17 q 243 1 290 -17 q 167 51 196 18 q 126 128 139 83 q 114 229 114 174 l 114 299 l 15 299 l 15 422 l 114 422 l 114 521 l 3 521 l 3 692 l 113 692 l 113 874 l 336 874 l 336 692 l 499 692 l 499 521 l 336 521 l 336 422 l 471 422 l 471 299 l 336 299 z "},"Ũ":{"ha":1025,"x_min":92,"x_max":935,"o":"m 935 371 q 905 209 935 282 q 819 84 875 136 q 685 3 764 32 q 511 -26 607 -26 q 336 3 414 -26 q 204 84 258 32 q 121 209 150 136 q 92 371 92 282 l 92 983 l 328 983 l 328 390 q 338 314 328 350 q 370 249 349 278 q 427 204 392 221 q 513 188 463 188 q 598 204 563 188 q 656 249 633 221 q 688 314 678 278 q 697 390 697 350 l 697 983 l 935 983 l 935 371 m 776 1250 q 761 1181 772 1214 q 731 1122 750 1147 q 685 1082 713 1097 q 619 1067 657 1067 q 563 1075 590 1067 q 507 1096 535 1083 q 459 1117 479 1111 q 419 1124 439 1124 q 381 1107 394 1124 q 361 1068 368 1090 l 261 1068 q 276 1137 265 1104 q 306 1194 288 1169 q 353 1234 325 1219 q 418 1249 381 1249 q 474 1241 447 1249 q 529 1221 501 1233 q 579 1200 558 1207 q 619 1193 600 1193 q 658 1209 646 1193 q 678 1250 671 1225 l 776 1250 z "},"ũ":{"ha":853,"x_min":82,"x_max":764,"o":"m 544 0 l 544 96 l 542 96 q 509 51 529 72 q 462 15 489 31 q 402 -10 435 0 q 333 -19 369 -19 q 216 6 264 -19 q 138 70 168 31 q 95 160 108 110 q 82 264 82 211 l 82 692 l 311 692 l 311 317 q 315 261 311 288 q 331 214 319 235 q 363 181 343 193 q 414 169 382 169 q 505 214 474 169 q 536 318 536 258 l 536 692 l 764 692 l 764 0 l 544 0 m 682 983 q 667 914 678 947 q 637 856 656 881 q 590 815 618 831 q 525 800 563 800 q 468 808 496 800 q 413 829 440 817 q 365 851 385 844 q 325 857 344 857 q 287 840 300 857 q 267 801 274 824 l 167 801 q 182 870 171 838 q 212 928 193 903 q 258 967 231 953 q 324 982 286 982 q 380 974 353 982 q 435 954 407 967 q 485 933 464 940 q 525 926 506 926 q 564 942 551 926 q 583 983 576 958 l 682 983 z "},"Ū":{"ha":1025,"x_min":92,"x_max":935,"o":"m 935 371 q 905 209 935 282 q 819 84 875 136 q 685 3 764 32 q 511 -26 607 -26 q 336 3 414 -26 q 204 84 258 32 q 121 209 150 136 q 92 371 92 282 l 92 983 l 328 983 l 328 390 q 338 314 328 350 q 370 249 349 278 q 427 204 392 221 q 513 188 463 188 q 598 204 563 188 q 656 249 633 221 q 688 314 678 278 q 697 390 697 350 l 697 983 l 935 983 l 935 371 m 286 1101 l 286 1221 l 753 1221 l 753 1101 l 286 1101 z "},"ū":{"ha":853,"x_min":82,"x_max":764,"o":"m 544 0 l 544 96 l 542 96 q 509 51 529 72 q 462 15 489 31 q 402 -10 435 0 q 333 -19 369 -19 q 216 6 264 -19 q 138 70 168 31 q 95 160 108 110 q 82 264 82 211 l 82 692 l 311 692 l 311 317 q 315 261 311 288 q 331 214 319 235 q 363 181 343 193 q 414 169 382 169 q 505 214 474 169 q 536 318 536 258 l 536 692 l 764 692 l 764 0 l 544 0 m 189 835 l 189 954 l 656 954 l 656 835 l 189 835 z "},"Ŭ":{"ha":1025,"x_min":92,"x_max":935,"o":"m 935 371 q 905 209 935 282 q 819 84 875 136 q 685 3 764 32 q 511 -26 607 -26 q 336 3 414 -26 q 204 84 258 32 q 121 209 150 136 q 92 371 92 282 l 92 983 l 328 983 l 328 390 q 338 314 328 350 q 370 249 349 278 q 427 204 392 221 q 513 188 463 188 q 598 204 563 188 q 656 249 633 221 q 688 314 678 278 q 697 390 697 350 l 697 983 l 935 983 l 935 371 m 756 1261 q 731 1169 751 1207 q 678 1107 710 1131 q 603 1072 646 1083 q 513 1061 561 1061 q 423 1072 465 1061 q 349 1106 381 1082 q 297 1169 317 1131 q 272 1261 276 1207 l 389 1261 q 405 1224 393 1239 q 434 1201 417 1210 q 472 1188 451 1192 q 514 1185 493 1185 q 595 1199 561 1185 q 639 1261 629 1213 l 756 1261 z "},"ŭ":{"ha":853,"x_min":82,"x_max":764,"o":"m 544 0 l 544 96 l 542 96 q 509 51 529 72 q 462 15 489 31 q 402 -10 435 0 q 333 -19 369 -19 q 216 6 264 -19 q 138 70 168 31 q 95 160 108 110 q 82 264 82 211 l 82 692 l 311 692 l 311 317 q 315 261 311 288 q 331 214 319 235 q 363 181 343 193 q 414 169 382 169 q 505 214 474 169 q 536 318 536 258 l 536 692 l 764 692 l 764 0 l 544 0 m 665 994 q 640 902 661 940 q 588 840 619 864 q 513 806 556 817 q 422 794 471 794 q 333 805 375 794 q 258 840 290 815 q 206 902 226 864 q 182 994 186 940 l 299 994 q 343 933 307 954 q 382 922 361 925 q 424 918 403 918 q 505 932 471 918 q 549 994 539 946 l 665 994 z "},"Ů":{"ha":1025,"x_min":92,"x_max":935,"o":"m 935 371 q 905 209 935 282 q 819 84 875 136 q 685 3 764 32 q 511 -26 607 -26 q 336 3 414 -26 q 204 84 258 32 q 121 209 150 136 q 92 371 92 282 l 92 983 l 328 983 l 328 390 q 338 314 328 350 q 370 249 349 278 q 427 204 392 221 q 513 188 463 188 q 598 204 563 188 q 656 249 633 221 q 688 314 678 278 q 697 390 697 350 l 697 983 l 935 983 l 935 371 m 671 1189 q 659 1129 671 1157 q 626 1082 647 1101 q 578 1051 606 1063 q 519 1040 550 1040 q 460 1051 488 1040 q 413 1082 433 1063 q 380 1128 392 1101 q 368 1188 368 1156 q 412 1295 368 1253 q 519 1338 456 1338 q 578 1326 550 1338 q 626 1295 606 1315 q 659 1248 647 1275 q 671 1189 671 1221 m 601 1189 q 578 1247 601 1224 q 519 1269 554 1269 q 460 1246 483 1269 q 438 1188 438 1222 q 461 1131 438 1154 q 519 1108 485 1108 q 578 1131 554 1108 q 601 1189 601 1154 z "},"ů":{"ha":853,"x_min":82,"x_max":764,"o":"m 544 0 l 544 96 l 542 96 q 509 51 529 72 q 462 15 489 31 q 402 -10 435 0 q 333 -19 369 -19 q 216 6 264 -19 q 138 70 168 31 q 95 160 108 110 q 82 264 82 211 l 82 692 l 311 692 l 311 317 q 315 261 311 288 q 331 214 319 235 q 363 181 343 193 q 414 169 382 169 q 505 214 474 169 q 536 318 536 258 l 536 692 l 764 692 l 764 0 l 544 0 m 575 922 q 563 863 575 890 q 531 815 551 835 q 482 785 510 796 q 424 774 454 774 q 365 785 392 774 q 317 815 338 796 q 284 862 296 835 q 272 921 272 889 q 316 1028 272 986 q 424 1071 360 1071 q 482 1060 454 1071 q 531 1028 510 1049 q 563 981 551 1008 q 575 922 575 954 m 506 922 q 482 980 506 957 q 424 1003 458 1003 q 365 979 388 1003 q 342 921 342 956 q 365 865 342 888 q 424 842 389 842 q 482 865 458 842 q 506 922 506 888 z "},"Ű":{"ha":1025,"x_min":92,"x_max":953,"o":"m 935 371 q 905 209 935 282 q 819 84 875 136 q 685 3 764 32 q 511 -26 607 -26 q 336 3 414 -26 q 204 84 258 32 q 121 209 150 136 q 92 371 92 282 l 92 983 l 328 983 l 328 390 q 338 314 328 350 q 370 249 349 278 q 427 204 392 221 q 513 188 463 188 q 598 204 563 188 q 656 249 633 221 q 688 314 678 278 q 697 390 697 350 l 697 983 l 935 983 l 935 371 m 750 1061 l 578 1061 l 722 1261 l 953 1261 l 750 1061 m 444 1061 l 272 1061 l 417 1261 l 647 1261 l 444 1061 z "},"ű":{"ha":853,"x_min":82,"x_max":864,"o":"m 544 0 l 544 96 l 542 96 q 509 51 529 72 q 462 15 489 31 q 402 -10 435 0 q 333 -19 369 -19 q 216 6 264 -19 q 138 70 168 31 q 95 160 108 110 q 82 264 82 211 l 82 692 l 311 692 l 311 317 q 315 261 311 288 q 331 214 319 235 q 363 181 343 193 q 414 169 382 169 q 505 214 474 169 q 536 318 536 258 l 536 692 l 764 692 l 764 0 l 544 0 m 661 794 l 489 794 l 633 994 l 864 994 l 661 794 m 356 794 l 183 794 l 328 994 l 558 994 l 356 794 z "},"Ų":{"ha":1025,"x_min":92,"x_max":935,"o":"m 671 -272 q 597 -312 639 -296 q 511 -328 556 -328 q 455 -321 483 -328 q 404 -299 426 -314 q 368 -259 382 -283 q 354 -201 354 -235 q 388 -106 354 -151 q 465 -24 422 -60 q 309 15 378 -17 q 192 97 240 46 q 117 218 143 149 q 92 371 92 288 l 92 983 l 328 983 l 328 390 q 338 314 328 350 q 370 249 349 278 q 427 204 392 221 q 513 188 463 188 q 598 204 563 188 q 656 249 633 221 q 688 314 678 278 q 697 390 697 350 l 697 983 l 935 983 l 935 371 q 911 227 935 293 q 844 110 888 161 q 739 26 801 60 q 600 -19 676 -7 q 528 -94 557 -57 q 499 -164 499 -132 q 513 -200 499 -186 q 550 -214 528 -214 q 589 -206 569 -214 q 626 -186 608 -199 l 671 -272 l 671 -272 z "},"ų":{"ha":853,"x_min":82,"x_max":764,"o":"m 719 -272 q 646 -312 688 -296 q 560 -328 604 -328 q 503 -321 532 -328 q 453 -299 475 -314 q 417 -259 431 -283 q 403 -201 403 -235 q 416 -144 403 -172 q 449 -89 429 -115 q 494 -40 469 -62 q 544 0 519 -18 l 544 96 l 542 96 q 509 51 529 72 q 462 15 489 31 q 402 -10 435 0 q 333 -19 369 -19 q 216 6 264 -19 q 138 70 168 31 q 95 160 108 110 q 82 264 82 211 l 82 692 l 311 692 l 311 317 q 315 261 311 288 q 331 214 319 235 q 363 181 343 193 q 414 169 382 169 q 505 214 474 169 q 536 318 536 258 l 536 692 l 764 692 l 764 0 l 672 0 q 583 -85 619 -42 q 547 -164 547 -128 q 562 -200 547 -186 q 599 -214 576 -214 q 638 -206 618 -214 q 675 -186 657 -199 l 719 -272 l 719 -272 z "},"Ŵ":{"ha":1424,"x_min":0,"x_max":1424,"o":"m 1143 0 l 908 0 l 714 665 l 710 665 l 515 0 l 279 0 l 0 983 l 256 983 l 411 329 l 415 329 l 590 983 l 838 983 l 1014 329 l 1018 329 l 1176 983 l 1424 983 l 1143 0 m 808 1061 l 714 1174 l 619 1061 l 442 1061 l 614 1261 l 819 1261 l 989 1061 l 808 1061 z "},"ŵ":{"ha":1210,"x_min":0,"x_max":1210,"o":"m 969 0 l 740 0 l 604 431 l 601 431 l 468 0 l 239 0 l 0 692 l 246 692 l 365 254 l 369 254 l 493 692 l 722 692 l 850 254 l 853 254 l 974 692 l 1210 692 l 969 0 m 701 794 l 607 907 l 513 794 l 335 794 l 507 994 l 713 994 l 882 794 l 701 794 z "},"Ŷ":{"ha":929,"x_min":-28,"x_max":957,"o":"m 579 417 l 579 0 l 342 0 l 342 417 l -28 983 l 260 983 l 469 619 l 679 983 l 957 983 l 579 417 m 563 1061 l 468 1174 l 374 1061 l 196 1061 l 368 1261 l 574 1261 l 743 1061 l 563 1061 z "},"ŷ":{"ha":788,"x_min":-1,"x_max":789,"o":"m 479 -104 q 433 -201 458 -158 q 372 -273 407 -243 q 288 -318 336 -303 q 175 -333 240 -333 q 109 -329 143 -333 q 50 -318 75 -325 l 75 -126 q 112 -135 92 -132 q 149 -139 132 -139 q 225 -115 201 -139 q 265 -46 249 -90 l 288 11 l -1 692 l 251 692 l 406 247 l 410 247 l 547 692 l 789 692 l 479 -104 m 499 794 l 404 907 l 310 794 l 132 794 l 304 994 l 510 994 l 679 794 l 499 794 z "},"Ÿ":{"ha":929,"x_min":-28,"x_max":957,"o":"m 579 417 l 579 0 l 342 0 l 342 417 l -28 983 l 260 983 l 469 619 l 679 983 l 957 983 l 579 417 m 736 1181 q 702 1099 736 1132 q 621 1067 668 1067 q 539 1100 572 1067 q 506 1181 506 1133 q 515 1223 506 1203 q 539 1259 524 1243 q 575 1284 554 1275 q 621 1293 596 1293 q 702 1260 668 1293 q 736 1181 736 1228 m 435 1181 q 401 1099 435 1132 q 318 1067 367 1067 q 236 1100 269 1067 q 203 1181 203 1133 q 212 1223 203 1203 q 236 1259 221 1243 q 273 1284 251 1275 q 318 1293 294 1293 q 401 1260 367 1293 q 435 1181 435 1228 z "},"Ź":{"ha":882,"x_min":54,"x_max":829,"o":"m 54 0 l 54 206 l 522 782 l 65 782 l 65 983 l 819 983 l 819 793 l 340 206 l 829 206 l 829 0 l 54 0 m 515 1061 l 343 1061 l 488 1261 l 718 1261 l 515 1061 z "},"ź":{"ha":711,"x_min":47,"x_max":664,"o":"m 47 0 l 47 178 l 372 517 l 60 517 l 60 692 l 650 692 l 650 521 l 315 176 l 664 176 l 664 0 l 47 0 m 413 794 l 240 794 l 385 994 l 615 994 l 413 794 z "},"Ż":{"ha":882,"x_min":54,"x_max":829,"o":"m 54 0 l 54 206 l 522 782 l 65 782 l 65 983 l 819 983 l 819 793 l 340 206 l 829 206 l 829 0 l 54 0 m 581 1179 q 544 1095 581 1129 q 456 1061 508 1061 q 367 1096 403 1061 q 332 1179 332 1131 q 367 1263 332 1228 q 456 1299 403 1299 q 544 1264 508 1299 q 581 1179 581 1229 z "},"ż":{"ha":711,"x_min":47,"x_max":664,"o":"m 47 0 l 47 178 l 372 517 l 60 517 l 60 692 l 650 692 l 650 521 l 315 176 l 664 176 l 664 0 l 47 0 m 485 913 q 449 828 485 863 q 360 794 413 794 q 272 829 307 794 q 236 913 236 864 q 272 997 236 961 q 360 1032 307 1032 q 449 997 413 1032 q 485 913 485 963 z "},"Ž":{"ha":882,"x_min":54,"x_max":829,"o":"m 54 0 l 54 206 l 522 782 l 65 782 l 65 983 l 819 983 l 819 793 l 340 206 l 829 206 l 829 0 l 54 0 m 546 1061 l 342 1061 l 169 1261 l 350 1261 l 444 1149 l 539 1261 l 717 1261 l 546 1061 z "},"ž":{"ha":711,"x_min":47,"x_max":664,"o":"m 47 0 l 47 178 l 372 517 l 60 517 l 60 692 l 650 692 l 650 521 l 315 176 l 664 176 l 664 0 l 47 0 m 467 794 l 263 794 l 90 994 l 271 994 l 365 882 l 460 994 l 638 994 l 467 794 z "},"ƒ":{"ha":897,"x_min":-3,"x_max":842,"o":"m 733 449 l 528 449 l 451 68 q 359 -126 426 -58 q 167 -193 292 -193 q 78 -183 122 -193 q -3 -154 33 -174 l 78 13 q 113 -4 94 1 q 147 -10 132 -10 q 213 24 193 -10 q 244 114 233 58 l 313 449 l 154 449 l 154 606 l 340 606 l 363 714 q 392 821 374 768 q 442 914 410 874 q 525 979 475 954 q 651 1004 575 1004 q 757 992 710 1004 q 842 957 804 979 l 758 789 q 679 814 717 814 q 609 780 631 814 q 578 696 588 746 l 558 606 l 733 606 l 733 449 z "},"Ș":{"ha":821,"x_min":21,"x_max":772,"o":"m 621 728 q 541 790 590 767 q 446 813 492 813 q 398 808 422 813 q 354 792 374 804 q 322 762 335 781 q 308 714 308 743 q 319 672 308 689 q 349 643 329 656 q 397 620 369 631 q 460 599 425 610 q 564 562 510 582 q 663 508 618 542 q 736 426 707 475 q 765 303 765 376 q 734 156 765 218 q 650 54 703 94 q 529 -6 597 14 q 389 -25 461 -25 q 185 12 283 -25 q 21 117 86 49 l 176 275 q 272 201 213 231 q 389 171 331 171 q 440 176 415 171 q 484 194 465 182 q 514 228 503 207 q 525 278 525 249 q 511 325 525 306 q 472 360 497 344 q 408 390 446 376 q 321 418 369 403 q 228 454 274 433 q 148 508 183 475 q 91 587 113 540 q 69 700 69 633 q 103 840 69 782 q 190 936 136 899 q 313 991 244 974 q 450 1008 381 1008 q 620 978 533 1008 q 772 888 707 947 l 621 728 m 386 -333 l 211 -333 l 304 -62 l 506 -62 l 386 -333 z "},"ș":{"ha":656,"x_min":15,"x_max":621,"o":"m 496 488 q 431 532 468 514 q 351 550 393 550 q 292 538 319 550 q 265 494 265 525 q 295 453 265 465 q 392 425 325 440 q 470 401 431 417 q 542 361 510 386 q 593 300 574 336 q 613 214 613 264 q 586 103 613 149 q 517 31 560 58 q 422 -10 475 3 q 317 -22 369 -22 q 151 5 232 -22 q 15 85 69 32 l 143 219 q 218 164 174 186 q 313 142 263 142 q 367 155 340 142 q 394 201 394 168 q 361 249 394 233 q 257 281 328 264 q 185 303 221 289 q 120 340 149 317 q 74 399 92 364 q 56 482 56 433 q 82 588 56 544 q 150 660 108 632 q 242 701 192 688 q 343 714 293 714 q 495 690 421 714 q 621 617 569 665 l 496 488 m 303 -333 l 128 -333 l 221 -62 l 422 -62 l 303 -333 z "},"Ț":{"ha":807,"x_min":7,"x_max":800,"o":"m 522 781 l 522 0 l 285 0 l 285 781 l 7 781 l 7 983 l 800 983 l 800 781 l 522 781 m 388 -333 l 213 -333 l 306 -62 l 507 -62 l 388 -333 z "},"ț":{"ha":517,"x_min":3,"x_max":499,"o":"m 336 521 l 336 257 q 355 184 336 208 q 422 160 374 160 q 458 163 439 160 q 489 171 476 165 l 492 4 q 432 -10 468 -4 q 360 -17 396 -17 q 243 1 290 -17 q 167 51 196 18 q 126 128 139 83 q 114 229 114 174 l 114 521 l 3 521 l 3 692 l 113 692 l 113 874 l 336 874 l 336 692 l 499 692 l 499 521 l 336 521 m 281 -333 l 106 -333 l 199 -62 l 400 -62 l 281 -333 z "},"ˆ":{"ha":417,"x_min":-65,"x_max":482,"o":"m 301 794 l 207 907 l 113 794 l -65 794 l 107 994 l 313 994 l 482 794 l 301 794 z "},"ˇ":{"ha":417,"x_min":-65,"x_max":482,"o":"m 311 794 l 107 794 l -65 994 l 115 994 l 210 882 l 304 994 l 482 994 l 311 794 z "},"ˉ":{"ha":417,"x_min":-25,"x_max":442,"o":"m -25 1101 l -25 1221 l 442 1221 l 442 1101 l -25 1101 z "},"˘":{"ha":417,"x_min":-33,"x_max":450,"o":"m 450 994 q 425 902 446 940 q 372 840 404 864 q 298 806 340 817 q 207 794 256 794 q 117 805 160 794 q 43 840 75 815 q -9 902 11 864 q -33 994 -29 940 l 83 994 q 128 933 92 954 q 167 922 146 925 q 208 918 188 918 q 290 932 256 918 q 333 994 324 946 l 450 994 l 450 994 z "},"˙":{"ha":417,"x_min":85,"x_max":333,"o":"m 333 913 q 297 828 333 863 q 208 794 261 794 q 120 829 156 794 q 85 913 85 864 q 120 997 85 961 q 208 1032 156 1032 q 297 997 261 1032 q 333 913 333 963 z "},"˚":{"ha":417,"x_min":57,"x_max":360,"o":"m 360 922 q 348 863 360 890 q 315 815 336 835 q 267 785 294 796 q 208 774 239 774 q 149 785 176 774 q 101 815 122 796 q 69 862 81 835 q 57 921 57 889 q 101 1028 57 986 q 208 1071 144 1071 q 267 1060 239 1071 q 315 1028 294 1049 q 348 981 336 1008 q 360 922 360 954 m 290 922 q 267 980 290 957 q 208 1003 243 1003 q 149 979 172 1003 q 126 921 126 956 q 150 865 126 888 q 208 842 174 842 q 267 865 243 842 q 290 922 290 888 z "},"˛":{"ha":417,"x_min":17,"x_max":333,"o":"m 333 -272 q 260 -312 301 -296 q 174 -328 218 -328 q 117 -321 146 -328 q 67 -299 89 -314 q 31 -259 44 -283 q 17 -201 17 -235 q 31 -141 17 -171 q 67 -85 44 -111 q 115 -35 89 -58 q 167 6 142 -12 l 293 6 q 200 -82 239 -37 q 161 -164 161 -126 q 176 -200 161 -186 q 213 -214 190 -214 q 251 -206 232 -214 q 289 -186 271 -199 l 333 -272 l 333 -272 z "},"˜":{"ha":417,"x_min":-50,"x_max":465,"o":"m 465 983 q 450 914 461 947 q 420 856 439 881 q 374 815 401 831 q 308 800 346 800 q 251 808 279 800 q 196 829 224 817 q 148 851 168 844 q 108 857 128 857 q 70 840 83 857 q 50 801 57 824 l -50 801 q -35 870 -46 838 q -5 928 -24 903 q 42 967 14 953 q 107 982 69 982 q 163 974 136 982 q 218 954 190 967 q 268 933 247 940 q 308 926 289 926 q 347 942 335 926 q 367 983 360 958 l 465 983 l 465 983 z "},"˝":{"ha":417,"x_min":-47,"x_max":633,"o":"m 431 794 l 258 794 l 403 994 l 633 994 l 431 794 m 125 794 l -47 794 l 97 994 l 328 994 l 125 794 z "},"Δ":{"ha":986,"x_min":13,"x_max":974,"o":"m 13 0 l 385 983 l 579 983 l 974 0 l 13 0 m 478 699 l 297 201 l 669 201 l 478 699 z "},"Ω":{"ha":1071,"x_min":71,"x_max":1000,"o":"m 596 0 l 596 304 q 674 339 640 315 q 732 397 708 363 q 778 563 778 465 q 758 663 778 618 q 704 740 738 708 q 628 788 671 771 q 538 806 585 806 q 445 789 489 806 q 368 740 401 772 q 315 663 335 708 q 294 561 294 618 q 345 397 294 465 q 475 304 396 328 l 475 0 l 71 0 l 71 200 l 303 200 l 303 215 q 206 265 249 232 q 133 343 163 299 q 71 563 71 438 q 108 742 71 661 q 208 880 144 822 q 355 969 271 938 q 535 1001 439 1001 q 715 970 631 1001 q 863 882 800 939 q 963 744 926 825 q 1000 565 1000 664 q 985 447 1000 503 q 940 344 969 390 q 868 265 911 299 q 768 215 825 232 l 768 200 l 1000 200 l 1000 0 l 596 0 z "},"μ":{"ha":925,"x_min":124,"x_max":807,"o":"m 349 692 l 349 347 q 352 294 349 324 q 367 238 356 264 q 400 193 379 211 q 456 175 421 175 q 515 188 490 175 q 553 221 539 200 q 575 269 568 242 q 582 329 582 297 l 582 692 l 807 692 l 807 0 l 592 0 l 592 79 l 590 79 q 534 17 569 43 q 436 -10 499 -10 q 388 -3 411 -10 q 349 18 364 4 l 349 -314 l 124 -314 l 124 692 l 349 692 z "},"π":{"ha":925,"x_min":47,"x_max":871,"o":"m 871 25 q 793 -2 833 6 q 706 -10 753 -10 q 621 5 654 -10 q 568 46 588 19 q 541 107 549 72 q 533 182 533 142 l 533 501 l 374 501 l 374 0 l 143 0 l 143 501 l 47 501 l 47 692 l 868 692 l 868 501 l 760 501 l 760 222 q 769 181 760 200 q 808 163 779 163 q 871 179 833 163 l 871 25 l 871 25 z "},"–":{"ha":556,"x_min":42,"x_max":514,"o":"m 42 292 l 42 435 l 514 435 l 514 292 l 42 292 z "},"—":{"ha":833,"x_min":42,"x_max":792,"o":"m 42 290 l 42 435 l 792 435 l 792 290 l 42 290 z "},"‘":{"ha":417,"x_min":58,"x_max":360,"o":"m 260 607 l 58 607 l 185 983 l 360 983 l 260 607 z "},"’":{"ha":417,"x_min":57,"x_max":358,"o":"m 232 607 l 57 607 l 157 983 l 358 983 l 232 607 z "},"‚":{"ha":417,"x_min":56,"x_max":357,"o":"m 231 -175 l 56 -175 l 156 201 l 357 201 l 231 -175 z "},"“":{"ha":704,"x_min":58,"x_max":647,"o":"m 549 607 l 349 607 l 472 983 l 647 983 l 549 607 m 257 607 l 58 607 l 185 983 l 360 983 l 257 607 z "},"”":{"ha":704,"x_min":57,"x_max":646,"o":"m 521 607 l 344 607 l 447 983 l 646 983 l 521 607 m 232 607 l 57 607 l 157 983 l 356 983 l 232 607 z "},"„":{"ha":704,"x_min":56,"x_max":644,"o":"m 519 -175 l 343 -175 l 446 201 l 644 201 l 519 -175 m 231 -175 l 56 -175 l 156 201 l 354 201 l 231 -175 z "},"†":{"ha":838,"x_min":53,"x_max":785,"o":"m 515 531 l 515 -179 l 318 -179 l 318 531 l 53 531 l 53 704 l 318 704 l 318 983 l 515 983 l 515 704 l 785 704 l 785 531 l 515 531 z "},"‡":{"ha":838,"x_min":58,"x_max":781,"o":"m 517 69 l 517 -179 l 321 -179 l 321 69 l 58 69 l 58 242 l 321 242 l 321 564 l 58 564 l 58 735 l 319 735 l 319 983 l 517 983 l 517 735 l 781 735 l 781 564 l 517 564 l 517 242 l 781 242 l 781 69 l 517 69 z "},"•":{"ha":694,"x_min":101,"x_max":593,"o":"m 593 492 q 574 396 593 440 q 521 318 554 351 q 443 265 488 285 q 347 246 399 246 q 251 265 296 246 q 174 318 207 285 q 121 396 140 351 q 101 492 101 440 q 121 588 101 543 q 174 665 140 632 q 251 718 207 699 q 347 738 296 738 q 443 718 399 738 q 521 665 488 699 q 574 588 554 632 q 593 492 593 543 z "},"…":{"ha":1389,"x_min":92,"x_max":1296,"o":"m 1296 122 q 1255 25 1296 64 q 1157 -14 1214 -14 q 1103 -3 1129 -14 q 1058 25 1078 7 q 1027 67 1039 43 q 1015 121 1015 92 q 1026 174 1015 149 q 1057 217 1038 199 q 1102 247 1076 236 q 1157 258 1128 258 q 1255 219 1214 258 q 1296 122 1296 181 m 833 122 q 792 25 833 64 q 694 -14 751 -14 q 641 -3 667 -14 q 596 25 615 7 q 565 67 576 43 q 553 121 553 92 q 564 174 553 149 q 594 217 575 199 q 640 247 614 236 q 694 258 665 258 q 792 219 751 258 q 833 122 833 181 m 371 122 q 331 25 371 64 q 232 -14 290 -14 q 178 -3 204 -14 q 133 25 153 7 q 103 67 114 43 q 92 121 92 92 q 103 174 92 149 q 133 217 114 199 q 178 247 153 236 q 232 258 203 258 q 330 219 289 258 q 371 122 371 181 z "},"‰":{"ha":1729,"x_min":47,"x_max":1681,"o":"m 1681 232 q 1661 135 1681 181 q 1608 56 1642 90 q 1528 3 1574 22 q 1431 -17 1482 -17 q 1334 3 1379 -17 q 1255 56 1289 22 q 1201 135 1221 90 q 1182 232 1182 181 q 1201 328 1182 283 q 1255 407 1221 374 q 1334 460 1289 440 q 1431 479 1379 479 q 1528 460 1482 479 q 1608 407 1574 440 q 1661 328 1642 374 q 1681 232 1681 283 m 1533 232 q 1504 306 1533 276 q 1431 335 1475 335 q 1357 306 1386 335 q 1328 232 1328 276 q 1357 158 1328 188 q 1431 129 1386 129 q 1504 158 1475 129 q 1533 232 1533 188 m 1128 232 q 1108 135 1128 181 q 1053 56 1088 90 q 974 3 1019 22 q 878 -17 929 -17 q 781 3 826 -17 q 701 56 735 22 q 647 135 667 90 q 628 232 628 181 q 647 328 628 283 q 701 407 667 374 q 781 460 735 440 q 878 479 826 479 q 974 460 929 479 q 1053 407 1019 440 q 1108 328 1088 374 q 1128 232 1128 283 m 981 232 q 951 306 981 276 q 878 335 921 335 q 804 306 833 335 q 775 232 775 276 q 804 158 775 188 q 878 129 833 129 q 951 158 921 129 q 981 232 981 188 m 547 753 q 527 656 547 701 q 473 577 507 611 q 394 524 439 543 q 297 504 349 504 q 200 524 246 504 q 120 577 154 543 q 67 656 86 611 q 47 753 47 701 q 67 849 47 804 q 120 928 86 894 q 200 981 154 961 q 297 1000 246 1000 q 394 981 349 1000 q 473 928 439 961 q 527 849 507 894 q 547 753 547 804 m 400 753 q 370 826 400 797 q 297 856 340 856 q 224 826 253 856 q 194 753 194 797 q 224 679 194 708 q 297 650 253 650 q 370 679 340 650 q 400 753 400 708 m 378 -42 l 254 13 l 793 1028 l 917 971 l 378 -42 z "},"‹":{"ha":442,"x_min":35,"x_max":394,"o":"m 258 31 l 35 353 l 258 675 l 393 588 l 233 353 l 394 118 l 258 31 z "},"›":{"ha":442,"x_min":47,"x_max":407,"o":"m 183 31 l 49 118 l 208 351 l 47 588 l 183 675 l 407 351 l 183 31 z "},"⁄":{"ha":139,"x_min":-269,"x_max":390,"o":"m -149 -42 l -269 13 l 269 1028 l 390 971 l -149 -42 z "},"€":{"ha":897,"x_min":29,"x_max":851,"o":"m 839 28 q 735 -11 799 4 q 594 -26 672 -26 q 430 -1 503 -26 q 303 67 357 24 q 212 171 249 111 q 157 300 175 231 l 29 300 l 76 443 l 139 443 q 138 468 138 456 q 138 492 138 481 q 142 542 138 517 l 33 542 l 83 686 l 163 686 q 228 822 185 763 q 331 924 271 882 q 466 988 392 965 q 625 1010 540 1010 q 749 999 686 1010 q 851 968 811 988 l 783 793 q 708 817 753 808 q 618 825 663 825 q 547 816 582 825 q 483 790 513 807 q 429 746 453 772 q 393 686 406 719 l 761 686 l 713 542 l 354 542 q 351 517 351 529 q 351 490 351 506 q 351 467 351 481 q 353 443 351 454 l 688 443 l 640 300 l 382 300 q 413 245 392 271 q 464 201 433 219 q 532 172 494 182 q 611 161 569 161 q 788 204 714 161 l 839 28 z "},"ℓ":{"ha":694,"x_min":1,"x_max":646,"o":"m 646 78 q 526 5 586 29 q 394 -19 465 -19 q 291 -3 336 -19 q 215 42 246 14 q 169 108 185 69 q 154 190 154 146 l 154 225 l 79 163 l 76 163 l 1 279 l 153 399 l 153 722 q 172 831 153 781 q 227 920 192 882 q 312 980 263 958 q 419 1001 361 1001 q 512 985 471 1001 q 582 942 553 969 q 626 874 611 914 q 642 786 642 833 q 575 578 642 679 q 369 365 508 478 l 369 225 q 394 157 369 176 q 449 138 419 138 q 571 189 499 138 l 574 189 l 646 78 m 467 774 q 454 834 467 808 q 418 860 442 860 q 383 833 397 860 q 369 764 369 806 l 369 546 q 445 658 424 601 q 467 774 467 715 z "},"™":{"ha":1389,"x_min":56,"x_max":1317,"o":"m 1169 411 l 1169 771 l 1167 771 l 1032 411 l 922 411 l 789 771 l 786 771 l 786 411 l 640 411 l 640 983 l 849 983 l 981 622 l 1108 983 l 1317 983 l 1317 411 l 1169 411 m 372 851 l 372 411 l 219 411 l 219 851 l 56 851 l 56 983 l 536 983 l 536 851 l 372 851 z "},"Ω":{"ha":1071,"x_min":71,"x_max":1000,"o":"m 596 0 l 596 304 q 674 339 640 315 q 732 397 708 363 q 778 563 778 465 q 758 663 778 618 q 704 740 738 708 q 628 788 671 771 q 538 806 585 806 q 445 789 489 806 q 368 740 401 772 q 315 663 335 708 q 294 561 294 618 q 345 397 294 465 q 475 304 396 328 l 475 0 l 71 0 l 71 200 l 303 200 l 303 215 q 206 265 249 232 q 133 343 163 299 q 71 563 71 438 q 108 742 71 661 q 208 880 144 822 q 355 969 271 938 q 535 1001 439 1001 q 715 970 631 1001 q 863 882 800 939 q 963 744 926 825 q 1000 565 1000 664 q 985 447 1000 503 q 940 344 969 390 q 868 265 911 299 q 768 215 825 232 l 768 200 l 1000 200 l 1000 0 l 596 0 z "},"℮":{"ha":1111,"x_min":83,"x_max":1035,"o":"m 826 558 l 826 826 q 557 936 713 936 q 292 826 401 936 l 292 558 l 826 558 m 292 493 l 292 160 q 558 51 397 51 q 758 103 674 51 q 914 272 843 156 l 978 233 q 892 119 936 167 q 799 42 849 72 q 690 -2 749 13 q 558 -17 631 -17 q 363 23 450 -17 q 213 132 275 63 q 117 294 150 201 q 83 493 83 386 q 117 692 83 600 q 213 853 150 785 q 363 961 275 922 q 558 1000 450 1000 q 752 963 664 1000 q 903 858 840 925 q 1000 697 965 790 q 1035 493 1035 604 l 292 493 z "},"∂":{"ha":925,"x_min":96,"x_max":818,"o":"m 593 594 q 583 669 593 632 q 550 738 572 707 q 494 789 528 769 q 414 808 461 808 q 321 792 368 808 q 224 717 274 775 l 117 872 q 415 1001 246 1001 q 609 956 532 1001 q 733 838 686 910 q 799 676 779 765 q 818 499 818 586 q 812 385 818 444 q 790 267 806 325 q 748 158 775 210 q 678 67 721 106 q 577 5 636 28 q 439 -18 518 -18 q 301 7 364 -18 q 192 76 238 32 q 121 183 146 121 q 96 318 96 244 q 119 444 96 386 q 184 545 142 503 q 288 611 226 588 q 429 635 350 635 q 593 594 519 635 m 583 406 q 456 456 518 456 q 359 415 392 456 q 326 308 326 374 q 358 206 326 246 q 443 167 390 167 q 508 186 481 167 q 551 237 535 206 q 576 308 568 268 q 583 388 583 347 l 583 406 z "},"∆":{"ha":986,"x_min":13,"x_max":974,"o":"m 13 0 l 385 983 l 579 983 l 974 0 l 13 0 m 478 699 l 297 201 l 669 201 l 478 699 z "},"∏":{"ha":1046,"x_min":82,"x_max":965,"o":"m 754 -297 l 754 907 l 292 907 l 292 -297 l 82 -297 l 82 1092 l 965 1092 l 965 -297 l 754 -297 z "},"∑":{"ha":925,"x_min":36,"x_max":894,"o":"m 36 -297 l 36 -143 l 442 406 l 53 938 l 53 1092 l 878 1092 l 878 907 l 319 907 l 675 407 l 296 -112 l 894 -112 l 894 -297 l 36 -297 z "},"−":{"ha":925,"x_min":94,"x_max":831,"o":"m 94 336 l 94 507 l 831 507 l 831 336 l 94 336 z "},"∕":{"ha":139,"x_min":-269,"x_max":390,"o":"m -149 -42 l -269 13 l 269 1028 l 390 971 l -149 -42 z "},"∙":{"ha":417,"x_min":68,"x_max":349,"o":"m 349 404 q 308 307 349 346 q 210 268 267 268 q 155 278 181 268 q 110 307 129 289 q 79 349 90 325 q 68 403 68 374 q 79 456 68 431 q 110 499 90 481 q 155 529 129 518 q 210 540 181 540 q 308 501 267 540 q 349 404 349 463 z "},"√":{"ha":790,"x_min":-15,"x_max":804,"o":"m 507 -297 l 332 -297 l 131 119 l 60 86 l -15 244 l 228 354 l 383 22 l 603 1092 l 804 1092 l 507 -297 z "},"∞":{"ha":1163,"x_min":63,"x_max":1100,"o":"m 1100 369 q 1083 267 1100 315 q 1033 182 1065 218 q 953 125 1001 146 q 846 104 906 104 q 766 116 803 104 q 697 147 729 128 q 635 193 664 167 q 582 247 607 219 q 528 194 556 219 q 469 149 500 168 q 401 117 438 129 q 321 106 365 106 q 213 126 261 106 q 132 181 165 146 q 81 265 99 217 q 63 368 63 313 q 80 469 63 422 q 130 552 97 517 q 209 608 163 588 q 315 628 256 628 q 399 615 361 628 q 468 582 436 603 q 528 533 500 561 q 582 476 557 506 q 635 533 607 506 q 694 583 663 561 q 765 617 726 604 q 847 629 803 629 q 953 609 907 629 q 1033 553 1000 589 q 1083 471 1065 518 q 1100 369 1100 424 m 936 365 q 912 436 936 408 q 843 464 888 464 q 799 454 821 464 q 756 430 776 444 q 718 398 736 415 q 685 364 700 381 q 758 299 717 328 q 847 269 799 269 q 913 297 889 269 q 936 365 936 325 m 478 364 q 442 398 461 381 q 401 430 422 415 q 358 453 381 444 q 315 463 336 463 q 251 434 275 463 q 226 365 226 406 q 251 297 226 322 q 319 271 276 271 q 405 301 364 271 q 478 364 446 331 z "},"∫":{"ha":879,"x_min":110,"x_max":721,"o":"m 721 967 q 695 901 721 928 q 629 874 669 874 q 587 885 601 874 q 563 910 572 896 q 546 939 553 925 q 528 957 539 953 q 514 922 515 946 q 513 883 513 899 q 514 826 513 854 q 515 768 515 797 l 515 157 q 515 78 515 118 q 513 0 515 39 q 500 -108 510 -54 q 465 -203 490 -161 q 396 -272 440 -246 q 282 -297 351 -297 q 226 -290 256 -297 q 170 -269 196 -283 q 127 -230 144 -254 q 110 -169 110 -206 q 117 -144 110 -156 q 147 -99 124 -117 q 203 -81 171 -81 q 244 -92 229 -81 q 267 -117 258 -103 q 283 -144 276 -132 q 300 -161 289 -157 q 310 -149 307 -157 q 315 -132 314 -142 q 317 -112 317 -122 q 317 -96 317 -103 q 316 -40 318 -68 q 314 15 314 -12 l 314 63 l 314 704 q 319 833 314 765 q 347 958 324 901 q 417 1053 369 1015 q 550 1090 464 1090 q 603 1084 574 1090 q 659 1063 633 1078 q 703 1025 685 1049 q 721 967 721 1001 z "},"≈":{"ha":925,"x_min":33,"x_max":806,"o":"m 806 650 q 736 453 794 522 q 582 383 678 383 q 494 397 540 383 q 401 428 447 411 q 314 458 356 444 q 240 472 272 472 q 194 449 211 472 q 169 396 176 425 l 36 396 q 54 489 40 443 q 95 570 68 535 q 163 628 122 606 q 261 650 204 650 q 347 638 304 650 q 433 609 390 625 q 517 581 475 593 q 601 568 560 568 q 649 590 632 568 q 671 650 665 611 l 806 650 m 804 343 q 785 253 799 299 q 747 170 772 207 q 681 110 721 133 q 583 88 642 88 q 494 101 542 88 q 400 133 446 115 q 312 164 354 150 q 239 178 269 178 q 192 153 210 178 q 167 92 174 129 l 33 92 q 51 187 38 139 q 92 272 65 235 q 158 333 118 310 q 253 357 197 357 q 340 344 296 357 q 427 315 383 331 q 515 285 471 299 q 601 272 558 272 q 646 292 629 272 q 669 343 663 313 l 804 343 z "},"≠":{"ha":925,"x_min":72,"x_max":790,"o":"m 411 153 l 308 -50 l 149 28 l 214 153 l 72 153 l 72 329 l 304 329 l 364 446 l 72 446 l 72 622 l 454 622 l 558 824 l 718 747 l 653 622 l 790 622 l 790 446 l 563 446 l 503 329 l 790 329 l 790 153 l 411 153 z "},"≤":{"ha":925,"x_min":110,"x_max":815,"o":"m 110 25 l 110 196 l 815 196 l 815 25 l 110 25 m 110 511 l 110 654 l 815 951 l 815 763 l 390 581 l 815 404 l 815 214 l 110 511 z "},"≥":{"ha":925,"x_min":110,"x_max":815,"o":"m 110 196 l 815 196 l 815 25 l 110 25 l 110 196 m 110 404 l 535 581 l 110 763 l 110 951 l 815 654 l 815 511 l 110 214 l 110 404 z "},"◊":{"ha":842,"x_min":85,"x_max":758,"o":"m 503 -49 l 336 -49 l 85 494 l 338 1038 l 503 1038 l 758 494 l 503 -49 m 419 829 l 279 494 l 419 160 l 563 494 l 419 829 z "},"":{"ha":415,"x_min":-51,"x_max":324,"o":"m 324 -18 q 312 -140 324 -82 q 269 -240 300 -197 q 185 -308 239 -283 q 47 -333 131 -333 q -4 -331 24 -333 q -51 -322 -32 -328 l -36 -132 q -10 -137 -24 -136 q 13 -139 3 -139 q 79 -105 63 -139 q 96 -18 96 -71 l 96 692 l 324 692 l 324 -18 l 324 -18 z "},"":{"ha":417,"x_min":32,"x_max":326,"o":"m 207 -333 l 32 -333 l 125 -62 l 326 -62 l 207 -333 z "},"":{"ha":711,"x_min":0,"x_max":711,"o":"m 308 163 l 308 256 l 386 256 l 386 163 l 308 163 m 313 325 l 310 349 q 328 461 310 426 q 353 499 338 479 q 392 543 368 519 q 428 580 414 564 q 449 609 442 596 q 458 634 456 622 q 461 658 461 646 q 430 742 461 708 q 356 776 399 776 q 281 746 313 776 q 242 644 250 715 l 172 656 q 233 801 182 756 q 360 846 285 846 q 483 797 435 846 q 532 664 532 747 q 515 583 532 619 q 444 497 497 546 q 385 425 393 451 q 376 325 376 397 l 313 325 m 642 69 l 642 926 l 69 926 l 69 69 l 642 69 m 711 997 l 711 0 l 0 0 l 0 997 l 711 997 z "},"ﬁ":{"ha":924,"x_min":0,"x_max":849,"o":"m 849 913 q 838 863 849 886 q 810 824 828 840 q 768 797 792 807 q 718 788 744 788 q 625 824 663 788 q 588 913 588 861 q 597 960 588 938 q 625 1000 607 983 q 667 1027 643 1017 q 718 1038 690 1038 q 768 1028 744 1038 q 810 1001 792 1018 q 838 962 828 985 q 849 913 849 939 m 603 0 l 603 692 l 832 692 l 832 0 l 603 0 m 518 882 q 489 889 506 886 q 456 892 472 892 q 404 881 424 892 q 374 851 385 869 q 358 808 363 832 q 354 761 354 785 l 354 692 l 508 692 l 508 521 l 354 521 l 354 0 l 126 0 l 126 521 l 0 521 l 0 692 l 126 692 l 126 758 q 140 880 126 822 q 188 981 154 938 q 280 1051 222 1025 q 424 1076 338 1076 q 481 1073 453 1076 q 533 1063 510 1069 l 518 882 z "},"ﬂ":{"ha":925,"x_min":0,"x_max":833,"o":"m 603 0 l 603 1050 l 833 1050 l 833 0 l 603 0 m 518 882 q 489 889 506 886 q 456 892 472 892 q 404 881 424 892 q 374 851 385 869 q 358 808 363 832 q 354 761 354 785 l 354 692 l 508 692 l 508 521 l 354 521 l 354 0 l 126 0 l 126 521 l 0 521 l 0 692 l 126 692 l 126 758 q 140 880 126 822 q 188 981 154 938 q 280 1051 222 1025 q 424 1076 338 1076 q 481 1073 453 1076 q 533 1063 510 1069 l 518 882 z "}}}
